<svg xmlns="http://www.w3.org/2000/svg" viewBox="0 0 1920 1080"><g transform="
          rotate(0 960 540) 
          translate(-0 -0)
          scale(1)
        "><rect width="1920" height="1080" fill="rgb(34, 40, 49)"></rect><g transform="translate(0, 0)"><path fill="rgb(40, 46, 55)" fill-opacity="1" d="M0,72.291L5.079,74.212C10.159,76.133,20.317,79.974,30.476,79.993C40.635,80.012,50.794,76.209,60.952,64.473C71.111,52.738,81.27,33.072,91.429,25.909C101.587,18.747,111.746,24.088,121.905,36.509C132.063,48.93,142.222,68.431,152.381,71.905C162.54,75.379,172.698,62.826,182.857,48.718C193.016,34.609,203.175,18.945,213.333,10.798C223.492,2.652,233.651,2.024,243.81,12.521C253.968,23.017,264.127,44.637,274.286,44.956C284.444,45.274,294.603,24.291,304.762,27.411C314.921,30.532,325.079,57.756,335.238,64.82C345.397,71.883,355.556,58.786,365.714,58.089C375.873,57.393,386.032,69.097,396.19,70.129C406.349,71.16,416.508,61.52,426.667,56.443C436.825,51.367,446.984,50.855,457.143,44.638C467.302,38.421,477.46,26.499,487.619,25.723C497.778,24.948,507.937,35.319,518.095,38.291C528.254,41.262,538.413,36.835,548.571,33.639C558.73,30.443,568.889,28.48,579.048,37.142C589.206,45.805,599.365,65.093,609.524,74.112C619.683,83.132,629.841,81.883,640,71.026C650.159,60.169,660.317,39.704,670.476,30.061C680.635,20.418,690.794,21.597,700.952,24.246C711.111,26.895,721.27,31.015,731.429,30.879C741.587,30.744,751.746,26.354,761.905,23.608C772.063,20.863,782.222,19.761,792.381,22.956C802.54,26.15,812.698,33.64,822.857,33.549C833.016,33.458,843.175,25.786,853.333,26.477C863.492,27.169,873.651,36.225,883.81,35.616C893.968,35.008,904.127,24.734,914.286,21.539C924.444,18.344,934.603,22.226,944.762,33.322C954.921,44.417,965.079,62.726,975.238,67.257C985.397,71.788,995.556,62.542,1005.714,61.613C1015.873,60.684,1026.032,68.072,1036.19,72.552C1046.349,77.033,1056.508,78.606,1066.667,67.699C1076.825,56.791,1086.984,33.404,1097.143,23.63C1107.302,13.855,1117.46,17.695,1127.619,19.19C1137.778,20.686,1147.937,19.837,1158.095,19.326C1168.254,18.815,1178.413,18.642,1188.571,19.608C1198.73,20.575,1208.889,22.681,1219.048,31.513C1229.206,40.344,1239.365,55.901,1249.524,54.522C1259.683,53.142,1269.841,34.828,1280,23.704C1290.159,12.581,1300.317,8.65,1310.476,10.722C1320.635,12.795,1330.794,20.871,1340.952,30.801C1351.111,40.73,1361.27,52.513,1371.429,60.935C1381.587,69.357,1391.746,74.419,1401.905,73.755C1412.063,73.09,1422.222,66.699,1432.381,55.863C1442.54,45.026,1452.698,29.744,1462.857,32.313C1473.016,34.881,1483.175,55.302,1493.333,55.208C1503.492,55.114,1513.651,34.506,1523.81,32.949C1533.968,31.392,1544.127,48.887,1554.286,61.52C1564.444,74.153,1574.603,81.924,1584.762,76.642C1594.921,71.361,1605.079,53.026,1615.238,50.879C1625.397,48.733,1635.556,62.776,1645.714,59.82C1655.873,56.864,1666.032,36.908,1676.19,35.502C1686.349,34.095,1696.508,51.237,1706.667,52.219C1716.825,53.2,1726.984,38.02,1737.143,33.752C1747.302,29.484,1757.46,36.128,1767.619,41.135C1777.778,46.141,1787.937,49.51,1798.095,52.427C1808.254,55.345,1818.413,57.81,1828.571,53.198C1838.73,48.586,1848.889,36.898,1859.048,37.799C1869.206,38.7,1879.365,52.191,1889.524,57.662C1899.683,63.133,1909.841,60.584,1914.921,59.309L1920,58.034L1920,1080L1914.921,1080C1909.841,1080,1899.683,1080,1889.524,1080C1879.365,1080,1869.206,1080,1859.048,1080C1848.889,1080,1838.73,1080,1828.571,1080C1818.413,1080,1808.254,1080,1798.095,1080C1787.937,1080,1777.778,1080,1767.619,1080C1757.46,1080,1747.302,1080,1737.143,1080C1726.984,1080,1716.825,1080,1706.667,1080C1696.508,1080,1686.349,1080,1676.19,1080C1666.032,1080,1655.873,1080,1645.714,1080C1635.556,1080,1625.397,1080,1615.238,1080C1605.079,1080,1594.921,1080,1584.762,1080C1574.603,1080,1564.444,1080,1554.286,1080C1544.127,1080,1533.968,1080,1523.81,1080C1513.651,1080,1503.492,1080,1493.333,1080C1483.175,1080,1473.016,1080,1462.857,1080C1452.698,1080,1442.54,1080,1432.381,1080C1422.222,1080,1412.063,1080,1401.905,1080C1391.746,1080,1381.587,1080,1371.429,1080C1361.27,1080,1351.111,1080,1340.952,1080C1330.794,1080,1320.635,1080,1310.476,1080C1300.317,1080,1290.159,1080,1280,1080C1269.841,1080,1259.683,1080,1249.524,1080C1239.365,1080,1229.206,1080,1219.048,1080C1208.889,1080,1198.73,1080,1188.571,1080C1178.413,1080,1168.254,1080,1158.095,1080C1147.937,1080,1137.778,1080,1127.619,1080C1117.46,1080,1107.302,1080,1097.143,1080C1086.984,1080,1076.825,1080,1066.667,1080C1056.508,1080,1046.349,1080,1036.19,1080C1026.032,1080,1015.873,1080,1005.714,1080C995.556,1080,985.397,1080,975.238,1080C965.079,1080,954.921,1080,944.762,1080C934.603,1080,924.444,1080,914.286,1080C904.127,1080,893.968,1080,883.81,1080C873.651,1080,863.492,1080,853.333,1080C843.175,1080,833.016,1080,822.857,1080C812.698,1080,802.54,1080,792.381,1080C782.222,1080,772.063,1080,761.905,1080C751.746,1080,741.587,1080,731.429,1080C721.27,1080,711.111,1080,700.952,1080C690.794,1080,680.635,1080,670.476,1080C660.317,1080,650.159,1080,640,1080C629.841,1080,619.683,1080,609.524,1080C599.365,1080,589.206,1080,579.048,1080C568.889,1080,558.73,1080,548.571,1080C538.413,1080,528.254,1080,518.095,1080C507.937,1080,497.778,1080,487.619,1080C477.46,1080,467.302,1080,457.143,1080C446.984,1080,436.825,1080,426.667,1080C416.508,1080,406.349,1080,396.19,1080C386.032,1080,375.873,1080,365.714,1080C355.556,1080,345.397,1080,335.238,1080C325.079,1080,314.921,1080,304.762,1080C294.603,1080,284.444,1080,274.286,1080C264.127,1080,253.968,1080,243.81,1080C233.651,1080,223.492,1080,213.333,1080C203.175,1080,193.016,1080,182.857,1080C172.698,1080,162.54,1080,152.381,1080C142.222,1080,132.063,1080,121.905,1080C111.746,1080,101.587,1080,91.429,1080C81.27,1080,71.111,1080,60.952,1080C50.794,1080,40.635,1080,30.476,1080C20.317,1080,10.159,1080,5.079,1080L0,1080Z"></path></g><g transform="translate(0, 90)"><path fill="rgb(44, 54, 62)" fill-opacity="1" d="M0,28.598L5.079,28.066C10.159,27.535,20.317,26.471,30.476,35.727C40.635,44.982,50.794,64.556,60.952,72.235C71.111,79.914,81.27,75.699,91.429,69.116C101.587,62.533,111.746,53.582,121.905,53.386C132.063,53.191,142.222,61.749,152.381,55.224C162.54,48.699,172.698,27.09,182.857,19.282C193.016,11.474,203.175,17.467,213.333,20.345C223.492,23.223,233.651,22.987,243.81,29.576C253.968,36.164,264.127,49.578,274.286,58.843C284.444,68.109,294.603,73.226,304.762,74.142C314.921,75.058,325.079,71.772,335.238,73.236C345.397,74.7,355.556,80.914,365.714,83.217C375.873,85.519,386.032,83.911,396.19,76.807C406.349,69.703,416.508,57.104,426.667,44.165C436.825,31.226,446.984,17.948,457.143,21.999C467.302,26.051,477.46,47.432,487.619,60.035C497.778,72.638,507.937,76.462,518.095,72.357C528.254,68.253,538.413,56.221,548.571,48.332C558.73,40.444,568.889,36.698,579.048,29.385C589.206,22.071,599.365,11.19,609.524,9.772C619.683,8.354,629.841,16.399,640,29.19C650.159,41.981,660.317,59.519,670.476,67.88C680.635,76.241,690.794,75.425,700.952,76.443C711.111,77.46,721.27,80.31,731.429,73.053C741.587,65.796,751.746,48.432,761.905,40.298C772.063,32.164,782.222,33.259,792.381,32.809C802.54,32.358,812.698,30.362,822.857,34.26C833.016,38.157,843.175,47.949,853.333,49.054C863.492,50.158,873.651,42.575,883.81,47.65C893.968,52.725,904.127,70.458,914.286,74.983C924.444,79.509,934.603,70.828,944.762,56.184C954.921,41.541,965.079,20.935,975.238,14.224C985.397,7.513,995.556,14.697,1005.714,18.784C1015.873,22.87,1026.032,23.859,1036.19,24.796C1046.349,25.732,1056.508,26.616,1066.667,23.719C1076.825,20.822,1086.984,14.143,1097.143,14.674C1107.302,15.206,1117.46,22.948,1127.619,33.567C1137.778,44.186,1147.937,57.681,1158.095,59.217C1168.254,60.752,1178.413,50.328,1188.571,43.413C1198.73,36.498,1208.889,33.093,1219.048,28.408C1229.206,23.724,1239.365,17.76,1249.524,21.022C1259.683,24.283,1269.841,36.77,1280,40.136C1290.159,43.503,1300.317,37.75,1310.476,30.689C1320.635,23.628,1330.794,15.26,1340.952,17.674C1351.111,20.088,1361.27,33.285,1371.429,38.6C1381.587,43.915,1391.746,41.348,1401.905,41.89C1412.063,42.431,1422.222,46.081,1432.381,52.161C1442.54,58.241,1452.698,66.753,1462.857,61.28C1473.016,55.807,1483.175,36.35,1493.333,38.323C1503.492,40.295,1513.651,63.697,1523.81,70.972C1533.968,78.247,1544.127,69.396,1554.286,65.78C1564.444,62.165,1574.603,63.785,1584.762,67.358C1594.921,70.931,1605.079,76.458,1615.238,73.45C1625.397,70.442,1635.556,58.899,1645.714,56.924C1655.873,54.948,1666.032,62.54,1676.19,57.681C1686.349,52.823,1696.508,35.514,1706.667,35.503C1716.825,35.492,1726.984,52.779,1737.143,57.29C1747.302,61.801,1757.46,53.537,1767.619,56.338C1777.778,59.14,1787.937,73.007,1798.095,79.316C1808.254,85.625,1818.413,84.375,1828.571,72.127C1838.73,59.878,1848.889,36.631,1859.048,26.759C1869.206,16.887,1879.365,20.39,1889.524,25.143C1899.683,29.896,1909.841,35.898,1914.921,38.899L1920,41.9L1920,990L1914.921,990C1909.841,990,1899.683,990,1889.524,990C1879.365,990,1869.206,990,1859.048,990C1848.889,990,1838.73,990,1828.571,990C1818.413,990,1808.254,990,1798.095,990C1787.937,990,1777.778,990,1767.619,990C1757.46,990,1747.302,990,1737.143,990C1726.984,990,1716.825,990,1706.667,990C1696.508,990,1686.349,990,1676.19,990C1666.032,990,1655.873,990,1645.714,990C1635.556,990,1625.397,990,1615.238,990C1605.079,990,1594.921,990,1584.762,990C1574.603,990,1564.444,990,1554.286,990C1544.127,990,1533.968,990,1523.81,990C1513.651,990,1503.492,990,1493.333,990C1483.175,990,1473.016,990,1462.857,990C1452.698,990,1442.54,990,1432.381,990C1422.222,990,1412.063,990,1401.905,990C1391.746,990,1381.587,990,1371.429,990C1361.27,990,1351.111,990,1340.952,990C1330.794,990,1320.635,990,1310.476,990C1300.317,990,1290.159,990,1280,990C1269.841,990,1259.683,990,1249.524,990C1239.365,990,1229.206,990,1219.048,990C1208.889,990,1198.73,990,1188.571,990C1178.413,990,1168.254,990,1158.095,990C1147.937,990,1137.778,990,1127.619,990C1117.46,990,1107.302,990,1097.143,990C1086.984,990,1076.825,990,1066.667,990C1056.508,990,1046.349,990,1036.19,990C1026.032,990,1015.873,990,1005.714,990C995.556,990,985.397,990,975.238,990C965.079,990,954.921,990,944.762,990C934.603,990,924.444,990,914.286,990C904.127,990,893.968,990,883.81,990C873.651,990,863.492,990,853.333,990C843.175,990,833.016,990,822.857,990C812.698,990,802.54,990,792.381,990C782.222,990,772.063,990,761.905,990C751.746,990,741.587,990,731.429,990C721.27,990,711.111,990,700.952,990C690.794,990,680.635,990,670.476,990C660.317,990,650.159,990,640,990C629.841,990,619.683,990,609.524,990C599.365,990,589.206,990,579.048,990C568.889,990,558.73,990,548.571,990C538.413,990,528.254,990,518.095,990C507.937,990,497.778,990,487.619,990C477.46,990,467.302,990,457.143,990C446.984,990,436.825,990,426.667,990C416.508,990,406.349,990,396.19,990C386.032,990,375.873,990,365.714,990C355.556,990,345.397,990,335.238,990C325.079,990,314.921,990,304.762,990C294.603,990,284.444,990,274.286,990C264.127,990,253.968,990,243.81,990C233.651,990,223.492,990,213.333,990C203.175,990,193.016,990,182.857,990C172.698,990,162.54,990,152.381,990C142.222,990,132.063,990,121.905,990C111.746,990,101.587,990,91.429,990C81.27,990,71.111,990,60.952,990C50.794,990,40.635,990,30.476,990C20.317,990,10.159,990,5.079,990L0,990Z"></path></g><g transform="translate(0, 180)"><path fill="rgb(46, 66, 73)" fill-opacity="1" d="M0,10.093L5.079,15.967C10.159,21.84,20.317,33.588,30.476,39.742C40.635,45.896,50.794,46.457,60.952,49.96C71.111,53.463,81.27,59.909,91.429,54.305C101.587,48.701,111.746,31.047,121.905,28.049C132.063,25.05,142.222,36.706,152.381,46.124C162.54,55.542,172.698,62.723,182.857,55.435C193.016,48.146,203.175,26.389,213.333,25.49C223.492,24.591,233.651,44.551,243.81,54.815C253.968,65.08,264.127,65.649,274.286,56.75C284.444,47.85,294.603,29.481,304.762,20.3C314.921,11.119,325.079,11.126,335.238,17.875C345.397,24.624,355.556,38.116,365.714,38.24C375.873,38.364,386.032,25.12,396.19,18.915C406.349,12.711,416.508,13.546,426.667,11.751C436.825,9.957,446.984,5.533,457.143,3.26C467.302,0.987,477.46,0.864,487.619,3.271C497.778,5.678,507.937,10.614,518.095,19.807C528.254,29,538.413,42.448,548.571,51.097C558.73,59.746,568.889,63.594,579.048,59.834C589.206,56.075,599.365,44.707,609.524,44.216C619.683,43.726,629.841,54.114,640,59.756C650.159,65.399,660.317,66.298,670.476,57.326C680.635,48.354,690.794,29.513,700.952,29.842C711.111,30.171,721.27,49.672,731.429,57.682C741.587,65.692,751.746,62.213,761.905,61.422C772.063,60.632,782.222,62.53,792.381,57.949C802.54,53.369,812.698,42.309,822.857,38.455C833.016,34.601,843.175,37.953,853.333,35.701C863.492,33.449,873.651,25.594,883.81,32.669C893.968,39.744,904.127,61.748,914.286,70.097C924.444,78.445,934.603,73.137,944.762,65.087C954.921,57.038,965.079,46.248,975.238,43.739C985.397,41.23,995.556,47.003,1005.714,44.379C1015.873,41.755,1026.032,30.733,1036.19,24.279C1046.349,17.826,1056.508,15.939,1066.667,23.474C1076.825,31.009,1086.984,47.965,1097.143,47.582C1107.302,47.198,1117.46,29.475,1127.619,32.773C1137.778,36.071,1147.937,60.39,1158.095,64.462C1168.254,68.533,1178.413,52.357,1188.571,52.312C1198.73,52.267,1208.889,68.353,1219.048,72.341C1229.206,76.33,1239.365,68.219,1249.524,67.247C1259.683,66.275,1269.841,72.441,1280,64.483C1290.159,56.526,1300.317,34.446,1310.476,22.582C1320.635,10.718,1330.794,9.071,1340.952,18.277C1351.111,27.484,1361.27,47.543,1371.429,47.09C1381.587,46.636,1391.746,25.668,1401.905,18.098C1412.063,10.528,1422.222,16.356,1432.381,17.81C1442.54,19.263,1452.698,16.344,1462.857,17.48C1473.016,18.615,1483.175,23.806,1493.333,36.421C1503.492,49.036,1513.651,69.076,1523.81,73.953C1533.968,78.831,1544.127,68.545,1554.286,61.054C1564.444,53.563,1574.603,48.866,1584.762,44.102C1594.921,39.337,1605.079,34.505,1615.238,34.499C1625.397,34.494,1635.556,39.316,1645.714,35.217C1655.873,31.117,1666.032,18.096,1676.19,17.933C1686.349,17.77,1696.508,30.465,1706.667,33.822C1716.825,37.18,1726.984,31.199,1737.143,38.476C1747.302,45.753,1757.46,66.287,1767.619,69.815C1777.778,73.343,1787.937,59.865,1798.095,50.866C1808.254,41.867,1818.413,37.345,1828.571,35.455C1838.73,33.564,1848.889,34.304,1859.048,35.606C1869.206,36.909,1879.365,38.773,1889.524,45.19C1899.683,51.606,1909.841,62.575,1914.921,68.059L1920,73.543L1920,900L1914.921,900C1909.841,900,1899.683,900,1889.524,900C1879.365,900,1869.206,900,1859.048,900C1848.889,900,1838.73,900,1828.571,900C1818.413,900,1808.254,900,1798.095,900C1787.937,900,1777.778,900,1767.619,900C1757.46,900,1747.302,900,1737.143,900C1726.984,900,1716.825,900,1706.667,900C1696.508,900,1686.349,900,1676.19,900C1666.032,900,1655.873,900,1645.714,900C1635.556,900,1625.397,900,1615.238,900C1605.079,900,1594.921,900,1584.762,900C1574.603,900,1564.444,900,1554.286,900C1544.127,900,1533.968,900,1523.81,900C1513.651,900,1503.492,900,1493.333,900C1483.175,900,1473.016,900,1462.857,900C1452.698,900,1442.54,900,1432.381,900C1422.222,900,1412.063,900,1401.905,900C1391.746,900,1381.587,900,1371.429,900C1361.27,900,1351.111,900,1340.952,900C1330.794,900,1320.635,900,1310.476,900C1300.317,900,1290.159,900,1280,900C1269.841,900,1259.683,900,1249.524,900C1239.365,900,1229.206,900,1219.048,900C1208.889,900,1198.73,900,1188.571,900C1178.413,900,1168.254,900,1158.095,900C1147.937,900,1137.778,900,1127.619,900C1117.46,900,1107.302,900,1097.143,900C1086.984,900,1076.825,900,1066.667,900C1056.508,900,1046.349,900,1036.19,900C1026.032,900,1015.873,900,1005.714,900C995.556,900,985.397,900,975.238,900C965.079,900,954.921,900,944.762,900C934.603,900,924.444,900,914.286,900C904.127,900,893.968,900,883.81,900C873.651,900,863.492,900,853.333,900C843.175,900,833.016,900,822.857,900C812.698,900,802.54,900,792.381,900C782.222,900,772.063,900,761.905,900C751.746,900,741.587,900,731.429,900C721.27,900,711.111,900,700.952,900C690.794,900,680.635,900,670.476,900C660.317,900,650.159,900,640,900C629.841,900,619.683,900,609.524,900C599.365,900,589.206,900,579.048,900C568.889,900,558.73,900,548.571,900C538.413,900,528.254,900,518.095,900C507.937,900,497.778,900,487.619,900C477.46,900,467.302,900,457.143,900C446.984,900,436.825,900,426.667,900C416.508,900,406.349,900,396.19,900C386.032,900,375.873,900,365.714,900C355.556,900,345.397,900,335.238,900C325.079,900,314.921,900,304.762,900C294.603,900,284.444,900,274.286,900C264.127,900,253.968,900,243.81,900C233.651,900,223.492,900,213.333,900C203.175,900,193.016,900,182.857,900C172.698,900,162.54,900,152.381,900C142.222,900,132.063,900,121.905,900C111.746,900,101.587,900,91.429,900C81.27,900,71.111,900,60.952,900C50.794,900,40.635,900,30.476,900C20.317,900,10.159,900,5.079,900L0,900Z"></path></g><g transform="translate(0, 270)"><path fill="rgb(45, 84, 91)" fill-opacity="1" d="M0,0.187L5.079,8.997C10.159,17.807,20.317,35.426,30.476,49.743C40.635,64.06,50.794,75.074,60.952,72.152C71.111,69.23,81.27,52.372,91.429,52.279C101.587,52.187,111.746,68.861,121.905,69.103C132.063,69.346,142.222,53.159,152.381,42.717C162.54,32.275,172.698,27.58,182.857,31.904C193.016,36.229,203.175,49.573,213.333,53.796C223.492,58.019,233.651,53.119,243.81,50.096C253.968,47.074,264.127,45.928,274.286,43.907C284.444,41.886,294.603,38.991,304.762,45.718C314.921,52.445,325.079,68.795,335.238,72.787C345.397,76.779,355.556,68.413,365.714,57.053C375.873,45.693,386.032,31.341,396.19,29.517C406.349,27.694,416.508,38.4,426.667,43.144C436.825,47.888,446.984,46.67,457.143,46.546C467.302,46.422,477.46,47.393,487.619,53.804C497.778,60.214,507.937,72.063,518.095,73.765C528.254,75.467,538.413,67.021,548.571,54.1C558.73,41.179,568.889,23.783,579.048,18.747C589.206,13.711,599.365,21.035,609.524,24.866C619.683,28.697,629.841,29.034,640,36.716C650.159,44.397,660.317,59.423,670.476,67.905C680.635,76.388,690.794,78.328,700.952,71.356C711.111,64.384,721.27,48.501,731.429,48.515C741.587,48.529,751.746,64.44,761.905,66.002C772.063,67.564,782.222,54.776,792.381,56.28C802.54,57.785,812.698,73.583,822.857,74.589C833.016,75.594,843.175,61.807,853.333,49.436C863.492,37.064,873.651,26.109,883.81,20.86C893.968,15.611,904.127,16.068,914.286,22.528C924.444,28.988,934.603,41.449,944.762,44.914C954.921,48.379,965.079,42.846,975.238,48.027C985.397,53.208,995.556,69.101,1005.714,64.729C1015.873,60.357,1026.032,35.719,1036.19,33.686C1046.349,31.653,1056.508,52.224,1066.667,56.777C1076.825,61.331,1086.984,49.866,1097.143,39.564C1107.302,29.262,1117.46,20.121,1127.619,14.085C1137.778,8.049,1147.937,5.117,1158.095,11.137C1168.254,17.157,1178.413,32.13,1188.571,36.596C1198.73,41.062,1208.889,35.021,1219.048,41.688C1229.206,48.354,1239.365,67.728,1249.524,74.668C1259.683,81.608,1269.841,76.115,1280,61.925C1290.159,47.735,1300.317,24.849,1310.476,19.375C1320.635,13.901,1330.794,25.84,1340.952,30.563C1351.111,35.285,1361.27,32.791,1371.429,32.074C1381.587,31.357,1391.746,32.417,1401.905,37.66C1412.063,42.903,1422.222,52.33,1432.381,59.02C1442.54,65.709,1452.698,69.662,1462.857,65.326C1473.016,60.989,1483.175,48.363,1493.333,46.162C1503.492,43.962,1513.651,52.187,1523.81,47.54C1533.968,42.894,1544.127,25.377,1554.286,29.073C1564.444,32.769,1574.603,57.679,1584.762,59.715C1594.921,61.751,1605.079,40.915,1615.238,36.635C1625.397,32.356,1635.556,44.633,1645.714,44.827C1655.873,45.022,1666.032,33.133,1676.19,25.403C1686.349,17.674,1696.508,14.103,1706.667,11.041C1716.825,7.978,1726.984,5.424,1737.143,10.49C1747.302,15.557,1757.46,28.245,1767.619,37.08C1777.778,45.916,1787.937,50.899,1798.095,52.515C1808.254,54.131,1818.413,52.379,1828.571,49.537C1838.73,46.695,1848.889,42.761,1859.048,41.297C1869.206,39.832,1879.365,40.838,1889.524,45.787C1899.683,50.737,1909.841,59.631,1914.921,64.078L1920,68.526L1920,810L1914.921,810C1909.841,810,1899.683,810,1889.524,810C1879.365,810,1869.206,810,1859.048,810C1848.889,810,1838.73,810,1828.571,810C1818.413,810,1808.254,810,1798.095,810C1787.937,810,1777.778,810,1767.619,810C1757.46,810,1747.302,810,1737.143,810C1726.984,810,1716.825,810,1706.667,810C1696.508,810,1686.349,810,1676.19,810C1666.032,810,1655.873,810,1645.714,810C1635.556,810,1625.397,810,1615.238,810C1605.079,810,1594.921,810,1584.762,810C1574.603,810,1564.444,810,1554.286,810C1544.127,810,1533.968,810,1523.81,810C1513.651,810,1503.492,810,1493.333,810C1483.175,810,1473.016,810,1462.857,810C1452.698,810,1442.54,810,1432.381,810C1422.222,810,1412.063,810,1401.905,810C1391.746,810,1381.587,810,1371.429,810C1361.27,810,1351.111,810,1340.952,810C1330.794,810,1320.635,810,1310.476,810C1300.317,810,1290.159,810,1280,810C1269.841,810,1259.683,810,1249.524,810C1239.365,810,1229.206,810,1219.048,810C1208.889,810,1198.73,810,1188.571,810C1178.413,810,1168.254,810,1158.095,810C1147.937,810,1137.778,810,1127.619,810C1117.46,810,1107.302,810,1097.143,810C1086.984,810,1076.825,810,1066.667,810C1056.508,810,1046.349,810,1036.19,810C1026.032,810,1015.873,810,1005.714,810C995.556,810,985.397,810,975.238,810C965.079,810,954.921,810,944.762,810C934.603,810,924.444,810,914.286,810C904.127,810,893.968,810,883.81,810C873.651,810,863.492,810,853.333,810C843.175,810,833.016,810,822.857,810C812.698,810,802.54,810,792.381,810C782.222,810,772.063,810,761.905,810C751.746,810,741.587,810,731.429,810C721.27,810,711.111,810,700.952,810C690.794,810,680.635,810,670.476,810C660.317,810,650.159,810,640,810C629.841,810,619.683,810,609.524,810C599.365,810,589.206,810,579.048,810C568.889,810,558.73,810,548.571,810C538.413,810,528.254,810,518.095,810C507.937,810,497.778,810,487.619,810C477.46,810,467.302,810,457.143,810C446.984,810,436.825,810,426.667,810C416.508,810,406.349,810,396.19,810C386.032,810,375.873,810,365.714,810C355.556,810,345.397,810,335.238,810C325.079,810,314.921,810,304.762,810C294.603,810,284.444,810,274.286,810C264.127,810,253.968,810,243.81,810C233.651,810,223.492,810,213.333,810C203.175,810,193.016,810,182.857,810C172.698,810,162.54,810,152.381,810C142.222,810,132.063,810,121.905,810C111.746,810,101.587,810,91.429,810C81.27,810,71.111,810,60.952,810C50.794,810,40.635,810,30.476,810C20.317,810,10.159,810,5.079,810L0,810Z"></path></g><g transform="translate(0, 360)"><path fill="rgb(40, 110, 114)" fill-opacity="1" d="M0,19.049L5.079,16.649C10.159,14.248,20.317,9.447,30.476,15.984C40.635,22.521,50.794,40.397,60.952,52.468C71.111,64.538,81.27,70.802,91.429,67.093C101.587,63.385,111.746,49.702,121.905,45.164C132.063,40.627,142.222,45.234,152.381,51.31C162.54,57.385,172.698,64.929,182.857,60.396C193.016,55.864,203.175,39.255,213.333,41.344C223.492,43.433,233.651,64.219,243.81,73.129C253.968,82.039,264.127,79.074,274.286,70.417C284.444,61.76,294.603,47.411,304.762,40.633C314.921,33.855,325.079,34.647,335.238,40.479C345.397,46.311,355.556,57.182,365.714,61.796C375.873,66.41,386.032,64.767,396.19,61.995C406.349,59.222,416.508,55.32,426.667,54.529C436.825,53.737,446.984,56.055,457.143,48.683C467.302,41.311,477.46,24.25,487.619,25.384C497.778,26.518,507.937,45.849,518.095,45.604C528.254,45.359,538.413,25.539,548.571,14.946C558.73,4.353,568.889,2.988,579.048,4.376C589.206,5.763,599.365,9.904,609.524,12.571C619.683,15.237,629.841,16.431,640,23.034C650.159,29.637,660.317,41.649,670.476,41.036C680.635,40.422,690.794,27.181,700.952,26.448C711.111,25.714,721.27,37.489,731.429,40.51C741.587,43.53,751.746,37.797,761.905,37.901C772.063,38.005,782.222,43.945,792.381,46.958C802.54,49.971,812.698,50.056,822.857,49.536C833.016,49.016,843.175,47.89,853.333,40.689C863.492,33.488,873.651,20.211,883.81,20.683C893.968,21.155,904.127,35.376,914.286,42.985C924.444,50.594,934.603,51.591,944.762,51.931C954.921,52.271,965.079,51.955,975.238,54.218C985.397,56.482,995.556,61.326,1005.714,66.957C1015.873,72.588,1026.032,79.006,1036.19,82.083C1046.349,85.161,1056.508,84.898,1066.667,71.656C1076.825,58.414,1086.984,32.192,1097.143,27.949C1107.302,23.705,1117.46,41.44,1127.619,40.66C1137.778,39.88,1147.937,20.586,1158.095,25.132C1168.254,29.678,1178.413,58.064,1188.571,58.798C1198.73,59.533,1208.889,32.616,1219.048,27.346C1229.206,22.076,1239.365,38.453,1249.524,46.109C1259.683,53.765,1269.841,52.7,1280,50.728C1290.159,48.756,1300.317,45.876,1310.476,39.451C1320.635,33.026,1330.794,23.056,1340.952,27.098C1351.111,31.14,1361.27,49.194,1371.429,51.76C1381.587,54.326,1391.746,41.403,1401.905,43.235C1412.063,45.067,1422.222,61.653,1432.381,60.276C1442.54,58.9,1452.698,39.56,1462.857,27.85C1473.016,16.141,1483.175,12.06,1493.333,17.579C1503.492,23.097,1513.651,38.214,1523.81,48.588C1533.968,58.962,1544.127,64.594,1554.286,61.581C1564.444,58.567,1574.603,46.907,1584.762,39.023C1594.921,31.139,1605.079,27.03,1615.238,27.47C1625.397,27.911,1635.556,32.901,1645.714,31.489C1655.873,30.077,1666.032,22.262,1676.19,16.091C1686.349,9.921,1696.508,5.394,1706.667,10.535C1716.825,15.675,1726.984,30.484,1737.143,37.482C1747.302,44.481,1757.46,43.67,1767.619,37.889C1777.778,32.108,1787.937,21.356,1798.095,17.178C1808.254,12.999,1818.413,15.394,1828.571,14.154C1838.73,12.915,1848.889,8.04,1859.048,11.426C1869.206,14.812,1879.365,26.457,1889.524,38.25C1899.683,50.043,1909.841,61.983,1914.921,67.953L1920,73.923L1920,720L1914.921,720C1909.841,720,1899.683,720,1889.524,720C1879.365,720,1869.206,720,1859.048,720C1848.889,720,1838.73,720,1828.571,720C1818.413,720,1808.254,720,1798.095,720C1787.937,720,1777.778,720,1767.619,720C1757.46,720,1747.302,720,1737.143,720C1726.984,720,1716.825,720,1706.667,720C1696.508,720,1686.349,720,1676.19,720C1666.032,720,1655.873,720,1645.714,720C1635.556,720,1625.397,720,1615.238,720C1605.079,720,1594.921,720,1584.762,720C1574.603,720,1564.444,720,1554.286,720C1544.127,720,1533.968,720,1523.81,720C1513.651,720,1503.492,720,1493.333,720C1483.175,720,1473.016,720,1462.857,720C1452.698,720,1442.54,720,1432.381,720C1422.222,720,1412.063,720,1401.905,720C1391.746,720,1381.587,720,1371.429,720C1361.27,720,1351.111,720,1340.952,720C1330.794,720,1320.635,720,1310.476,720C1300.317,720,1290.159,720,1280,720C1269.841,720,1259.683,720,1249.524,720C1239.365,720,1229.206,720,1219.048,720C1208.889,720,1198.73,720,1188.571,720C1178.413,720,1168.254,720,1158.095,720C1147.937,720,1137.778,720,1127.619,720C1117.46,720,1107.302,720,1097.143,720C1086.984,720,1076.825,720,1066.667,720C1056.508,720,1046.349,720,1036.19,720C1026.032,720,1015.873,720,1005.714,720C995.556,720,985.397,720,975.238,720C965.079,720,954.921,720,944.762,720C934.603,720,924.444,720,914.286,720C904.127,720,893.968,720,883.81,720C873.651,720,863.492,720,853.333,720C843.175,720,833.016,720,822.857,720C812.698,720,802.54,720,792.381,720C782.222,720,772.063,720,761.905,720C751.746,720,741.587,720,731.429,720C721.27,720,711.111,720,700.952,720C690.794,720,680.635,720,670.476,720C660.317,720,650.159,720,640,720C629.841,720,619.683,720,609.524,720C599.365,720,589.206,720,579.048,720C568.889,720,558.73,720,548.571,720C538.413,720,528.254,720,518.095,720C507.937,720,497.778,720,487.619,720C477.46,720,467.302,720,457.143,720C446.984,720,436.825,720,426.667,720C416.508,720,406.349,720,396.19,720C386.032,720,375.873,720,365.714,720C355.556,720,345.397,720,335.238,720C325.079,720,314.921,720,304.762,720C294.603,720,284.444,720,274.286,720C264.127,720,253.968,720,243.81,720C233.651,720,223.492,720,213.333,720C203.175,720,193.016,720,182.857,720C172.698,720,162.54,720,152.381,720C142.222,720,132.063,720,121.905,720C111.746,720,101.587,720,91.429,720C81.27,720,71.111,720,60.952,720C50.794,720,40.635,720,30.476,720C20.317,720,10.159,720,5.079,720L0,720Z"></path></g><g transform="translate(0, 450)"><path fill="rgb(37, 139, 142)" fill-opacity="1" d="M0,19.921L5.079,20.648C10.159,21.376,20.317,22.832,30.476,25.662C40.635,28.491,50.794,32.693,60.952,32.684C71.111,32.675,81.27,28.454,91.429,33.39C101.587,38.326,111.746,52.418,121.905,59.391C132.063,66.364,142.222,66.217,152.381,59.145C162.54,52.072,172.698,38.074,182.857,32.928C193.016,27.782,203.175,31.487,213.333,33.28C223.492,35.073,233.651,34.953,243.81,39.915C253.968,44.877,264.127,54.92,274.286,63.307C284.444,71.694,294.603,78.426,304.762,75.375C314.921,72.324,325.079,59.491,335.238,60.26C345.397,61.028,355.556,75.399,365.714,68.089C375.873,60.779,386.032,31.789,396.19,28.537C406.349,25.285,416.508,47.771,426.667,53.475C436.825,59.179,446.984,48.1,457.143,36.818C467.302,25.536,477.46,14.051,487.619,9.791C497.778,5.53,507.937,8.493,518.095,22.379C528.254,36.265,538.413,61.074,548.571,62.511C558.73,63.948,568.889,42.013,579.048,29.575C589.206,17.136,599.365,14.195,609.524,20.249C619.683,26.303,629.841,41.353,640,47.924C650.159,54.495,660.317,52.587,670.476,45.386C680.635,38.184,690.794,25.69,700.952,20.395C711.111,15.101,721.27,17.005,731.429,19.882C741.587,22.76,751.746,26.61,761.905,26.375C772.063,26.139,782.222,21.819,792.381,24.193C802.54,26.567,812.698,35.637,822.857,37.741C833.016,39.846,843.175,34.987,853.333,33.061C863.492,31.134,873.651,32.142,883.81,33.213C893.968,34.284,904.127,35.419,914.286,32.644C924.444,29.868,934.603,23.183,944.762,20.397C954.921,17.612,965.079,18.726,975.238,18.168C985.397,17.609,995.556,15.377,1005.714,19.286C1015.873,23.195,1026.032,33.245,1036.19,45.484C1046.349,57.724,1056.508,72.153,1066.667,76.307C1076.825,80.462,1086.984,74.342,1097.143,64.861C1107.302,55.379,1117.46,42.536,1127.619,39.865C1137.778,37.193,1147.937,44.692,1158.095,53.497C1168.254,62.302,1178.413,72.411,1188.571,67.727C1198.73,63.043,1208.889,43.566,1219.048,35.291C1229.206,27.016,1239.365,29.944,1249.524,35.273C1259.683,40.603,1269.841,48.336,1280,55.58C1290.159,62.825,1300.317,69.583,1310.476,63.139C1320.635,56.695,1330.794,37.05,1340.952,35.545C1351.111,34.04,1361.27,50.675,1371.429,55.296C1381.587,59.918,1391.746,52.526,1401.905,50.463C1412.063,48.4,1422.222,51.666,1432.381,48.923C1442.54,46.179,1452.698,37.426,1462.857,30.488C1473.016,23.55,1483.175,18.427,1493.333,17.589C1503.492,16.751,1513.651,20.199,1523.81,27.631C1533.968,35.063,1544.127,46.479,1554.286,51.383C1564.444,56.286,1574.603,54.676,1584.762,56.083C1594.921,57.489,1605.079,61.911,1615.238,62.626C1625.397,63.341,1635.556,60.348,1645.714,63.458C1655.873,66.569,1666.032,75.782,1676.19,80.705C1686.349,85.628,1696.508,86.26,1706.667,86.135C1716.825,86.009,1726.984,85.126,1737.143,73.865C1747.302,62.604,1757.46,40.965,1767.619,33.271C1777.778,25.576,1787.937,31.826,1798.095,41.401C1808.254,50.976,1818.413,63.876,1828.571,61.5C1838.73,59.125,1848.889,41.475,1859.048,36.607C1869.206,31.74,1879.365,39.655,1889.524,50.299C1899.683,60.943,1909.841,74.316,1914.921,81.002L1920,87.688L1920,630L1914.921,630C1909.841,630,1899.683,630,1889.524,630C1879.365,630,1869.206,630,1859.048,630C1848.889,630,1838.73,630,1828.571,630C1818.413,630,1808.254,630,1798.095,630C1787.937,630,1777.778,630,1767.619,630C1757.46,630,1747.302,630,1737.143,630C1726.984,630,1716.825,630,1706.667,630C1696.508,630,1686.349,630,1676.19,630C1666.032,630,1655.873,630,1645.714,630C1635.556,630,1625.397,630,1615.238,630C1605.079,630,1594.921,630,1584.762,630C1574.603,630,1564.444,630,1554.286,630C1544.127,630,1533.968,630,1523.81,630C1513.651,630,1503.492,630,1493.333,630C1483.175,630,1473.016,630,1462.857,630C1452.698,630,1442.54,630,1432.381,630C1422.222,630,1412.063,630,1401.905,630C1391.746,630,1381.587,630,1371.429,630C1361.27,630,1351.111,630,1340.952,630C1330.794,630,1320.635,630,1310.476,630C1300.317,630,1290.159,630,1280,630C1269.841,630,1259.683,630,1249.524,630C1239.365,630,1229.206,630,1219.048,630C1208.889,630,1198.73,630,1188.571,630C1178.413,630,1168.254,630,1158.095,630C1147.937,630,1137.778,630,1127.619,630C1117.46,630,1107.302,630,1097.143,630C1086.984,630,1076.825,630,1066.667,630C1056.508,630,1046.349,630,1036.19,630C1026.032,630,1015.873,630,1005.714,630C995.556,630,985.397,630,975.238,630C965.079,630,954.921,630,944.762,630C934.603,630,924.444,630,914.286,630C904.127,630,893.968,630,883.81,630C873.651,630,863.492,630,853.333,630C843.175,630,833.016,630,822.857,630C812.698,630,802.54,630,792.381,630C782.222,630,772.063,630,761.905,630C751.746,630,741.587,630,731.429,630C721.27,630,711.111,630,700.952,630C690.794,630,680.635,630,670.476,630C660.317,630,650.159,630,640,630C629.841,630,619.683,630,609.524,630C599.365,630,589.206,630,579.048,630C568.889,630,558.73,630,548.571,630C538.413,630,528.254,630,518.095,630C507.937,630,497.778,630,487.619,630C477.46,630,467.302,630,457.143,630C446.984,630,436.825,630,426.667,630C416.508,630,406.349,630,396.19,630C386.032,630,375.873,630,365.714,630C355.556,630,345.397,630,335.238,630C325.079,630,314.921,630,304.762,630C294.603,630,284.444,630,274.286,630C264.127,630,253.968,630,243.81,630C233.651,630,223.492,630,213.333,630C203.175,630,193.016,630,182.857,630C172.698,630,162.54,630,152.381,630C142.222,630,132.063,630,121.905,630C111.746,630,101.587,630,91.429,630C81.27,630,71.111,630,60.952,630C50.794,630,40.635,630,30.476,630C20.317,630,10.159,630,5.079,630L0,630Z"></path></g><g transform="translate(0, 540)"><path fill="rgb(40, 169, 170)" fill-opacity="1" d="M0,45.024L5.079,44.986C10.159,44.948,20.317,44.873,30.476,52.253C40.635,59.633,50.794,74.469,60.952,81.613C71.111,88.758,81.27,88.212,91.429,83.692C101.587,79.172,111.746,70.678,121.905,61.843C132.063,53.007,142.222,43.832,152.381,43.316C162.54,42.8,172.698,50.944,182.857,54.622C193.016,58.301,203.175,57.514,213.333,51.804C223.492,46.094,233.651,35.461,243.81,28.415C253.968,21.37,264.127,17.913,274.286,19.129C284.444,20.345,294.603,26.234,304.762,38.2C314.921,50.167,325.079,68.21,335.238,70.736C345.397,73.261,355.556,60.269,365.714,50.451C375.873,40.634,386.032,33.991,396.19,35.871C406.349,37.752,416.508,48.155,426.667,43.648C436.825,39.141,446.984,19.724,457.143,24.266C467.302,28.809,477.46,57.311,487.619,62.138C497.778,66.965,507.937,48.116,518.095,38.327C528.254,28.538,538.413,27.808,548.571,31.362C558.73,34.917,568.889,42.755,579.048,43.445C589.206,44.135,599.365,37.677,609.524,42.126C619.683,46.575,629.841,61.932,640,59.641C650.159,57.351,660.317,37.413,670.476,31.025C680.635,24.637,690.794,31.798,700.952,37.802C711.111,43.805,721.27,48.651,731.429,47.533C741.587,46.414,751.746,39.33,761.905,31.884C772.063,24.437,782.222,16.627,792.381,14.685C802.54,12.743,812.698,16.667,822.857,23.222C833.016,29.777,843.175,38.961,853.333,43.216C863.492,47.472,873.651,46.798,883.81,51.81C893.968,56.822,904.127,67.521,914.286,73.524C924.444,79.526,934.603,80.833,944.762,75.239C954.921,69.644,965.079,57.149,975.238,51.749C985.397,46.349,995.556,48.045,1005.714,47.443C1015.873,46.841,1026.032,43.943,1036.19,37.751C1046.349,31.56,1056.508,22.076,1066.667,26.43C1076.825,30.784,1086.984,48.976,1097.143,55.42C1107.302,61.865,1117.46,56.562,1127.619,48.436C1137.778,40.311,1147.937,29.362,1158.095,23.325C1168.254,17.289,1178.413,16.165,1188.571,18.451C1198.73,20.737,1208.889,26.432,1219.048,24.821C1229.206,23.21,1239.365,14.293,1249.524,21.748C1259.683,29.203,1269.841,53.03,1280,55.69C1290.159,58.35,1300.317,39.843,1310.476,28.523C1320.635,17.204,1330.794,13.073,1340.952,17.571C1351.111,22.07,1361.27,35.198,1371.429,34.686C1381.587,34.175,1391.746,20.023,1401.905,20.763C1412.063,21.502,1422.222,37.132,1432.381,38.316C1442.54,39.499,1452.698,26.237,1462.857,19.133C1473.016,12.03,1483.175,11.086,1493.333,13.727C1503.492,16.368,1513.651,22.594,1523.81,24.461C1533.968,26.328,1544.127,23.835,1554.286,32.548C1564.444,41.261,1574.603,61.18,1584.762,71.05C1594.921,80.92,1605.079,80.74,1615.238,71.724C1625.397,62.709,1635.556,44.857,1645.714,37.69C1655.873,30.524,1666.032,34.042,1676.19,40.76C1686.349,47.478,1696.508,57.396,1706.667,55.64C1716.825,53.884,1726.984,40.456,1737.143,44.179C1747.302,47.903,1757.46,68.78,1767.619,78.027C1777.778,87.274,1787.937,84.891,1798.095,78.792C1808.254,72.693,1818.413,62.879,1828.571,60.082C1838.73,57.284,1848.889,61.503,1859.048,59.637C1869.206,57.771,1879.365,49.819,1889.524,47.2C1899.683,44.581,1909.841,47.295,1914.921,48.653L1920,50.01L1920,540L1914.921,540C1909.841,540,1899.683,540,1889.524,540C1879.365,540,1869.206,540,1859.048,540C1848.889,540,1838.73,540,1828.571,540C1818.413,540,1808.254,540,1798.095,540C1787.937,540,1777.778,540,1767.619,540C1757.46,540,1747.302,540,1737.143,540C1726.984,540,1716.825,540,1706.667,540C1696.508,540,1686.349,540,1676.19,540C1666.032,540,1655.873,540,1645.714,540C1635.556,540,1625.397,540,1615.238,540C1605.079,540,1594.921,540,1584.762,540C1574.603,540,1564.444,540,1554.286,540C1544.127,540,1533.968,540,1523.81,540C1513.651,540,1503.492,540,1493.333,540C1483.175,540,1473.016,540,1462.857,540C1452.698,540,1442.54,540,1432.381,540C1422.222,540,1412.063,540,1401.905,540C1391.746,540,1381.587,540,1371.429,540C1361.27,540,1351.111,540,1340.952,540C1330.794,540,1320.635,540,1310.476,540C1300.317,540,1290.159,540,1280,540C1269.841,540,1259.683,540,1249.524,540C1239.365,540,1229.206,540,1219.048,540C1208.889,540,1198.73,540,1188.571,540C1178.413,540,1168.254,540,1158.095,540C1147.937,540,1137.778,540,1127.619,540C1117.46,540,1107.302,540,1097.143,540C1086.984,540,1076.825,540,1066.667,540C1056.508,540,1046.349,540,1036.19,540C1026.032,540,1015.873,540,1005.714,540C995.556,540,985.397,540,975.238,540C965.079,540,954.921,540,944.762,540C934.603,540,924.444,540,914.286,540C904.127,540,893.968,540,883.81,540C873.651,540,863.492,540,853.333,540C843.175,540,833.016,540,822.857,540C812.698,540,802.54,540,792.381,540C782.222,540,772.063,540,761.905,540C751.746,540,741.587,540,731.429,540C721.27,540,711.111,540,700.952,540C690.794,540,680.635,540,670.476,540C660.317,540,650.159,540,640,540C629.841,540,619.683,540,609.524,540C599.365,540,589.206,540,579.048,540C568.889,540,558.73,540,548.571,540C538.413,540,528.254,540,518.095,540C507.937,540,497.778,540,487.619,540C477.46,540,467.302,540,457.143,540C446.984,540,436.825,540,426.667,540C416.508,540,406.349,540,396.19,540C386.032,540,375.873,540,365.714,540C355.556,540,345.397,540,335.238,540C325.079,540,314.921,540,304.762,540C294.603,540,284.444,540,274.286,540C264.127,540,253.968,540,243.81,540C233.651,540,223.492,540,213.333,540C203.175,540,193.016,540,182.857,540C172.698,540,162.54,540,152.381,540C142.222,540,132.063,540,121.905,540C111.746,540,101.587,540,91.429,540C81.27,540,71.111,540,60.952,540C50.794,540,40.635,540,30.476,540C20.317,540,10.159,540,5.079,540L0,540Z"></path></g><g transform="translate(0, 630)"><path fill="rgb(55, 195, 194)" fill-opacity="1" d="M0,63.836L5.079,60.185C10.159,56.533,20.317,49.231,30.476,48.866C40.635,48.501,50.794,55.074,60.952,54.763C71.111,54.452,81.27,47.257,91.429,49.386C101.587,51.516,111.746,62.97,121.905,70.103C132.063,77.235,142.222,80.045,152.381,77.725C162.54,75.405,172.698,67.956,182.857,57.062C193.016,46.169,203.175,31.831,213.333,29.864C223.492,27.898,233.651,38.302,243.81,46.902C253.968,55.501,264.127,62.297,274.286,60.101C284.444,57.905,294.603,46.718,304.762,42.904C314.921,39.089,325.079,42.646,335.238,48.197C345.397,53.748,355.556,61.293,365.714,63.684C375.873,66.074,386.032,63.31,396.19,55.572C406.349,47.834,416.508,35.123,426.667,28.747C436.825,22.371,446.984,22.33,457.143,21.309C467.302,20.287,477.46,18.286,487.619,17.832C497.778,17.378,507.937,18.471,518.095,26.179C528.254,33.886,538.413,48.208,548.571,51.519C558.73,54.829,568.889,47.127,579.048,46.608C589.206,46.089,599.365,52.752,609.524,56.499C619.683,60.246,629.841,61.076,640,62.863C650.159,64.649,660.317,67.393,670.476,61.535C680.635,55.677,690.794,41.217,700.952,34.024C711.111,26.831,721.27,26.906,731.429,23.679C741.587,20.453,751.746,13.925,761.905,20.68C772.063,27.436,782.222,47.475,792.381,48.683C802.54,49.891,812.698,32.268,822.857,34.543C833.016,36.818,843.175,58.991,853.333,63.167C863.492,67.343,873.651,53.523,883.81,42.415C893.968,31.307,904.127,22.912,914.286,29.864C924.444,36.815,934.603,59.112,944.762,67.821C954.921,76.531,965.079,71.651,975.238,60.208C985.397,48.764,995.556,30.757,1005.714,23.935C1015.873,17.113,1026.032,21.478,1036.19,26.948C1046.349,32.417,1056.508,38.992,1066.667,40.615C1076.825,42.238,1086.984,38.909,1097.143,34.677C1107.302,30.445,1117.46,25.308,1127.619,29.331C1137.778,33.354,1147.937,46.535,1158.095,46.184C1168.254,45.832,1178.413,31.948,1188.571,36.49C1198.73,41.031,1208.889,63.997,1219.048,62.031C1229.206,60.064,1239.365,33.164,1249.524,21.868C1259.683,10.573,1269.841,14.882,1280,27.179C1290.159,39.475,1300.317,59.759,1310.476,60.061C1320.635,60.363,1330.794,40.682,1340.952,34.313C1351.111,27.943,1361.27,34.884,1371.429,31.676C1381.587,28.468,1391.746,15.112,1401.905,20.358C1412.063,25.603,1422.222,49.45,1432.381,58.815C1442.54,68.18,1452.698,63.063,1462.857,61.685C1473.016,60.306,1483.175,62.666,1493.333,57.085C1503.492,51.504,1513.651,37.982,1523.81,30.737C1533.968,23.493,1544.127,22.526,1554.286,21.686C1564.444,20.846,1574.603,20.132,1584.762,23.6C1594.921,27.067,1605.079,34.716,1615.238,33.252C1625.397,31.788,1635.556,21.212,1645.714,17.216C1655.873,13.221,1666.032,15.807,1676.19,20.574C1686.349,25.341,1696.508,32.289,1706.667,39.652C1716.825,47.015,1726.984,54.792,1737.143,55.174C1747.302,55.556,1757.46,48.544,1767.619,42.291C1777.778,36.038,1787.937,30.546,1798.095,37.651C1808.254,44.756,1818.413,64.459,1828.571,63.036C1838.73,61.613,1848.889,39.063,1859.048,30.69C1869.206,22.317,1879.365,28.119,1889.524,35.987C1899.683,43.855,1909.841,53.788,1914.921,58.755L1920,63.721L1920,450L1914.921,450C1909.841,450,1899.683,450,1889.524,450C1879.365,450,1869.206,450,1859.048,450C1848.889,450,1838.73,450,1828.571,450C1818.413,450,1808.254,450,1798.095,450C1787.937,450,1777.778,450,1767.619,450C1757.46,450,1747.302,450,1737.143,450C1726.984,450,1716.825,450,1706.667,450C1696.508,450,1686.349,450,1676.19,450C1666.032,450,1655.873,450,1645.714,450C1635.556,450,1625.397,450,1615.238,450C1605.079,450,1594.921,450,1584.762,450C1574.603,450,1564.444,450,1554.286,450C1544.127,450,1533.968,450,1523.81,450C1513.651,450,1503.492,450,1493.333,450C1483.175,450,1473.016,450,1462.857,450C1452.698,450,1442.54,450,1432.381,450C1422.222,450,1412.063,450,1401.905,450C1391.746,450,1381.587,450,1371.429,450C1361.27,450,1351.111,450,1340.952,450C1330.794,450,1320.635,450,1310.476,450C1300.317,450,1290.159,450,1280,450C1269.841,450,1259.683,450,1249.524,450C1239.365,450,1229.206,450,1219.048,450C1208.889,450,1198.73,450,1188.571,450C1178.413,450,1168.254,450,1158.095,450C1147.937,450,1137.778,450,1127.619,450C1117.46,450,1107.302,450,1097.143,450C1086.984,450,1076.825,450,1066.667,450C1056.508,450,1046.349,450,1036.19,450C1026.032,450,1015.873,450,1005.714,450C995.556,450,985.397,450,975.238,450C965.079,450,954.921,450,944.762,450C934.603,450,924.444,450,914.286,450C904.127,450,893.968,450,883.81,450C873.651,450,863.492,450,853.333,450C843.175,450,833.016,450,822.857,450C812.698,450,802.54,450,792.381,450C782.222,450,772.063,450,761.905,450C751.746,450,741.587,450,731.429,450C721.27,450,711.111,450,700.952,450C690.794,450,680.635,450,670.476,450C660.317,450,650.159,450,640,450C629.841,450,619.683,450,609.524,450C599.365,450,589.206,450,579.048,450C568.889,450,558.73,450,548.571,450C538.413,450,528.254,450,518.095,450C507.937,450,497.778,450,487.619,450C477.46,450,467.302,450,457.143,450C446.984,450,436.825,450,426.667,450C416.508,450,406.349,450,396.19,450C386.032,450,375.873,450,365.714,450C355.556,450,345.397,450,335.238,450C325.079,450,314.921,450,304.762,450C294.603,450,284.444,450,274.286,450C264.127,450,253.968,450,243.81,450C233.651,450,223.492,450,213.333,450C203.175,450,193.016,450,182.857,450C172.698,450,162.54,450,152.381,450C142.222,450,132.063,450,121.905,450C111.746,450,101.587,450,91.429,450C81.27,450,71.111,450,60.952,450C50.794,450,40.635,450,30.476,450C20.317,450,10.159,450,5.079,450L0,450Z"></path></g><g transform="translate(0, 720)"><path fill="rgb(85, 213, 212)" fill-opacity="1" d="M0,10.05L5.079,20.75C10.159,31.451,20.317,52.852,30.476,57.016C40.635,61.181,50.794,48.108,60.952,36.718C71.111,25.328,81.27,15.619,91.429,9.839C101.587,4.059,111.746,2.207,121.905,2.44C132.063,2.673,142.222,4.99,152.381,14.557C162.54,24.124,172.698,40.942,182.857,42.514C193.016,44.085,203.175,30.41,213.333,32.476C223.492,34.543,233.651,52.35,243.81,61.827C253.968,71.304,264.127,72.45,274.286,68.949C284.444,65.449,294.603,57.301,304.762,49.119C314.921,40.936,325.079,32.719,335.238,35.17C345.397,37.621,355.556,50.741,365.714,57.615C375.873,64.488,386.032,65.115,396.19,67.172C406.349,69.229,416.508,72.717,426.667,75.137C436.825,77.557,446.984,78.91,457.143,68.502C467.302,58.095,477.46,35.927,487.619,33.176C497.778,30.424,507.937,47.088,518.095,54.938C528.254,62.788,538.413,61.824,548.571,63.443C558.73,65.063,568.889,69.267,579.048,69.009C589.206,68.75,599.365,64.029,609.524,53.816C619.683,43.604,629.841,27.899,640,31.915C650.159,35.93,660.317,59.666,670.476,65.019C680.635,70.372,690.794,57.342,700.952,46.923C711.111,36.503,721.27,28.694,731.429,32.849C741.587,37.005,751.746,53.125,761.905,54.347C772.063,55.568,782.222,41.892,792.381,33.965C802.54,26.038,812.698,23.862,822.857,23.258C833.016,22.655,843.175,23.625,853.333,30.363C863.492,37.101,873.651,49.607,883.81,50.398C893.968,51.19,904.127,40.268,914.286,43.298C924.444,46.327,934.603,63.308,944.762,61.219C954.921,59.13,965.079,37.97,975.238,28.684C985.397,19.397,995.556,21.984,1005.714,22.292C1015.873,22.601,1026.032,20.631,1036.19,25.765C1046.349,30.9,1056.508,43.139,1066.667,46.057C1076.825,48.975,1086.984,42.572,1097.143,37.785C1107.302,32.999,1117.46,29.828,1127.619,34.434C1137.778,39.04,1147.937,51.422,1158.095,52.531C1168.254,53.64,1178.413,43.477,1188.571,37.694C1198.73,31.91,1208.889,30.508,1219.048,27.051C1229.206,23.594,1239.365,18.082,1249.524,18.376C1259.683,18.67,1269.841,24.77,1280,33.357C1290.159,41.943,1300.317,53.017,1310.476,59.508C1320.635,66,1330.794,67.908,1340.952,68.254C1351.111,68.6,1361.27,67.384,1371.429,56.503C1381.587,45.623,1391.746,25.077,1401.905,21.412C1412.063,17.747,1422.222,30.962,1432.381,30.417C1442.54,29.872,1452.698,15.568,1462.857,21.835C1473.016,28.102,1483.175,54.94,1493.333,69.243C1503.492,83.547,1513.651,85.317,1523.81,80.78C1533.968,76.243,1544.127,65.399,1554.286,58.767C1564.444,52.135,1574.603,49.715,1584.762,46.947C1594.921,44.179,1605.079,41.064,1615.238,46.241C1625.397,51.418,1635.556,64.886,1645.714,72.948C1655.873,81.01,1666.032,83.666,1676.19,76.351C1686.349,69.035,1696.508,51.75,1706.667,46.998C1716.825,42.246,1726.984,50.028,1737.143,47.9C1747.302,45.771,1757.46,33.733,1767.619,33.751C1777.778,33.769,1787.937,45.842,1798.095,54.917C1808.254,63.991,1818.413,70.068,1828.571,62.555C1838.73,55.043,1848.889,33.941,1859.048,27.53C1869.206,21.12,1879.365,29.401,1889.524,42.07C1899.683,54.74,1909.841,71.798,1914.921,80.327L1920,88.856L1920,360L1914.921,360C1909.841,360,1899.683,360,1889.524,360C1879.365,360,1869.206,360,1859.048,360C1848.889,360,1838.73,360,1828.571,360C1818.413,360,1808.254,360,1798.095,360C1787.937,360,1777.778,360,1767.619,360C1757.46,360,1747.302,360,1737.143,360C1726.984,360,1716.825,360,1706.667,360C1696.508,360,1686.349,360,1676.19,360C1666.032,360,1655.873,360,1645.714,360C1635.556,360,1625.397,360,1615.238,360C1605.079,360,1594.921,360,1584.762,360C1574.603,360,1564.444,360,1554.286,360C1544.127,360,1533.968,360,1523.81,360C1513.651,360,1503.492,360,1493.333,360C1483.175,360,1473.016,360,1462.857,360C1452.698,360,1442.54,360,1432.381,360C1422.222,360,1412.063,360,1401.905,360C1391.746,360,1381.587,360,1371.429,360C1361.27,360,1351.111,360,1340.952,360C1330.794,360,1320.635,360,1310.476,360C1300.317,360,1290.159,360,1280,360C1269.841,360,1259.683,360,1249.524,360C1239.365,360,1229.206,360,1219.048,360C1208.889,360,1198.73,360,1188.571,360C1178.413,360,1168.254,360,1158.095,360C1147.937,360,1137.778,360,1127.619,360C1117.46,360,1107.302,360,1097.143,360C1086.984,360,1076.825,360,1066.667,360C1056.508,360,1046.349,360,1036.19,360C1026.032,360,1015.873,360,1005.714,360C995.556,360,985.397,360,975.238,360C965.079,360,954.921,360,944.762,360C934.603,360,924.444,360,914.286,360C904.127,360,893.968,360,883.81,360C873.651,360,863.492,360,853.333,360C843.175,360,833.016,360,822.857,360C812.698,360,802.54,360,792.381,360C782.222,360,772.063,360,761.905,360C751.746,360,741.587,360,731.429,360C721.27,360,711.111,360,700.952,360C690.794,360,680.635,360,670.476,360C660.317,360,650.159,360,640,360C629.841,360,619.683,360,609.524,360C599.365,360,589.206,360,579.048,360C568.889,360,558.73,360,548.571,360C538.413,360,528.254,360,518.095,360C507.937,360,497.778,360,487.619,360C477.46,360,467.302,360,457.143,360C446.984,360,436.825,360,426.667,360C416.508,360,406.349,360,396.19,360C386.032,360,375.873,360,365.714,360C355.556,360,345.397,360,335.238,360C325.079,360,314.921,360,304.762,360C294.603,360,284.444,360,274.286,360C264.127,360,253.968,360,243.81,360C233.651,360,223.492,360,213.333,360C203.175,360,193.016,360,182.857,360C172.698,360,162.54,360,152.381,360C142.222,360,132.063,360,121.905,360C111.746,360,101.587,360,91.429,360C81.27,360,71.111,360,60.952,360C50.794,360,40.635,360,30.476,360C20.317,360,10.159,360,5.079,360L0,360Z"></path></g><g transform="translate(0, 810)"><path fill="rgb(129, 225, 224)" fill-opacity="1" d="M0,60.174L5.079,53.276C10.159,46.377,20.317,32.58,30.476,35.943C40.635,39.307,50.794,59.832,60.952,60.054C71.111,60.276,81.27,40.195,91.429,40.612C101.587,41.028,111.746,61.942,121.905,64.436C132.063,66.931,142.222,51.006,152.381,51.374C162.54,51.741,172.698,68.401,182.857,64.949C193.016,61.498,203.175,37.935,213.333,25.28C223.492,12.625,233.651,10.879,243.81,12.83C253.968,14.78,264.127,20.427,274.286,26.346C284.444,32.265,294.603,38.456,304.762,39.799C314.921,41.142,325.079,37.637,335.238,41.248C345.397,44.86,355.556,55.587,365.714,59.044C375.873,62.502,386.032,58.688,396.19,49.561C406.349,40.434,416.508,25.993,426.667,22.358C436.825,18.723,446.984,25.893,457.143,34.541C467.302,43.19,477.46,53.316,487.619,58.734C497.778,64.153,507.937,64.864,518.095,65.392C528.254,65.92,538.413,66.266,548.571,68.68C558.73,71.094,568.889,75.576,579.048,70.72C589.206,65.865,599.365,51.673,609.524,49.687C619.683,47.701,629.841,57.921,640,54.81C650.159,51.698,660.317,35.254,670.476,34.791C680.635,34.327,690.794,49.844,700.952,50.853C711.111,51.863,721.27,38.365,731.429,39.731C741.587,41.097,751.746,57.326,761.905,64.971C772.063,72.616,782.222,71.677,792.381,67.782C802.54,63.887,812.698,57.035,822.857,58.738C833.016,60.441,843.175,70.699,853.333,72.011C863.492,73.324,873.651,65.692,883.81,55.027C893.968,44.362,904.127,30.665,914.286,26.835C924.444,23.004,934.603,29.041,944.762,26.801C954.921,24.562,965.079,14.047,975.238,18.562C985.397,23.077,995.556,42.622,1005.714,54.649C1015.873,66.676,1026.032,71.185,1036.19,67.655C1046.349,64.126,1056.508,52.557,1066.667,49.488C1076.825,46.419,1086.984,51.85,1097.143,52.555C1107.302,53.261,1117.46,49.241,1127.619,41.4C1137.778,33.559,1147.937,21.896,1158.095,18.862C1168.254,15.828,1178.413,21.422,1188.571,26.075C1198.73,30.729,1208.889,34.442,1219.048,38.333C1229.206,42.225,1239.365,46.295,1249.524,43.418C1259.683,40.541,1269.841,30.716,1280,22.801C1290.159,14.885,1300.317,8.879,1310.476,9.644C1320.635,10.409,1330.794,17.945,1340.952,25.053C1351.111,32.161,1361.27,38.841,1371.429,49.404C1381.587,59.967,1391.746,74.413,1401.905,73.626C1412.063,72.838,1422.222,56.816,1432.381,55.579C1442.54,54.341,1452.698,67.889,1462.857,75.257C1473.016,82.626,1483.175,83.815,1493.333,78.804C1503.492,73.792,1513.651,62.579,1523.81,53.74C1533.968,44.9,1544.127,38.435,1554.286,32.093C1564.444,25.751,1574.603,19.531,1584.762,16.375C1594.921,13.219,1605.079,13.126,1615.238,15.243C1625.397,17.361,1635.556,21.69,1645.714,27.765C1655.873,33.84,1666.032,41.663,1676.19,51.969C1686.349,62.274,1696.508,75.064,1706.667,81.376C1716.825,87.688,1726.984,87.522,1737.143,80.898C1747.302,74.273,1757.46,61.19,1767.619,50.015C1777.778,38.84,1787.937,29.575,1798.095,31.127C1808.254,32.68,1818.413,45.052,1828.571,48.662C1838.73,52.272,1848.889,47.121,1859.048,52.11C1869.206,57.099,1879.365,72.228,1889.524,65.834C1899.683,59.44,1909.841,31.523,1914.921,17.564L1920,3.605L1920,270L1914.921,270C1909.841,270,1899.683,270,1889.524,270C1879.365,270,1869.206,270,1859.048,270C1848.889,270,1838.73,270,1828.571,270C1818.413,270,1808.254,270,1798.095,270C1787.937,270,1777.778,270,1767.619,270C1757.46,270,1747.302,270,1737.143,270C1726.984,270,1716.825,270,1706.667,270C1696.508,270,1686.349,270,1676.19,270C1666.032,270,1655.873,270,1645.714,270C1635.556,270,1625.397,270,1615.238,270C1605.079,270,1594.921,270,1584.762,270C1574.603,270,1564.444,270,1554.286,270C1544.127,270,1533.968,270,1523.81,270C1513.651,270,1503.492,270,1493.333,270C1483.175,270,1473.016,270,1462.857,270C1452.698,270,1442.54,270,1432.381,270C1422.222,270,1412.063,270,1401.905,270C1391.746,270,1381.587,270,1371.429,270C1361.27,270,1351.111,270,1340.952,270C1330.794,270,1320.635,270,1310.476,270C1300.317,270,1290.159,270,1280,270C1269.841,270,1259.683,270,1249.524,270C1239.365,270,1229.206,270,1219.048,270C1208.889,270,1198.73,270,1188.571,270C1178.413,270,1168.254,270,1158.095,270C1147.937,270,1137.778,270,1127.619,270C1117.46,270,1107.302,270,1097.143,270C1086.984,270,1076.825,270,1066.667,270C1056.508,270,1046.349,270,1036.19,270C1026.032,270,1015.873,270,1005.714,270C995.556,270,985.397,270,975.238,270C965.079,270,954.921,270,944.762,270C934.603,270,924.444,270,914.286,270C904.127,270,893.968,270,883.81,270C873.651,270,863.492,270,853.333,270C843.175,270,833.016,270,822.857,270C812.698,270,802.54,270,792.381,270C782.222,270,772.063,270,761.905,270C751.746,270,741.587,270,731.429,270C721.27,270,711.111,270,700.952,270C690.794,270,680.635,270,670.476,270C660.317,270,650.159,270,640,270C629.841,270,619.683,270,609.524,270C599.365,270,589.206,270,579.048,270C568.889,270,558.73,270,548.571,270C538.413,270,528.254,270,518.095,270C507.937,270,497.778,270,487.619,270C477.46,270,467.302,270,457.143,270C446.984,270,436.825,270,426.667,270C416.508,270,406.349,270,396.19,270C386.032,270,375.873,270,365.714,270C355.556,270,345.397,270,335.238,270C325.079,270,314.921,270,304.762,270C294.603,270,284.444,270,274.286,270C264.127,270,253.968,270,243.81,270C233.651,270,223.492,270,213.333,270C203.175,270,193.016,270,182.857,270C172.698,270,162.54,270,152.381,270C142.222,270,132.063,270,121.905,270C111.746,270,101.587,270,91.429,270C81.27,270,71.111,270,60.952,270C50.794,270,40.635,270,30.476,270C20.317,270,10.159,270,5.079,270L0,270Z"></path></g><g transform="translate(0, 900)"><path fill="rgb(181, 232, 232)" fill-opacity="1" d="M0,50.639L5.079,47.986C10.159,45.333,20.317,40.027,30.476,37.973C40.635,35.919,50.794,37.117,60.952,36.009C71.111,34.901,81.27,31.487,91.429,25.769C101.587,20.051,111.746,12.028,121.905,19.949C132.063,27.869,142.222,51.732,152.381,61.109C162.54,70.486,172.698,65.378,182.857,63.484C193.016,61.59,203.175,62.911,213.333,62.711C223.492,62.511,233.651,60.789,243.81,61.456C253.968,62.122,264.127,65.177,274.286,57.899C284.444,50.62,294.603,33.008,304.762,32.786C314.921,32.565,325.079,49.734,335.238,55.661C345.397,61.588,355.556,56.274,365.714,60.062C375.873,63.849,386.032,76.74,396.19,81.174C406.349,85.607,416.508,81.584,426.667,81.251C436.825,80.918,446.984,84.277,457.143,79.938C467.302,75.599,477.46,63.564,487.619,61.322C497.778,59.08,507.937,66.632,518.095,70.077C528.254,73.521,538.413,72.859,548.571,68.562C558.73,64.266,568.889,56.336,579.048,52.965C589.206,49.595,599.365,50.783,609.524,43.796C619.683,36.81,629.841,21.649,640,20.768C650.159,19.887,660.317,33.286,670.476,32.279C680.635,31.273,690.794,15.861,700.952,11.257C711.111,6.654,721.27,12.86,731.429,23.52C741.587,34.18,751.746,49.295,761.905,49.07C772.063,48.846,782.222,33.282,792.381,32.211C802.54,31.14,812.698,44.562,822.857,44.33C833.016,44.099,843.175,30.214,853.333,32.099C863.492,33.984,873.651,51.638,883.81,56.318C893.968,60.998,904.127,52.702,914.286,53.86C924.444,55.017,934.603,65.627,944.762,67.356C954.921,69.084,965.079,61.93,975.238,60.049C985.397,58.168,995.556,61.561,1005.714,54.794C1015.873,48.028,1026.032,31.103,1036.19,28.012C1046.349,24.92,1056.508,35.663,1066.667,40.017C1076.825,44.372,1086.984,42.34,1097.143,34.692C1107.302,27.045,1117.46,13.783,1127.619,7.203C1137.778,0.623,1147.937,0.724,1158.095,9.538C1168.254,18.353,1178.413,35.88,1188.571,49.122C1198.73,62.364,1208.889,71.321,1219.048,75.576C1229.206,79.831,1239.365,79.385,1249.524,72.092C1259.683,64.8,1269.841,50.662,1280,42.651C1290.159,34.64,1300.317,32.756,1310.476,36.884C1320.635,41.012,1330.794,51.151,1340.952,53.498C1351.111,55.845,1361.27,50.399,1371.429,40.457C1381.587,30.516,1391.746,16.079,1401.905,22.99C1412.063,29.901,1422.222,58.16,1432.381,66.271C1442.54,74.383,1452.698,62.348,1462.857,50.917C1473.016,39.486,1483.175,28.659,1493.333,24.572C1503.492,20.485,1513.651,23.138,1523.81,20.848C1533.968,18.559,1544.127,11.327,1554.286,13.177C1564.444,15.027,1574.603,25.959,1584.762,33.034C1594.921,40.108,1605.079,43.326,1615.238,38.041C1625.397,32.755,1635.556,18.967,1645.714,23.52C1655.873,28.072,1666.032,50.965,1676.19,52.631C1686.349,54.298,1696.508,34.738,1706.667,24.038C1716.825,13.338,1726.984,11.498,1737.143,10.25C1747.302,9.001,1757.46,8.344,1767.619,14.241C1777.778,20.138,1787.937,32.589,1798.095,36.64C1808.254,40.691,1818.413,36.341,1828.571,32.55C1838.73,28.76,1848.889,25.529,1859.048,33.587C1869.206,41.645,1879.365,60.991,1889.524,58.077C1899.683,55.164,1909.841,29.991,1914.921,17.404L1920,4.818L1920,180L1914.921,180C1909.841,180,1899.683,180,1889.524,180C1879.365,180,1869.206,180,1859.048,180C1848.889,180,1838.73,180,1828.571,180C1818.413,180,1808.254,180,1798.095,180C1787.937,180,1777.778,180,1767.619,180C1757.46,180,1747.302,180,1737.143,180C1726.984,180,1716.825,180,1706.667,180C1696.508,180,1686.349,180,1676.19,180C1666.032,180,1655.873,180,1645.714,180C1635.556,180,1625.397,180,1615.238,180C1605.079,180,1594.921,180,1584.762,180C1574.603,180,1564.444,180,1554.286,180C1544.127,180,1533.968,180,1523.81,180C1513.651,180,1503.492,180,1493.333,180C1483.175,180,1473.016,180,1462.857,180C1452.698,180,1442.54,180,1432.381,180C1422.222,180,1412.063,180,1401.905,180C1391.746,180,1381.587,180,1371.429,180C1361.27,180,1351.111,180,1340.952,180C1330.794,180,1320.635,180,1310.476,180C1300.317,180,1290.159,180,1280,180C1269.841,180,1259.683,180,1249.524,180C1239.365,180,1229.206,180,1219.048,180C1208.889,180,1198.73,180,1188.571,180C1178.413,180,1168.254,180,1158.095,180C1147.937,180,1137.778,180,1127.619,180C1117.46,180,1107.302,180,1097.143,180C1086.984,180,1076.825,180,1066.667,180C1056.508,180,1046.349,180,1036.19,180C1026.032,180,1015.873,180,1005.714,180C995.556,180,985.397,180,975.238,180C965.079,180,954.921,180,944.762,180C934.603,180,924.444,180,914.286,180C904.127,180,893.968,180,883.81,180C873.651,180,863.492,180,853.333,180C843.175,180,833.016,180,822.857,180C812.698,180,802.54,180,792.381,180C782.222,180,772.063,180,761.905,180C751.746,180,741.587,180,731.429,180C721.27,180,711.111,180,700.952,180C690.794,180,680.635,180,670.476,180C660.317,180,650.159,180,640,180C629.841,180,619.683,180,609.524,180C599.365,180,589.206,180,579.048,180C568.889,180,558.73,180,548.571,180C538.413,180,528.254,180,518.095,180C507.937,180,497.778,180,487.619,180C477.46,180,467.302,180,457.143,180C446.984,180,436.825,180,426.667,180C416.508,180,406.349,180,396.19,180C386.032,180,375.873,180,365.714,180C355.556,180,345.397,180,335.238,180C325.079,180,314.921,180,304.762,180C294.603,180,284.444,180,274.286,180C264.127,180,253.968,180,243.81,180C233.651,180,223.492,180,213.333,180C203.175,180,193.016,180,182.857,180C172.698,180,162.54,180,152.381,180C142.222,180,132.063,180,121.905,180C111.746,180,101.587,180,91.429,180C81.27,180,71.111,180,60.952,180C50.794,180,40.635,180,30.476,180C20.317,180,10.159,180,5.079,180L0,180Z"></path></g><g transform="translate(0, 990)"><path fill="rgb(238, 238, 238)" fill-opacity="1" d="M0,22.994L5.079,33.942C10.159,44.89,20.317,66.786,30.476,71.269C40.635,75.752,50.794,62.822,60.952,55.6C71.111,48.379,81.27,46.867,91.429,46.739C101.587,46.611,111.746,47.868,121.905,51.665C132.063,55.463,142.222,61.803,152.381,64.528C162.54,67.252,172.698,66.363,182.857,62.212C193.016,58.061,203.175,50.647,213.333,39.958C223.492,29.268,233.651,15.301,243.81,21.03C253.968,26.759,264.127,52.184,274.286,65.827C284.444,79.471,294.603,81.334,304.762,79.798C314.921,78.263,325.079,73.329,335.238,73.804C345.397,74.28,355.556,80.165,365.714,77.043C375.873,73.921,386.032,61.791,396.19,51.358C406.349,40.924,416.508,32.185,426.667,36.747C436.825,41.309,446.984,59.172,457.143,61.049C467.302,62.926,477.46,48.818,487.619,43.237C497.778,37.656,507.937,40.602,518.095,42.667C528.254,44.731,538.413,45.914,548.571,42.181C558.73,38.447,568.889,29.797,579.048,22.111C589.206,14.424,599.365,7.702,609.524,9.374C619.683,11.047,629.841,21.115,640,25.504C650.159,29.893,660.317,28.602,670.476,32.206C680.635,35.809,690.794,44.306,700.952,44.553C711.111,44.8,721.27,36.798,731.429,28.801C741.587,20.805,751.746,12.816,761.905,13.394C772.063,13.972,782.222,23.117,792.381,30.681C802.54,38.244,812.698,44.225,822.857,47.745C833.016,51.266,843.175,52.325,853.333,51.917C863.492,51.509,873.651,49.633,883.81,41.02C893.968,32.407,904.127,17.057,914.286,12.081C924.444,7.106,934.603,12.505,944.762,20.241C954.921,27.977,965.079,38.05,975.238,39.998C985.397,41.945,995.556,35.767,1005.714,28.89C1015.873,22.013,1026.032,14.437,1036.19,15.479C1046.349,16.521,1056.508,26.18,1066.667,33.892C1076.825,41.605,1086.984,47.37,1097.143,42.427C1107.302,37.483,1117.46,21.83,1127.619,18.025C1137.778,14.221,1147.937,22.266,1158.095,25.772C1168.254,29.277,1178.413,28.245,1188.571,35.32C1198.73,42.396,1208.889,57.58,1219.048,54.462C1229.206,51.345,1239.365,29.925,1249.524,28.978C1259.683,28.031,1269.841,47.557,1280,47.741C1290.159,47.924,1300.317,28.765,1310.476,28.976C1320.635,29.187,1330.794,48.766,1340.952,50.23C1351.111,51.693,1361.27,35.04,1371.429,25.399C1381.587,15.757,1391.746,13.127,1401.905,18.884C1412.063,24.64,1422.222,38.783,1432.381,45.651C1442.54,52.519,1452.698,52.112,1462.857,56.037C1473.016,59.962,1483.175,68.217,1493.333,70.829C1503.492,73.441,1513.651,70.41,1523.81,66.072C1533.968,61.733,1544.127,56.088,1554.286,49.589C1564.444,43.091,1574.603,35.74,1584.762,28.319C1594.921,20.898,1605.079,13.407,1615.238,18.52C1625.397,23.633,1635.556,41.35,1645.714,41.947C1655.873,42.544,1666.032,26.02,1676.19,22.537C1686.349,19.053,1696.508,28.609,1706.667,29.818C1716.825,31.027,1726.984,23.889,1737.143,21.711C1747.302,19.533,1757.46,22.314,1767.619,21.037C1777.778,19.759,1787.937,14.423,1798.095,23.964C1808.254,33.504,1818.413,57.921,1828.571,57.77C1838.73,57.62,1848.889,32.902,1859.048,28.446C1869.206,23.991,1879.365,39.797,1889.524,38.571C1899.683,37.345,1909.841,19.088,1914.921,9.959L1920,0.83L1920,90L1914.921,90C1909.841,90,1899.683,90,1889.524,90C1879.365,90,1869.206,90,1859.048,90C1848.889,90,1838.73,90,1828.571,90C1818.413,90,1808.254,90,1798.095,90C1787.937,90,1777.778,90,1767.619,90C1757.46,90,1747.302,90,1737.143,90C1726.984,90,1716.825,90,1706.667,90C1696.508,90,1686.349,90,1676.19,90C1666.032,90,1655.873,90,1645.714,90C1635.556,90,1625.397,90,1615.238,90C1605.079,90,1594.921,90,1584.762,90C1574.603,90,1564.444,90,1554.286,90C1544.127,90,1533.968,90,1523.81,90C1513.651,90,1503.492,90,1493.333,90C1483.175,90,1473.016,90,1462.857,90C1452.698,90,1442.54,90,1432.381,90C1422.222,90,1412.063,90,1401.905,90C1391.746,90,1381.587,90,1371.429,90C1361.27,90,1351.111,90,1340.952,90C1330.794,90,1320.635,90,1310.476,90C1300.317,90,1290.159,90,1280,90C1269.841,90,1259.683,90,1249.524,90C1239.365,90,1229.206,90,1219.048,90C1208.889,90,1198.73,90,1188.571,90C1178.413,90,1168.254,90,1158.095,90C1147.937,90,1137.778,90,1127.619,90C1117.46,90,1107.302,90,1097.143,90C1086.984,90,1076.825,90,1066.667,90C1056.508,90,1046.349,90,1036.19,90C1026.032,90,1015.873,90,1005.714,90C995.556,90,985.397,90,975.238,90C965.079,90,954.921,90,944.762,90C934.603,90,924.444,90,914.286,90C904.127,90,893.968,90,883.81,90C873.651,90,863.492,90,853.333,90C843.175,90,833.016,90,822.857,90C812.698,90,802.54,90,792.381,90C782.222,90,772.063,90,761.905,90C751.746,90,741.587,90,731.429,90C721.27,90,711.111,90,700.952,90C690.794,90,680.635,90,670.476,90C660.317,90,650.159,90,640,90C629.841,90,619.683,90,609.524,90C599.365,90,589.206,90,579.048,90C568.889,90,558.73,90,548.571,90C538.413,90,528.254,90,518.095,90C507.937,90,497.778,90,487.619,90C477.46,90,467.302,90,457.143,90C446.984,90,436.825,90,426.667,90C416.508,90,406.349,90,396.19,90C386.032,90,375.873,90,365.714,90C355.556,90,345.397,90,335.238,90C325.079,90,314.921,90,304.762,90C294.603,90,284.444,90,274.286,90C264.127,90,253.968,90,243.81,90C233.651,90,223.492,90,213.333,90C203.175,90,193.016,90,182.857,90C172.698,90,162.54,90,152.381,90C142.222,90,132.063,90,121.905,90C111.746,90,101.587,90,91.429,90C81.27,90,71.111,90,60.952,90C50.794,90,40.635,90,30.476,90C20.317,90,10.159,90,5.079,90L0,90Z"></path></g></g></svg>