<svg xmlns="http://www.w3.org/2000/svg" viewBox="0 0 1920 1080"><g transform="
          rotate(0 960 540) 
          translate(-0 -0)
          scale(1)
        "><rect width="1920" height="1080" fill="rgb(34, 40, 49)"></rect><g transform="translate(0, 0)"><path fill="rgb(40, 46, 54)" fill-opacity="1" d="M0,5.687L5.079,16.072C10.159,26.456,20.317,47.225,30.476,49.665C40.635,52.106,50.794,36.217,60.952,25.922C71.111,15.626,81.27,10.923,91.429,15.473C101.587,20.023,111.746,33.827,121.905,38.888C132.063,43.95,142.222,40.269,152.381,36.941C162.54,33.613,172.698,30.637,182.857,39.253C193.016,47.869,203.175,68.078,213.333,72.777C223.492,77.475,233.651,66.664,243.81,60.483C253.968,54.303,264.127,52.753,274.286,43.609C284.444,34.464,294.603,17.726,304.762,14.339C314.921,10.952,325.079,20.917,335.238,20.927C345.397,20.937,355.556,10.991,365.714,8.428C375.873,5.864,386.032,10.683,396.19,18.784C406.349,26.885,416.508,38.268,426.667,47.128C436.825,55.988,446.984,62.324,457.143,56.088C467.302,49.852,477.46,31.045,487.619,33.429C497.778,35.814,507.937,59.39,518.095,67.288C528.254,75.186,538.413,67.406,548.571,57.446C558.73,47.487,568.889,35.348,579.048,30.375C589.206,25.401,599.365,27.592,609.524,27.514C619.683,27.436,629.841,25.089,640,24.029C650.159,22.969,660.317,23.196,670.476,32.804C680.635,42.413,690.794,61.403,700.952,67.405C711.111,73.406,721.27,66.419,731.429,54.571C741.587,42.724,751.746,26.015,761.905,19.913C772.063,13.81,782.222,18.313,792.381,27.375C802.54,36.436,812.698,50.056,822.857,59.091C833.016,68.125,843.175,72.573,853.333,75.443C863.492,78.313,873.651,79.603,883.81,67.39C893.968,55.178,904.127,29.461,914.286,27.693C924.444,25.924,934.603,48.102,944.762,52.667C954.921,57.232,965.079,44.183,975.238,44.113C985.397,44.043,995.556,56.952,1005.714,61.057C1015.873,65.162,1026.032,60.463,1036.19,59.17C1046.349,57.877,1056.508,59.99,1066.667,62.339C1076.825,64.689,1086.984,67.275,1097.143,70.062C1107.302,72.849,1117.46,75.837,1127.619,66.462C1137.778,57.087,1147.937,35.349,1158.095,26.366C1168.254,17.384,1178.413,21.156,1188.571,24.211C1198.73,27.266,1208.889,29.603,1219.048,35.749C1229.206,41.894,1239.365,51.848,1249.524,49.678C1259.683,47.507,1269.841,33.213,1280,26.229C1290.159,19.246,1300.317,19.573,1310.476,28.567C1320.635,37.562,1330.794,55.225,1340.952,52.253C1351.111,49.281,1361.27,25.674,1371.429,18.018C1381.587,10.361,1391.746,18.656,1401.905,24.565C1412.063,30.475,1422.222,34.001,1432.381,32.002C1442.54,30.002,1452.698,22.478,1462.857,23.585C1473.016,24.692,1483.175,34.431,1493.333,41.679C1503.492,48.927,1513.651,53.685,1523.81,55.543C1533.968,57.402,1544.127,56.362,1554.286,54.053C1564.444,51.744,1574.603,48.165,1584.762,44.515C1594.921,40.866,1605.079,37.146,1615.238,34.155C1625.397,31.164,1635.556,28.902,1645.714,26.542C1655.873,24.182,1666.032,21.723,1676.19,25.567C1686.349,29.41,1696.508,39.556,1706.667,50.736C1716.825,61.917,1726.984,74.133,1737.143,76.04C1747.302,77.947,1757.46,69.545,1767.619,67.378C1777.778,65.212,1787.937,69.28,1798.095,62.924C1808.254,56.567,1818.413,39.786,1828.571,36.423C1838.73,33.059,1848.889,43.114,1859.048,41.051C1869.206,38.988,1879.365,24.807,1889.524,24.444C1899.683,24.081,1909.841,37.536,1914.921,44.263L1920,50.991L1920,1080L1914.921,1080C1909.841,1080,1899.683,1080,1889.524,1080C1879.365,1080,1869.206,1080,1859.048,1080C1848.889,1080,1838.73,1080,1828.571,1080C1818.413,1080,1808.254,1080,1798.095,1080C1787.937,1080,1777.778,1080,1767.619,1080C1757.46,1080,1747.302,1080,1737.143,1080C1726.984,1080,1716.825,1080,1706.667,1080C1696.508,1080,1686.349,1080,1676.19,1080C1666.032,1080,1655.873,1080,1645.714,1080C1635.556,1080,1625.397,1080,1615.238,1080C1605.079,1080,1594.921,1080,1584.762,1080C1574.603,1080,1564.444,1080,1554.286,1080C1544.127,1080,1533.968,1080,1523.81,1080C1513.651,1080,1503.492,1080,1493.333,1080C1483.175,1080,1473.016,1080,1462.857,1080C1452.698,1080,1442.54,1080,1432.381,1080C1422.222,1080,1412.063,1080,1401.905,1080C1391.746,1080,1381.587,1080,1371.429,1080C1361.27,1080,1351.111,1080,1340.952,1080C1330.794,1080,1320.635,1080,1310.476,1080C1300.317,1080,1290.159,1080,1280,1080C1269.841,1080,1259.683,1080,1249.524,1080C1239.365,1080,1229.206,1080,1219.048,1080C1208.889,1080,1198.73,1080,1188.571,1080C1178.413,1080,1168.254,1080,1158.095,1080C1147.937,1080,1137.778,1080,1127.619,1080C1117.46,1080,1107.302,1080,1097.143,1080C1086.984,1080,1076.825,1080,1066.667,1080C1056.508,1080,1046.349,1080,1036.19,1080C1026.032,1080,1015.873,1080,1005.714,1080C995.556,1080,985.397,1080,975.238,1080C965.079,1080,954.921,1080,944.762,1080C934.603,1080,924.444,1080,914.286,1080C904.127,1080,893.968,1080,883.81,1080C873.651,1080,863.492,1080,853.333,1080C843.175,1080,833.016,1080,822.857,1080C812.698,1080,802.54,1080,792.381,1080C782.222,1080,772.063,1080,761.905,1080C751.746,1080,741.587,1080,731.429,1080C721.27,1080,711.111,1080,700.952,1080C690.794,1080,680.635,1080,670.476,1080C660.317,1080,650.159,1080,640,1080C629.841,1080,619.683,1080,609.524,1080C599.365,1080,589.206,1080,579.048,1080C568.889,1080,558.73,1080,548.571,1080C538.413,1080,528.254,1080,518.095,1080C507.937,1080,497.778,1080,487.619,1080C477.46,1080,467.302,1080,457.143,1080C446.984,1080,436.825,1080,426.667,1080C416.508,1080,406.349,1080,396.19,1080C386.032,1080,375.873,1080,365.714,1080C355.556,1080,345.397,1080,335.238,1080C325.079,1080,314.921,1080,304.762,1080C294.603,1080,284.444,1080,274.286,1080C264.127,1080,253.968,1080,243.81,1080C233.651,1080,223.492,1080,213.333,1080C203.175,1080,193.016,1080,182.857,1080C172.698,1080,162.54,1080,152.381,1080C142.222,1080,132.063,1080,121.905,1080C111.746,1080,101.587,1080,91.429,1080C81.27,1080,71.111,1080,60.952,1080C50.794,1080,40.635,1080,30.476,1080C20.317,1080,10.159,1080,5.079,1080L0,1080Z"></path></g><g transform="translate(0, 90)"><path fill="rgb(45, 51, 60)" fill-opacity="1" d="M0,17.431L5.079,21.18C10.159,24.929,20.317,32.428,30.476,39.966C40.635,47.503,50.794,55.078,60.952,58.164C71.111,61.249,81.27,59.845,91.429,64.206C101.587,68.568,111.746,78.694,121.905,79.761C132.063,80.828,142.222,72.834,152.381,59.453C162.54,46.072,172.698,27.304,182.857,17.563C193.016,7.822,203.175,7.109,213.333,5.758C223.492,4.408,233.651,2.421,243.81,9.093C253.968,15.765,264.127,31.096,274.286,40.954C284.444,50.813,294.603,55.198,304.762,49.775C314.921,44.352,325.079,29.121,335.238,31.488C345.397,33.855,355.556,53.821,365.714,58.55C375.873,63.278,386.032,52.771,396.19,48.043C406.349,43.315,416.508,44.366,426.667,47.379C436.825,50.392,446.984,55.367,457.143,62.342C467.302,69.317,477.46,78.293,487.619,77.17C497.778,76.047,507.937,64.825,518.095,53.22C528.254,41.614,538.413,29.626,548.571,32.93C558.73,36.234,568.889,54.831,579.048,61.875C589.206,68.918,599.365,64.408,609.524,53.154C619.683,41.899,629.841,23.9,640,26.033C650.159,28.166,660.317,50.432,670.476,50.735C680.635,51.038,690.794,29.379,700.952,23.409C711.111,17.439,721.27,27.157,731.429,26.584C741.587,26.011,751.746,15.148,761.905,18.114C772.063,21.08,782.222,37.874,792.381,45.284C802.54,52.693,812.698,50.717,822.857,45.236C833.016,39.754,843.175,30.766,853.333,22.742C863.492,14.717,873.651,7.654,883.81,4.29C893.968,0.926,904.127,1.259,914.286,7.338C924.444,13.417,934.603,25.24,944.762,38.755C954.921,52.27,965.079,67.476,975.238,68.116C985.397,68.757,995.556,54.832,1005.714,45.034C1015.873,35.236,1026.032,29.563,1036.19,37.344C1046.349,45.125,1056.508,66.358,1066.667,64.019C1076.825,61.679,1086.984,35.767,1097.143,23.815C1107.302,11.863,1117.46,13.872,1127.619,19.332C1137.778,24.791,1147.937,33.7,1158.095,34.389C1168.254,35.078,1178.413,27.547,1188.571,31.273C1198.73,34.998,1208.889,49.98,1219.048,60.453C1229.206,70.926,1239.365,76.889,1249.524,72.636C1259.683,68.384,1269.841,53.917,1280,45.119C1290.159,36.322,1300.317,33.194,1310.476,40.37C1320.635,47.545,1330.794,65.023,1340.952,64.682C1351.111,64.341,1361.27,46.181,1371.429,39.118C1381.587,32.055,1391.746,36.089,1401.905,44.286C1412.063,52.483,1422.222,64.844,1432.381,62.096C1442.54,59.348,1452.698,41.491,1462.857,40.708C1473.016,39.926,1483.175,56.217,1493.333,60.466C1503.492,64.714,1513.651,56.92,1523.81,45.476C1533.968,34.032,1544.127,18.94,1554.286,16.245C1564.444,13.55,1574.603,23.252,1584.762,33.669C1594.921,44.086,1605.079,55.218,1615.238,53.911C1625.397,52.605,1635.556,38.86,1645.714,38.722C1655.873,38.584,1666.032,52.054,1676.19,55.78C1686.349,59.505,1696.508,53.486,1706.667,43.158C1716.825,32.83,1726.984,18.194,1737.143,10.328C1747.302,2.462,1757.46,1.367,1767.619,3.157C1777.778,4.946,1787.937,9.619,1798.095,20.715C1808.254,31.812,1818.413,49.33,1828.571,56.866C1838.73,64.402,1848.889,61.955,1859.048,57.959C1869.206,53.963,1879.365,48.417,1889.524,43.042C1899.683,37.666,1909.841,32.46,1914.921,29.856L1920,27.253L1920,990L1914.921,990C1909.841,990,1899.683,990,1889.524,990C1879.365,990,1869.206,990,1859.048,990C1848.889,990,1838.73,990,1828.571,990C1818.413,990,1808.254,990,1798.095,990C1787.937,990,1777.778,990,1767.619,990C1757.46,990,1747.302,990,1737.143,990C1726.984,990,1716.825,990,1706.667,990C1696.508,990,1686.349,990,1676.19,990C1666.032,990,1655.873,990,1645.714,990C1635.556,990,1625.397,990,1615.238,990C1605.079,990,1594.921,990,1584.762,990C1574.603,990,1564.444,990,1554.286,990C1544.127,990,1533.968,990,1523.81,990C1513.651,990,1503.492,990,1493.333,990C1483.175,990,1473.016,990,1462.857,990C1452.698,990,1442.54,990,1432.381,990C1422.222,990,1412.063,990,1401.905,990C1391.746,990,1381.587,990,1371.429,990C1361.27,990,1351.111,990,1340.952,990C1330.794,990,1320.635,990,1310.476,990C1300.317,990,1290.159,990,1280,990C1269.841,990,1259.683,990,1249.524,990C1239.365,990,1229.206,990,1219.048,990C1208.889,990,1198.73,990,1188.571,990C1178.413,990,1168.254,990,1158.095,990C1147.937,990,1137.778,990,1127.619,990C1117.46,990,1107.302,990,1097.143,990C1086.984,990,1076.825,990,1066.667,990C1056.508,990,1046.349,990,1036.19,990C1026.032,990,1015.873,990,1005.714,990C995.556,990,985.397,990,975.238,990C965.079,990,954.921,990,944.762,990C934.603,990,924.444,990,914.286,990C904.127,990,893.968,990,883.81,990C873.651,990,863.492,990,853.333,990C843.175,990,833.016,990,822.857,990C812.698,990,802.54,990,792.381,990C782.222,990,772.063,990,761.905,990C751.746,990,741.587,990,731.429,990C721.27,990,711.111,990,700.952,990C690.794,990,680.635,990,670.476,990C660.317,990,650.159,990,640,990C629.841,990,619.683,990,609.524,990C599.365,990,589.206,990,579.048,990C568.889,990,558.73,990,548.571,990C538.413,990,528.254,990,518.095,990C507.937,990,497.778,990,487.619,990C477.46,990,467.302,990,457.143,990C446.984,990,436.825,990,426.667,990C416.508,990,406.349,990,396.19,990C386.032,990,375.873,990,365.714,990C355.556,990,345.397,990,335.238,990C325.079,990,314.921,990,304.762,990C294.603,990,284.444,990,274.286,990C264.127,990,253.968,990,243.81,990C233.651,990,223.492,990,213.333,990C203.175,990,193.016,990,182.857,990C172.698,990,162.54,990,152.381,990C142.222,990,132.063,990,121.905,990C111.746,990,101.587,990,91.429,990C81.27,990,71.111,990,60.952,990C50.794,990,40.635,990,30.476,990C20.317,990,10.159,990,5.079,990L0,990Z"></path></g><g transform="translate(0, 180)"><path fill="rgb(49, 57, 67)" fill-opacity="1" d="M0,41.95L5.079,45.035C10.159,48.12,20.317,54.29,30.476,59.036C40.635,63.781,50.794,67.103,60.952,67.265C71.111,67.427,81.27,64.429,91.429,63.775C101.587,63.121,111.746,64.812,121.905,63.764C132.063,62.716,142.222,58.93,152.381,58.196C162.54,57.461,172.698,59.78,182.857,52.9C193.016,46.019,203.175,29.94,213.333,31.648C223.492,33.356,233.651,52.852,243.81,55.31C253.968,57.768,264.127,43.189,274.286,36.992C284.444,30.794,294.603,32.979,304.762,39.552C314.921,46.125,325.079,57.086,335.238,58.736C345.397,60.386,355.556,52.725,365.714,53.184C375.873,53.642,386.032,62.219,396.19,63.395C406.349,64.571,416.508,58.347,426.667,61.037C436.825,63.726,446.984,75.329,457.143,67.519C467.302,59.709,477.46,32.487,487.619,29.739C497.778,26.99,507.937,48.716,518.095,57.728C528.254,66.74,538.413,63.038,548.571,64.6C558.73,66.162,568.889,72.989,579.048,74.927C589.206,76.865,599.365,73.916,609.524,65.167C619.683,56.418,629.841,41.87,640,36.414C650.159,30.957,660.317,34.591,670.476,30.162C680.635,25.733,690.794,13.24,700.952,10.263C711.111,7.287,721.27,13.827,731.429,20.551C741.587,27.275,751.746,34.184,761.905,34.4C772.063,34.615,782.222,28.138,792.381,30.402C802.54,32.666,812.698,43.673,822.857,52.005C833.016,60.336,843.175,65.994,853.333,71.583C863.492,77.172,873.651,82.693,883.81,81.276C893.968,79.859,904.127,71.504,914.286,59.931C924.444,48.358,934.603,33.568,944.762,25.694C954.921,17.82,965.079,16.863,975.238,20.644C985.397,24.425,995.556,32.945,1005.714,32.083C1015.873,31.221,1026.032,20.979,1036.19,26.583C1046.349,32.187,1056.508,53.637,1066.667,53.299C1076.825,52.961,1086.984,30.835,1097.143,20.418C1107.302,10.002,1117.46,11.297,1127.619,21.384C1137.778,31.472,1147.937,50.352,1158.095,51.712C1168.254,53.071,1178.413,36.911,1188.571,30.336C1198.73,23.762,1208.889,26.775,1219.048,36.505C1229.206,46.236,1239.365,62.684,1249.524,71.062C1259.683,79.44,1269.841,79.746,1280,81.084C1290.159,82.421,1300.317,84.788,1310.476,78.182C1320.635,71.576,1330.794,55.997,1340.952,47.307C1351.111,38.618,1361.27,36.817,1371.429,33.921C1381.587,31.026,1391.746,27.035,1401.905,28.204C1412.063,29.373,1422.222,35.702,1432.381,42.631C1442.54,49.56,1452.698,57.089,1462.857,56.821C1473.016,56.553,1483.175,48.487,1493.333,46.775C1503.492,45.063,1513.651,49.704,1523.81,43.432C1533.968,37.16,1544.127,19.976,1554.286,17.667C1564.444,15.358,1574.603,27.926,1584.762,33.937C1594.921,39.949,1605.079,39.404,1615.238,40.109C1625.397,40.813,1635.556,42.767,1645.714,49.215C1655.873,55.664,1666.032,66.608,1676.19,65.896C1686.349,65.185,1696.508,52.818,1706.667,49.352C1716.825,45.886,1726.984,51.32,1737.143,47.154C1747.302,42.988,1757.46,29.222,1767.619,24.264C1777.778,19.306,1787.937,23.157,1798.095,21.163C1808.254,19.169,1818.413,11.331,1828.571,20.118C1838.73,28.906,1848.889,54.32,1859.048,59.155C1869.206,63.99,1879.365,48.247,1889.524,36.581C1899.683,24.916,1909.841,17.328,1914.921,13.535L1920,9.741L1920,900L1914.921,900C1909.841,900,1899.683,900,1889.524,900C1879.365,900,1869.206,900,1859.048,900C1848.889,900,1838.73,900,1828.571,900C1818.413,900,1808.254,900,1798.095,900C1787.937,900,1777.778,900,1767.619,900C1757.46,900,1747.302,900,1737.143,900C1726.984,900,1716.825,900,1706.667,900C1696.508,900,1686.349,900,1676.19,900C1666.032,900,1655.873,900,1645.714,900C1635.556,900,1625.397,900,1615.238,900C1605.079,900,1594.921,900,1584.762,900C1574.603,900,1564.444,900,1554.286,900C1544.127,900,1533.968,900,1523.81,900C1513.651,900,1503.492,900,1493.333,900C1483.175,900,1473.016,900,1462.857,900C1452.698,900,1442.54,900,1432.381,900C1422.222,900,1412.063,900,1401.905,900C1391.746,900,1381.587,900,1371.429,900C1361.27,900,1351.111,900,1340.952,900C1330.794,900,1320.635,900,1310.476,900C1300.317,900,1290.159,900,1280,900C1269.841,900,1259.683,900,1249.524,900C1239.365,900,1229.206,900,1219.048,900C1208.889,900,1198.73,900,1188.571,900C1178.413,900,1168.254,900,1158.095,900C1147.937,900,1137.778,900,1127.619,900C1117.46,900,1107.302,900,1097.143,900C1086.984,900,1076.825,900,1066.667,900C1056.508,900,1046.349,900,1036.19,900C1026.032,900,1015.873,900,1005.714,900C995.556,900,985.397,900,975.238,900C965.079,900,954.921,900,944.762,900C934.603,900,924.444,900,914.286,900C904.127,900,893.968,900,883.81,900C873.651,900,863.492,900,853.333,900C843.175,900,833.016,900,822.857,900C812.698,900,802.54,900,792.381,900C782.222,900,772.063,900,761.905,900C751.746,900,741.587,900,731.429,900C721.27,900,711.111,900,700.952,900C690.794,900,680.635,900,670.476,900C660.317,900,650.159,900,640,900C629.841,900,619.683,900,609.524,900C599.365,900,589.206,900,579.048,900C568.889,900,558.73,900,548.571,900C538.413,900,528.254,900,518.095,900C507.937,900,497.778,900,487.619,900C477.46,900,467.302,900,457.143,900C446.984,900,436.825,900,426.667,900C416.508,900,406.349,900,396.19,900C386.032,900,375.873,900,365.714,900C355.556,900,345.397,900,335.238,900C325.079,900,314.921,900,304.762,900C294.603,900,284.444,900,274.286,900C264.127,900,253.968,900,243.81,900C233.651,900,223.492,900,213.333,900C203.175,900,193.016,900,182.857,900C172.698,900,162.54,900,152.381,900C142.222,900,132.063,900,121.905,900C111.746,900,101.587,900,91.429,900C81.27,900,71.111,900,60.952,900C50.794,900,40.635,900,30.476,900C20.317,900,10.159,900,5.079,900L0,900Z"></path></g><g transform="translate(0, 270)"><path fill="rgb(53, 63, 76)" fill-opacity="1" d="M0,83.98L5.079,83.026C10.159,82.072,20.317,80.164,30.476,76.804C40.635,73.444,50.794,68.633,60.952,56.736C71.111,44.838,81.27,25.856,91.429,20.737C101.587,15.619,111.746,24.365,121.905,26.775C132.063,29.184,142.222,25.257,152.381,27.799C162.54,30.341,172.698,39.352,182.857,42.684C193.016,46.015,203.175,43.667,213.333,48.077C223.492,52.487,233.651,63.655,243.81,59.265C253.968,54.875,264.127,34.927,274.286,29.01C284.444,23.094,294.603,31.21,304.762,37.415C314.921,43.62,325.079,47.913,335.238,50.47C345.397,53.027,355.556,53.848,365.714,51.102C375.873,48.356,386.032,42.044,396.19,44.154C406.349,46.263,416.508,56.793,426.667,51.305C436.825,45.817,446.984,24.311,457.143,21.337C467.302,18.362,477.46,33.92,487.619,40.68C497.778,47.441,507.937,45.405,518.095,47.264C528.254,49.123,538.413,54.877,548.571,51.649C558.73,48.42,568.889,36.209,579.048,28.451C589.206,20.693,599.365,17.389,609.524,26.862C619.683,36.335,629.841,58.586,640,58.001C650.159,57.416,660.317,33.995,670.476,22.59C680.635,11.184,690.794,11.795,700.952,11.04C711.111,10.285,721.27,8.165,731.429,7.344C741.587,6.522,751.746,7,761.905,6.557C772.063,6.115,782.222,4.752,792.381,15.549C802.54,26.347,812.698,49.304,822.857,55.329C833.016,61.353,843.175,50.444,853.333,45.637C863.492,40.83,873.651,42.125,883.81,43.465C893.968,44.805,904.127,46.19,914.286,44.402C924.444,42.614,934.603,37.654,944.762,35.248C954.921,32.842,965.079,32.99,975.238,31.922C985.397,30.853,995.556,28.568,1005.714,35.858C1015.873,43.148,1026.032,60.015,1036.19,58.532C1046.349,57.05,1056.508,37.219,1066.667,26.278C1076.825,15.336,1086.984,13.284,1097.143,20.245C1107.302,27.207,1117.46,43.182,1127.619,42.685C1137.778,42.187,1147.937,25.216,1158.095,26.747C1168.254,28.279,1178.413,48.312,1188.571,47.903C1198.73,47.494,1208.889,26.642,1219.048,23.706C1229.206,20.769,1239.365,35.749,1249.524,38.584C1259.683,41.419,1269.841,32.111,1280,27.341C1290.159,22.572,1300.317,22.342,1310.476,22.034C1320.635,21.725,1330.794,21.339,1340.952,31.784C1351.111,42.228,1361.27,63.504,1371.429,72.277C1381.587,81.049,1391.746,77.318,1401.905,70.58C1412.063,63.841,1422.222,54.096,1432.381,46.348C1442.54,38.6,1452.698,32.848,1462.857,39.179C1473.016,45.51,1483.175,63.923,1493.333,68.952C1503.492,73.98,1513.651,65.625,1523.81,59.348C1533.968,53.072,1544.127,48.875,1554.286,42.288C1564.444,35.701,1574.603,26.725,1584.762,27.584C1594.921,28.442,1605.079,39.136,1615.238,44.186C1625.397,49.235,1635.556,48.64,1645.714,51.095C1655.873,53.55,1666.032,59.054,1676.19,56.38C1686.349,53.706,1696.508,42.853,1706.667,40.151C1716.825,37.448,1726.984,42.897,1737.143,45.166C1747.302,47.435,1757.46,46.523,1767.619,41.658C1777.778,36.793,1787.937,27.973,1798.095,23.555C1808.254,19.136,1818.413,19.118,1828.571,21.697C1838.73,24.277,1848.889,29.453,1859.048,26.32C1869.206,23.186,1879.365,11.741,1889.524,6.984C1899.683,2.227,1909.841,4.156,1914.921,5.121L1920,6.086L1920,810L1914.921,810C1909.841,810,1899.683,810,1889.524,810C1879.365,810,1869.206,810,1859.048,810C1848.889,810,1838.73,810,1828.571,810C1818.413,810,1808.254,810,1798.095,810C1787.937,810,1777.778,810,1767.619,810C1757.46,810,1747.302,810,1737.143,810C1726.984,810,1716.825,810,1706.667,810C1696.508,810,1686.349,810,1676.19,810C1666.032,810,1655.873,810,1645.714,810C1635.556,810,1625.397,810,1615.238,810C1605.079,810,1594.921,810,1584.762,810C1574.603,810,1564.444,810,1554.286,810C1544.127,810,1533.968,810,1523.81,810C1513.651,810,1503.492,810,1493.333,810C1483.175,810,1473.016,810,1462.857,810C1452.698,810,1442.54,810,1432.381,810C1422.222,810,1412.063,810,1401.905,810C1391.746,810,1381.587,810,1371.429,810C1361.27,810,1351.111,810,1340.952,810C1330.794,810,1320.635,810,1310.476,810C1300.317,810,1290.159,810,1280,810C1269.841,810,1259.683,810,1249.524,810C1239.365,810,1229.206,810,1219.048,810C1208.889,810,1198.73,810,1188.571,810C1178.413,810,1168.254,810,1158.095,810C1147.937,810,1137.778,810,1127.619,810C1117.46,810,1107.302,810,1097.143,810C1086.984,810,1076.825,810,1066.667,810C1056.508,810,1046.349,810,1036.19,810C1026.032,810,1015.873,810,1005.714,810C995.556,810,985.397,810,975.238,810C965.079,810,954.921,810,944.762,810C934.603,810,924.444,810,914.286,810C904.127,810,893.968,810,883.81,810C873.651,810,863.492,810,853.333,810C843.175,810,833.016,810,822.857,810C812.698,810,802.54,810,792.381,810C782.222,810,772.063,810,761.905,810C751.746,810,741.587,810,731.429,810C721.27,810,711.111,810,700.952,810C690.794,810,680.635,810,670.476,810C660.317,810,650.159,810,640,810C629.841,810,619.683,810,609.524,810C599.365,810,589.206,810,579.048,810C568.889,810,558.73,810,548.571,810C538.413,810,528.254,810,518.095,810C507.937,810,497.778,810,487.619,810C477.46,810,467.302,810,457.143,810C446.984,810,436.825,810,426.667,810C416.508,810,406.349,810,396.19,810C386.032,810,375.873,810,365.714,810C355.556,810,345.397,810,335.238,810C325.079,810,314.921,810,304.762,810C294.603,810,284.444,810,274.286,810C264.127,810,253.968,810,243.81,810C233.651,810,223.492,810,213.333,810C203.175,810,193.016,810,182.857,810C172.698,810,162.54,810,152.381,810C142.222,810,132.063,810,121.905,810C111.746,810,101.587,810,91.429,810C81.27,810,71.111,810,60.952,810C50.794,810,40.635,810,30.476,810C20.317,810,10.159,810,5.079,810L0,810Z"></path></g><g transform="translate(0, 360)"><path fill="rgb(55, 70, 86)" fill-opacity="1" d="M0,54.537L5.079,45.703C10.159,36.869,20.317,19.201,30.476,22.297C40.635,25.394,50.794,49.255,60.952,59.526C71.111,69.797,81.27,66.478,91.429,60.514C101.587,54.55,111.746,45.941,121.905,49.664C132.063,53.386,142.222,69.441,152.381,69.026C162.54,68.611,172.698,51.726,182.857,50.332C193.016,48.939,203.175,63.036,213.333,59.501C223.492,55.966,233.651,34.798,243.81,25.719C253.968,16.64,264.127,19.65,274.286,29.953C284.444,40.256,294.603,57.852,304.762,56.6C314.921,55.347,325.079,35.246,335.238,31.388C345.397,27.531,355.556,39.917,365.714,44.463C375.873,49.009,386.032,45.714,396.19,51.756C406.349,57.798,416.508,73.177,426.667,80.661C436.825,88.145,446.984,87.734,457.143,83.394C467.302,79.053,477.46,70.784,487.619,63.917C497.778,57.051,507.937,51.587,518.095,44.331C528.254,37.076,538.413,28.029,548.571,22.908C558.73,17.787,568.889,16.593,579.048,24.472C589.206,32.351,599.365,49.305,609.524,47.4C619.683,45.496,629.841,24.734,640,13.761C650.159,2.787,660.317,1.602,670.476,5.496C680.635,9.389,690.794,18.362,700.952,18.745C711.111,19.127,721.27,10.919,731.429,16.473C741.587,22.026,751.746,41.341,761.905,43.1C772.063,44.858,782.222,29.06,792.381,32.866C802.54,36.673,812.698,60.084,822.857,59.499C833.016,58.913,843.175,34.332,853.333,22.034C863.492,9.737,873.651,9.723,883.81,20.559C893.968,31.394,904.127,53.078,914.286,54.283C924.444,55.488,934.603,36.214,944.762,31.63C954.921,27.046,965.079,37.151,975.238,43.389C985.397,49.627,995.556,51.996,1005.714,45.22C1015.873,38.445,1026.032,22.524,1036.19,16.156C1046.349,9.788,1056.508,12.974,1066.667,23.341C1076.825,33.708,1086.984,51.257,1097.143,62.817C1107.302,74.377,1117.46,79.947,1127.619,76.976C1137.778,74.006,1147.937,62.496,1158.095,60.934C1168.254,59.372,1178.413,67.758,1188.571,60.446C1198.73,53.134,1208.889,30.123,1219.048,21.121C1229.206,12.12,1239.365,17.127,1249.524,17.016C1259.683,16.905,1269.841,11.676,1280,13.841C1290.159,16.006,1300.317,25.566,1310.476,27.311C1320.635,29.056,1330.794,22.986,1340.952,25.487C1351.111,27.989,1361.27,39.062,1371.429,47.106C1381.587,55.151,1391.746,60.167,1401.905,65.92C1412.063,71.672,1422.222,78.162,1432.381,79.251C1442.54,80.341,1452.698,76.029,1462.857,75.519C1473.016,75.008,1483.175,78.298,1493.333,78.444C1503.492,78.589,1513.651,75.591,1523.81,75.517C1533.968,75.444,1544.127,78.296,1554.286,69.151C1564.444,60.006,1574.603,38.863,1584.762,38.837C1594.921,38.81,1605.079,59.9,1615.238,68.448C1625.397,76.996,1635.556,73.002,1645.714,67.949C1655.873,62.896,1666.032,56.785,1676.19,46.272C1686.349,35.76,1696.508,20.847,1706.667,27.166C1716.825,33.486,1726.984,61.037,1737.143,66.707C1747.302,72.377,1757.46,56.166,1767.619,54.669C1777.778,53.173,1787.937,66.391,1798.095,72.772C1808.254,79.153,1818.413,78.695,1828.571,68.405C1838.73,58.114,1848.889,37.989,1859.048,36.3C1869.206,34.611,1879.365,51.358,1889.524,52.945C1899.683,54.533,1909.841,40.961,1914.921,34.176L1920,27.39L1920,720L1914.921,720C1909.841,720,1899.683,720,1889.524,720C1879.365,720,1869.206,720,1859.048,720C1848.889,720,1838.73,720,1828.571,720C1818.413,720,1808.254,720,1798.095,720C1787.937,720,1777.778,720,1767.619,720C1757.46,720,1747.302,720,1737.143,720C1726.984,720,1716.825,720,1706.667,720C1696.508,720,1686.349,720,1676.19,720C1666.032,720,1655.873,720,1645.714,720C1635.556,720,1625.397,720,1615.238,720C1605.079,720,1594.921,720,1584.762,720C1574.603,720,1564.444,720,1554.286,720C1544.127,720,1533.968,720,1523.81,720C1513.651,720,1503.492,720,1493.333,720C1483.175,720,1473.016,720,1462.857,720C1452.698,720,1442.54,720,1432.381,720C1422.222,720,1412.063,720,1401.905,720C1391.746,720,1381.587,720,1371.429,720C1361.27,720,1351.111,720,1340.952,720C1330.794,720,1320.635,720,1310.476,720C1300.317,720,1290.159,720,1280,720C1269.841,720,1259.683,720,1249.524,720C1239.365,720,1229.206,720,1219.048,720C1208.889,720,1198.73,720,1188.571,720C1178.413,720,1168.254,720,1158.095,720C1147.937,720,1137.778,720,1127.619,720C1117.46,720,1107.302,720,1097.143,720C1086.984,720,1076.825,720,1066.667,720C1056.508,720,1046.349,720,1036.19,720C1026.032,720,1015.873,720,1005.714,720C995.556,720,985.397,720,975.238,720C965.079,720,954.921,720,944.762,720C934.603,720,924.444,720,914.286,720C904.127,720,893.968,720,883.81,720C873.651,720,863.492,720,853.333,720C843.175,720,833.016,720,822.857,720C812.698,720,802.54,720,792.381,720C782.222,720,772.063,720,761.905,720C751.746,720,741.587,720,731.429,720C721.27,720,711.111,720,700.952,720C690.794,720,680.635,720,670.476,720C660.317,720,650.159,720,640,720C629.841,720,619.683,720,609.524,720C599.365,720,589.206,720,579.048,720C568.889,720,558.73,720,548.571,720C538.413,720,528.254,720,518.095,720C507.937,720,497.778,720,487.619,720C477.46,720,467.302,720,457.143,720C446.984,720,436.825,720,426.667,720C416.508,720,406.349,720,396.19,720C386.032,720,375.873,720,365.714,720C355.556,720,345.397,720,335.238,720C325.079,720,314.921,720,304.762,720C294.603,720,284.444,720,274.286,720C264.127,720,253.968,720,243.81,720C233.651,720,223.492,720,213.333,720C203.175,720,193.016,720,182.857,720C172.698,720,162.54,720,152.381,720C142.222,720,132.063,720,121.905,720C111.746,720,101.587,720,91.429,720C81.27,720,71.111,720,60.952,720C50.794,720,40.635,720,30.476,720C20.317,720,10.159,720,5.079,720L0,720Z"></path></g><g transform="translate(0, 450)"><path fill="rgb(59, 80, 100)" fill-opacity="1" d="M0,41.701L5.079,45.288C10.159,48.875,20.317,56.05,30.476,55.977C40.635,55.905,50.794,48.585,60.952,52.483C71.111,56.382,81.27,71.499,91.429,76.905C101.587,82.312,111.746,78.008,121.905,73.898C132.063,69.788,142.222,65.871,152.381,54.976C162.54,44.081,172.698,26.207,182.857,27.092C193.016,27.978,203.175,47.622,213.333,50.431C223.492,53.24,233.651,39.213,243.81,33.632C253.968,28.051,264.127,30.916,274.286,40.627C284.444,50.339,294.603,66.898,304.762,70.883C314.921,74.869,325.079,66.282,335.238,62.267C345.397,58.251,355.556,58.809,365.714,58.003C375.873,57.197,386.032,55.028,396.19,57.796C406.349,60.564,416.508,68.268,426.667,69.4C436.825,70.533,446.984,65.093,457.143,56.467C467.302,47.842,477.46,36.03,487.619,26.117C497.778,16.203,507.937,8.189,518.095,17.967C528.254,27.744,538.413,55.312,548.571,68.644C558.73,81.975,568.889,81.069,579.048,77.554C589.206,74.039,599.365,67.914,609.524,65.573C619.683,63.233,629.841,64.676,640,65.374C650.159,66.072,660.317,66.023,670.476,60.27C680.635,54.517,690.794,43.06,700.952,41.025C711.111,38.99,721.27,46.378,731.429,43.066C741.587,39.754,751.746,25.742,761.905,20.823C772.063,15.904,782.222,20.077,792.381,31.137C802.54,42.197,812.698,60.144,822.857,67.957C833.016,75.77,843.175,73.45,853.333,63.947C863.492,54.445,873.651,37.761,883.81,36.433C893.968,35.104,904.127,49.131,914.286,47.859C924.444,46.586,934.603,30.013,944.762,21.849C954.921,13.685,965.079,13.929,975.238,14.331C985.397,14.733,995.556,15.293,1005.714,16.621C1015.873,17.949,1026.032,20.045,1036.19,18.236C1046.349,16.427,1056.508,10.712,1066.667,13.495C1076.825,16.277,1086.984,27.557,1097.143,39.081C1107.302,50.606,1117.46,62.375,1127.619,61.973C1137.778,61.57,1147.937,48.996,1158.095,38.918C1168.254,28.84,1178.413,21.259,1188.571,19.34C1198.73,17.421,1208.889,21.163,1219.048,19.851C1229.206,18.539,1239.365,12.173,1249.524,14.37C1259.683,16.566,1269.841,27.326,1280,33.344C1290.159,39.361,1300.317,40.635,1310.476,34.957C1320.635,29.279,1330.794,16.648,1340.952,14.195C1351.111,11.743,1361.27,19.468,1371.429,32.335C1381.587,45.203,1391.746,63.212,1401.905,59.17C1412.063,55.128,1422.222,29.034,1432.381,27.954C1442.54,26.874,1452.698,50.809,1462.857,58.788C1473.016,66.767,1483.175,58.791,1493.333,58.375C1503.492,57.958,1513.651,65.102,1523.81,60.72C1533.968,56.337,1544.127,40.428,1554.286,29.171C1564.444,17.915,1574.603,11.31,1584.762,11.367C1594.921,11.424,1605.079,18.143,1615.238,25.267C1625.397,32.392,1635.556,39.923,1645.714,43.718C1655.873,47.513,1666.032,47.573,1676.19,50.448C1686.349,53.324,1696.508,59.015,1706.667,54.739C1716.825,50.464,1726.984,36.223,1737.143,36.238C1747.302,36.252,1757.46,50.522,1767.619,57.513C1777.778,64.503,1787.937,64.214,1798.095,56.406C1808.254,48.599,1818.413,33.273,1828.571,28.834C1838.73,24.395,1848.889,30.843,1859.048,37C1869.206,43.157,1879.365,49.024,1889.524,57.334C1899.683,65.643,1909.841,76.394,1914.921,81.769L1920,87.145L1920,630L1914.921,630C1909.841,630,1899.683,630,1889.524,630C1879.365,630,1869.206,630,1859.048,630C1848.889,630,1838.73,630,1828.571,630C1818.413,630,1808.254,630,1798.095,630C1787.937,630,1777.778,630,1767.619,630C1757.46,630,1747.302,630,1737.143,630C1726.984,630,1716.825,630,1706.667,630C1696.508,630,1686.349,630,1676.19,630C1666.032,630,1655.873,630,1645.714,630C1635.556,630,1625.397,630,1615.238,630C1605.079,630,1594.921,630,1584.762,630C1574.603,630,1564.444,630,1554.286,630C1544.127,630,1533.968,630,1523.81,630C1513.651,630,1503.492,630,1493.333,630C1483.175,630,1473.016,630,1462.857,630C1452.698,630,1442.54,630,1432.381,630C1422.222,630,1412.063,630,1401.905,630C1391.746,630,1381.587,630,1371.429,630C1361.27,630,1351.111,630,1340.952,630C1330.794,630,1320.635,630,1310.476,630C1300.317,630,1290.159,630,1280,630C1269.841,630,1259.683,630,1249.524,630C1239.365,630,1229.206,630,1219.048,630C1208.889,630,1198.73,630,1188.571,630C1178.413,630,1168.254,630,1158.095,630C1147.937,630,1137.778,630,1127.619,630C1117.46,630,1107.302,630,1097.143,630C1086.984,630,1076.825,630,1066.667,630C1056.508,630,1046.349,630,1036.19,630C1026.032,630,1015.873,630,1005.714,630C995.556,630,985.397,630,975.238,630C965.079,630,954.921,630,944.762,630C934.603,630,924.444,630,914.286,630C904.127,630,893.968,630,883.81,630C873.651,630,863.492,630,853.333,630C843.175,630,833.016,630,822.857,630C812.698,630,802.54,630,792.381,630C782.222,630,772.063,630,761.905,630C751.746,630,741.587,630,731.429,630C721.27,630,711.111,630,700.952,630C690.794,630,680.635,630,670.476,630C660.317,630,650.159,630,640,630C629.841,630,619.683,630,609.524,630C599.365,630,589.206,630,579.048,630C568.889,630,558.73,630,548.571,630C538.413,630,528.254,630,518.095,630C507.937,630,497.778,630,487.619,630C477.46,630,467.302,630,457.143,630C446.984,630,436.825,630,426.667,630C416.508,630,406.349,630,396.19,630C386.032,630,375.873,630,365.714,630C355.556,630,345.397,630,335.238,630C325.079,630,314.921,630,304.762,630C294.603,630,284.444,630,274.286,630C264.127,630,253.968,630,243.81,630C233.651,630,223.492,630,213.333,630C203.175,630,193.016,630,182.857,630C172.698,630,162.54,630,152.381,630C142.222,630,132.063,630,121.905,630C111.746,630,101.587,630,91.429,630C81.27,630,71.111,630,60.952,630C50.794,630,40.635,630,30.476,630C20.317,630,10.159,630,5.079,630L0,630Z"></path></g><g transform="translate(0, 540)"><path fill="rgb(68, 93, 117)" fill-opacity="1" d="M0,73.256L5.079,73.843C10.159,74.431,20.317,75.607,30.476,63.821C40.635,52.036,50.794,27.288,60.952,22.511C71.111,17.734,81.27,32.928,91.429,33.607C101.587,34.286,111.746,20.451,121.905,23.664C132.063,26.877,142.222,47.139,152.381,49.927C162.54,52.716,172.698,38.032,182.857,30.026C193.016,22.021,203.175,20.694,213.333,25.632C223.492,30.57,233.651,41.773,243.81,51.853C253.968,61.932,264.127,70.887,274.286,72.542C284.444,74.197,294.603,68.55,304.762,67.594C314.921,66.637,325.079,70.371,335.238,71.834C345.397,73.297,355.556,72.489,365.714,61.886C375.873,51.283,386.032,30.885,396.19,28.483C406.349,26.08,416.508,41.673,426.667,43.943C436.825,46.214,446.984,35.161,457.143,33.649C467.302,32.136,477.46,40.163,487.619,44.774C497.778,49.384,507.937,50.577,518.095,55.515C528.254,60.452,538.413,69.133,548.571,65.728C558.73,62.323,568.889,46.832,579.048,46.75C589.206,46.668,599.365,61.996,609.524,65.726C619.683,69.456,629.841,61.588,640,63.646C650.159,65.704,660.317,77.687,670.476,82.655C680.635,87.622,690.794,85.574,700.952,84.059C711.111,82.544,721.27,81.563,731.429,74.002C741.587,66.44,751.746,52.299,761.905,40.053C772.063,27.806,782.222,17.455,792.381,12.949C802.54,8.442,812.698,9.78,822.857,23.479C833.016,37.178,843.175,63.238,853.333,76.371C863.492,89.505,873.651,89.712,883.81,89.567C893.968,89.422,904.127,88.925,914.286,76.023C924.444,63.121,934.603,37.814,944.762,32.818C954.921,27.821,965.079,43.135,975.238,51.619C985.397,60.102,995.556,61.756,1005.714,62.976C1015.873,64.197,1026.032,64.985,1036.19,68.039C1046.349,71.092,1056.508,76.411,1066.667,67.666C1076.825,58.922,1086.984,36.114,1097.143,27.667C1107.302,19.22,1117.46,25.134,1127.619,37.517C1137.778,49.9,1147.937,68.751,1158.095,77.408C1168.254,86.065,1178.413,84.526,1188.571,79.261C1198.73,73.996,1208.889,65.005,1219.048,65.05C1229.206,65.096,1239.365,74.179,1249.524,69.999C1259.683,65.819,1269.841,48.377,1280,37.329C1290.159,26.28,1300.317,21.626,1310.476,25.875C1320.635,30.124,1330.794,43.277,1340.952,48.014C1351.111,52.751,1361.27,49.071,1371.429,48.349C1381.587,47.626,1391.746,49.859,1401.905,48.161C1412.063,46.463,1422.222,40.834,1432.381,37.414C1442.54,33.995,1452.698,32.786,1462.857,27.821C1473.016,22.855,1483.175,14.133,1493.333,19.636C1503.492,25.139,1513.651,44.866,1523.81,47.848C1533.968,50.829,1544.127,37.065,1554.286,41.047C1564.444,45.029,1574.603,66.757,1584.762,65.121C1594.921,63.485,1605.079,38.486,1615.238,37.877C1625.397,37.268,1635.556,61.05,1645.714,59.013C1655.873,56.976,1666.032,29.12,1676.19,22.631C1686.349,16.143,1696.508,31.021,1706.667,41.598C1716.825,52.175,1726.984,58.451,1737.143,58.655C1747.302,58.86,1757.46,52.993,1767.619,55.524C1777.778,58.056,1787.937,68.987,1798.095,74.761C1808.254,80.535,1818.413,81.153,1828.571,72.253C1838.73,63.353,1848.889,44.934,1859.048,32.955C1869.206,20.976,1879.365,15.437,1889.524,24.653C1899.683,33.869,1909.841,57.84,1914.921,69.825L1920,81.81L1920,540L1914.921,540C1909.841,540,1899.683,540,1889.524,540C1879.365,540,1869.206,540,1859.048,540C1848.889,540,1838.73,540,1828.571,540C1818.413,540,1808.254,540,1798.095,540C1787.937,540,1777.778,540,1767.619,540C1757.46,540,1747.302,540,1737.143,540C1726.984,540,1716.825,540,1706.667,540C1696.508,540,1686.349,540,1676.19,540C1666.032,540,1655.873,540,1645.714,540C1635.556,540,1625.397,540,1615.238,540C1605.079,540,1594.921,540,1584.762,540C1574.603,540,1564.444,540,1554.286,540C1544.127,540,1533.968,540,1523.81,540C1513.651,540,1503.492,540,1493.333,540C1483.175,540,1473.016,540,1462.857,540C1452.698,540,1442.54,540,1432.381,540C1422.222,540,1412.063,540,1401.905,540C1391.746,540,1381.587,540,1371.429,540C1361.27,540,1351.111,540,1340.952,540C1330.794,540,1320.635,540,1310.476,540C1300.317,540,1290.159,540,1280,540C1269.841,540,1259.683,540,1249.524,540C1239.365,540,1229.206,540,1219.048,540C1208.889,540,1198.73,540,1188.571,540C1178.413,540,1168.254,540,1158.095,540C1147.937,540,1137.778,540,1127.619,540C1117.46,540,1107.302,540,1097.143,540C1086.984,540,1076.825,540,1066.667,540C1056.508,540,1046.349,540,1036.19,540C1026.032,540,1015.873,540,1005.714,540C995.556,540,985.397,540,975.238,540C965.079,540,954.921,540,944.762,540C934.603,540,924.444,540,914.286,540C904.127,540,893.968,540,883.81,540C873.651,540,863.492,540,853.333,540C843.175,540,833.016,540,822.857,540C812.698,540,802.54,540,792.381,540C782.222,540,772.063,540,761.905,540C751.746,540,741.587,540,731.429,540C721.27,540,711.111,540,700.952,540C690.794,540,680.635,540,670.476,540C660.317,540,650.159,540,640,540C629.841,540,619.683,540,609.524,540C599.365,540,589.206,540,579.048,540C568.889,540,558.73,540,548.571,540C538.413,540,528.254,540,518.095,540C507.937,540,497.778,540,487.619,540C477.46,540,467.302,540,457.143,540C446.984,540,436.825,540,426.667,540C416.508,540,406.349,540,396.19,540C386.032,540,375.873,540,365.714,540C355.556,540,345.397,540,335.238,540C325.079,540,314.921,540,304.762,540C294.603,540,284.444,540,274.286,540C264.127,540,253.968,540,243.81,540C233.651,540,223.492,540,213.333,540C203.175,540,193.016,540,182.857,540C172.698,540,162.54,540,152.381,540C142.222,540,132.063,540,121.905,540C111.746,540,101.587,540,91.429,540C81.27,540,71.111,540,60.952,540C50.794,540,40.635,540,30.476,540C20.317,540,10.159,540,5.079,540L0,540Z"></path></g><g transform="translate(0, 630)"><path fill="rgb(86, 111, 138)" fill-opacity="1" d="M0,55.714L5.079,51.107C10.159,46.5,20.317,37.285,30.476,29.232C40.635,21.179,50.794,14.287,60.952,16.833C71.111,19.379,81.27,31.362,91.429,32.249C101.587,33.136,111.746,22.927,121.905,19.34C132.063,15.752,142.222,18.785,152.381,20.698C162.54,22.61,172.698,23.402,182.857,26.209C193.016,29.015,203.175,33.836,213.333,42.837C223.492,51.838,233.651,65.019,243.81,67.932C253.968,70.846,264.127,63.491,274.286,65.002C284.444,66.513,294.603,76.89,304.762,79.309C314.921,81.728,325.079,76.19,335.238,74.898C345.397,73.605,355.556,76.559,365.714,78.712C375.873,80.866,386.032,82.221,396.19,83.77C406.349,85.319,416.508,87.063,426.667,84.493C436.825,81.922,446.984,75.039,457.143,62.242C467.302,49.446,477.46,30.736,487.619,34.323C497.778,37.91,507.937,63.794,518.095,76.647C528.254,89.5,538.413,89.322,548.571,77.761C558.73,66.2,568.889,43.256,579.048,37.221C589.206,31.187,599.365,42.063,609.524,45.625C619.683,49.187,629.841,45.435,640,38.485C650.159,31.534,660.317,21.384,670.476,17.011C680.635,12.638,690.794,14.042,700.952,17.297C711.111,20.552,721.27,25.659,731.429,25.354C741.587,25.049,751.746,19.332,761.905,17.045C772.063,14.758,782.222,15.901,792.381,16.482C802.54,17.064,812.698,17.084,822.857,18.642C833.016,20.201,843.175,23.297,853.333,28.055C863.492,32.812,873.651,39.23,883.81,40.606C893.968,41.982,904.127,38.315,914.286,41.946C924.444,45.577,934.603,56.506,944.762,55.889C954.921,55.273,965.079,43.111,975.238,40.788C985.397,38.465,995.556,45.982,1005.714,47.997C1015.873,50.012,1026.032,46.525,1036.19,43.343C1046.349,40.161,1056.508,37.282,1066.667,36.382C1076.825,35.481,1086.984,36.557,1097.143,42.358C1107.302,48.158,1117.46,58.682,1127.619,64.4C1137.778,70.118,1147.937,71.03,1158.095,64.14C1168.254,57.25,1178.413,42.558,1188.571,36.902C1198.73,31.247,1208.889,34.628,1219.048,34.721C1229.206,34.813,1239.365,31.617,1249.524,34.224C1259.683,36.832,1269.841,45.242,1280,42.601C1290.159,39.959,1300.317,26.265,1310.476,32.036C1320.635,37.808,1330.794,63.044,1340.952,75.905C1351.111,88.767,1361.27,89.253,1371.429,81.266C1381.587,73.279,1391.746,56.819,1401.905,47.766C1412.063,38.713,1422.222,37.066,1432.381,43.663C1442.54,50.259,1452.698,65.098,1462.857,73.471C1473.016,81.844,1483.175,83.751,1493.333,77.532C1503.492,71.312,1513.651,56.965,1523.81,57.46C1533.968,57.955,1544.127,73.292,1554.286,68.898C1564.444,64.505,1574.603,40.381,1584.762,30.122C1594.921,19.863,1605.079,23.469,1615.238,29.389C1625.397,35.31,1635.556,43.545,1645.714,52.044C1655.873,60.542,1666.032,69.304,1676.19,72.738C1686.349,76.173,1696.508,74.28,1706.667,66.653C1716.825,59.026,1726.984,45.665,1737.143,37.66C1747.302,29.654,1757.46,27.004,1767.619,33.817C1777.778,40.629,1787.937,56.904,1798.095,65.369C1808.254,73.833,1818.413,74.488,1828.571,63.734C1838.73,52.98,1848.889,30.818,1859.048,23.123C1869.206,15.428,1879.365,22.2,1889.524,30.557C1899.683,38.913,1909.841,48.856,1914.921,53.827L1920,58.798L1920,450L1914.921,450C1909.841,450,1899.683,450,1889.524,450C1879.365,450,1869.206,450,1859.048,450C1848.889,450,1838.73,450,1828.571,450C1818.413,450,1808.254,450,1798.095,450C1787.937,450,1777.778,450,1767.619,450C1757.46,450,1747.302,450,1737.143,450C1726.984,450,1716.825,450,1706.667,450C1696.508,450,1686.349,450,1676.19,450C1666.032,450,1655.873,450,1645.714,450C1635.556,450,1625.397,450,1615.238,450C1605.079,450,1594.921,450,1584.762,450C1574.603,450,1564.444,450,1554.286,450C1544.127,450,1533.968,450,1523.81,450C1513.651,450,1503.492,450,1493.333,450C1483.175,450,1473.016,450,1462.857,450C1452.698,450,1442.54,450,1432.381,450C1422.222,450,1412.063,450,1401.905,450C1391.746,450,1381.587,450,1371.429,450C1361.27,450,1351.111,450,1340.952,450C1330.794,450,1320.635,450,1310.476,450C1300.317,450,1290.159,450,1280,450C1269.841,450,1259.683,450,1249.524,450C1239.365,450,1229.206,450,1219.048,450C1208.889,450,1198.73,450,1188.571,450C1178.413,450,1168.254,450,1158.095,450C1147.937,450,1137.778,450,1127.619,450C1117.46,450,1107.302,450,1097.143,450C1086.984,450,1076.825,450,1066.667,450C1056.508,450,1046.349,450,1036.19,450C1026.032,450,1015.873,450,1005.714,450C995.556,450,985.397,450,975.238,450C965.079,450,954.921,450,944.762,450C934.603,450,924.444,450,914.286,450C904.127,450,893.968,450,883.81,450C873.651,450,863.492,450,853.333,450C843.175,450,833.016,450,822.857,450C812.698,450,802.54,450,792.381,450C782.222,450,772.063,450,761.905,450C751.746,450,741.587,450,731.429,450C721.27,450,711.111,450,700.952,450C690.794,450,680.635,450,670.476,450C660.317,450,650.159,450,640,450C629.841,450,619.683,450,609.524,450C599.365,450,589.206,450,579.048,450C568.889,450,558.73,450,548.571,450C538.413,450,528.254,450,518.095,450C507.937,450,497.778,450,487.619,450C477.46,450,467.302,450,457.143,450C446.984,450,436.825,450,426.667,450C416.508,450,406.349,450,396.19,450C386.032,450,375.873,450,365.714,450C355.556,450,345.397,450,335.238,450C325.079,450,314.921,450,304.762,450C294.603,450,284.444,450,274.286,450C264.127,450,253.968,450,243.81,450C233.651,450,223.492,450,213.333,450C203.175,450,193.016,450,182.857,450C172.698,450,162.54,450,152.381,450C142.222,450,132.063,450,121.905,450C111.746,450,101.587,450,91.429,450C81.27,450,71.111,450,60.952,450C50.794,450,40.635,450,30.476,450C20.317,450,10.159,450,5.079,450L0,450Z"></path></g><g transform="translate(0, 720)"><path fill="rgb(114, 137, 163)" fill-opacity="1" d="M0,22.97L5.079,25.592C10.159,28.215,20.317,33.461,30.476,43.39C40.635,53.318,50.794,67.93,60.952,70.563C71.111,73.197,81.27,63.853,91.429,57.567C101.587,51.281,111.746,48.054,121.905,44.607C132.063,41.161,142.222,37.495,152.381,34.768C162.54,32.042,172.698,30.255,182.857,35.21C193.016,40.164,203.175,51.86,213.333,51.559C223.492,51.258,233.651,38.961,243.81,41.06C253.968,43.158,264.127,59.653,274.286,58.484C284.444,57.315,294.603,38.481,304.762,33.973C314.921,29.464,325.079,39.28,335.238,45.623C345.397,51.966,355.556,54.835,365.714,49.807C375.873,44.779,386.032,31.853,396.19,30.132C406.349,28.411,416.508,37.895,426.667,39.761C436.825,41.628,446.984,35.878,457.143,35.072C467.302,34.266,477.46,38.405,487.619,40.782C497.778,43.159,507.937,43.774,518.095,42.558C528.254,41.342,538.413,38.295,548.571,43.252C558.73,48.209,568.889,61.169,579.048,56.875C589.206,52.581,599.365,31.032,609.524,24.978C619.683,18.923,629.841,28.362,640,39.255C650.159,50.149,660.317,62.497,670.476,60.731C680.635,58.966,690.794,43.086,700.952,38.531C711.111,33.975,721.27,40.742,731.429,47.803C741.587,54.864,751.746,62.219,761.905,65.942C772.063,69.666,782.222,69.757,792.381,67.499C802.54,65.24,812.698,60.633,822.857,54.345C833.016,48.057,843.175,40.089,853.333,32.786C863.492,25.484,873.651,18.847,883.81,13.754C893.968,8.661,904.127,5.112,914.286,3.912C924.444,2.711,934.603,3.858,944.762,8.991C954.921,14.124,965.079,23.242,975.238,32.89C985.397,42.538,995.556,52.717,1005.714,48.286C1015.873,43.855,1026.032,24.815,1036.19,23.096C1046.349,21.378,1056.508,36.981,1066.667,45.883C1076.825,54.786,1086.984,56.989,1097.143,60.558C1107.302,64.128,1117.46,69.065,1127.619,69.884C1137.778,70.703,1147.937,67.403,1158.095,57.674C1168.254,47.945,1178.413,31.787,1188.571,30.681C1198.73,29.575,1208.889,43.522,1219.048,45.182C1229.206,46.841,1239.365,36.213,1249.524,37.84C1259.683,39.467,1269.841,53.348,1280,63.597C1290.159,73.845,1300.317,80.46,1310.476,73.985C1320.635,67.511,1330.794,47.948,1340.952,39.247C1351.111,30.546,1361.27,32.706,1371.429,28.663C1381.587,24.621,1391.746,14.376,1401.905,18.96C1412.063,23.544,1422.222,42.957,1432.381,45.314C1442.54,47.672,1452.698,32.974,1462.857,35.28C1473.016,37.586,1483.175,56.895,1493.333,54.81C1503.492,52.725,1513.651,29.246,1523.81,22.678C1533.968,16.11,1544.127,26.453,1554.286,27.004C1564.444,27.555,1574.603,18.315,1584.762,12.46C1594.921,6.605,1605.079,4.136,1615.238,17.273C1625.397,30.41,1635.556,59.152,1645.714,67.792C1655.873,76.432,1666.032,64.97,1676.19,58.682C1686.349,52.393,1696.508,51.278,1706.667,54.539C1716.825,57.8,1726.984,65.438,1737.143,68.438C1747.302,71.438,1757.46,69.801,1767.619,63.93C1777.778,58.059,1787.937,47.955,1798.095,50.68C1808.254,53.405,1818.413,68.958,1828.571,76.789C1838.73,84.62,1848.889,84.729,1859.048,80.387C1869.206,76.045,1879.365,67.252,1889.524,59.861C1899.683,52.471,1909.841,46.482,1914.921,43.487L1920,40.493L1920,360L1914.921,360C1909.841,360,1899.683,360,1889.524,360C1879.365,360,1869.206,360,1859.048,360C1848.889,360,1838.73,360,1828.571,360C1818.413,360,1808.254,360,1798.095,360C1787.937,360,1777.778,360,1767.619,360C1757.46,360,1747.302,360,1737.143,360C1726.984,360,1716.825,360,1706.667,360C1696.508,360,1686.349,360,1676.19,360C1666.032,360,1655.873,360,1645.714,360C1635.556,360,1625.397,360,1615.238,360C1605.079,360,1594.921,360,1584.762,360C1574.603,360,1564.444,360,1554.286,360C1544.127,360,1533.968,360,1523.81,360C1513.651,360,1503.492,360,1493.333,360C1483.175,360,1473.016,360,1462.857,360C1452.698,360,1442.54,360,1432.381,360C1422.222,360,1412.063,360,1401.905,360C1391.746,360,1381.587,360,1371.429,360C1361.27,360,1351.111,360,1340.952,360C1330.794,360,1320.635,360,1310.476,360C1300.317,360,1290.159,360,1280,360C1269.841,360,1259.683,360,1249.524,360C1239.365,360,1229.206,360,1219.048,360C1208.889,360,1198.73,360,1188.571,360C1178.413,360,1168.254,360,1158.095,360C1147.937,360,1137.778,360,1127.619,360C1117.46,360,1107.302,360,1097.143,360C1086.984,360,1076.825,360,1066.667,360C1056.508,360,1046.349,360,1036.19,360C1026.032,360,1015.873,360,1005.714,360C995.556,360,985.397,360,975.238,360C965.079,360,954.921,360,944.762,360C934.603,360,924.444,360,914.286,360C904.127,360,893.968,360,883.81,360C873.651,360,863.492,360,853.333,360C843.175,360,833.016,360,822.857,360C812.698,360,802.54,360,792.381,360C782.222,360,772.063,360,761.905,360C751.746,360,741.587,360,731.429,360C721.27,360,711.111,360,700.952,360C690.794,360,680.635,360,670.476,360C660.317,360,650.159,360,640,360C629.841,360,619.683,360,609.524,360C599.365,360,589.206,360,579.048,360C568.889,360,558.73,360,548.571,360C538.413,360,528.254,360,518.095,360C507.937,360,497.778,360,487.619,360C477.46,360,467.302,360,457.143,360C446.984,360,436.825,360,426.667,360C416.508,360,406.349,360,396.19,360C386.032,360,375.873,360,365.714,360C355.556,360,345.397,360,335.238,360C325.079,360,314.921,360,304.762,360C294.603,360,284.444,360,274.286,360C264.127,360,253.968,360,243.81,360C233.651,360,223.492,360,213.333,360C203.175,360,193.016,360,182.857,360C172.698,360,162.54,360,152.381,360C142.222,360,132.063,360,121.905,360C111.746,360,101.587,360,91.429,360C81.27,360,71.111,360,60.952,360C50.794,360,40.635,360,30.476,360C20.317,360,10.159,360,5.079,360L0,360Z"></path></g><g transform="translate(0, 810)"><path fill="rgb(153, 167, 192)" fill-opacity="1" d="M0,85.795L5.079,80.64C10.159,75.485,20.317,65.175,30.476,51.376C40.635,37.577,50.794,20.29,60.952,13.575C71.111,6.859,81.27,10.715,91.429,14.514C101.587,18.314,111.746,22.056,121.905,28.502C132.063,34.947,142.222,44.095,152.381,40.321C162.54,36.546,172.698,19.848,182.857,12.591C193.016,5.335,203.175,7.521,213.333,19.772C223.492,32.023,233.651,54.341,243.81,62.933C253.968,71.525,264.127,66.392,274.286,56.871C284.444,47.351,294.603,33.444,304.762,36.067C314.921,38.691,325.079,57.846,335.238,65.278C345.397,72.71,355.556,68.419,365.714,56.304C375.873,44.189,386.032,24.251,396.19,25.225C406.349,26.199,416.508,48.086,426.667,56.608C436.825,65.131,446.984,60.29,457.143,58.853C467.302,57.416,477.46,59.383,487.619,53.422C497.778,47.46,507.937,33.571,518.095,38.208C528.254,42.845,538.413,66.01,548.571,69.064C558.73,72.118,568.889,55.062,579.048,49.016C589.206,42.971,599.365,47.936,609.524,49.096C619.683,50.255,629.841,47.609,640,51.091C650.159,54.573,660.317,64.183,670.476,61.672C680.635,59.161,690.794,44.529,700.952,39.185C711.111,33.842,721.27,37.788,731.429,47.223C741.587,56.659,751.746,71.585,761.905,67.597C772.063,63.609,782.222,40.708,792.381,36.248C802.54,31.788,812.698,45.77,822.857,45.07C833.016,44.371,843.175,28.99,853.333,25.246C863.492,21.503,873.651,29.397,883.81,41.814C893.968,54.231,904.127,71.172,914.286,72.693C924.444,74.215,934.603,60.319,944.762,59.381C954.921,58.443,965.079,70.464,975.238,64.108C985.397,57.751,995.556,33.015,1005.714,26.97C1015.873,20.925,1026.032,33.57,1036.19,37.69C1046.349,41.81,1056.508,37.405,1066.667,39.178C1076.825,40.951,1086.984,48.902,1097.143,46.201C1107.302,43.501,1117.46,30.148,1127.619,34.031C1137.778,37.913,1147.937,59.029,1158.095,59.425C1168.254,59.821,1178.413,39.496,1188.571,30.459C1198.73,21.423,1208.889,23.675,1219.048,31.915C1229.206,40.155,1239.365,54.383,1249.524,64.417C1259.683,74.451,1269.841,80.291,1280,71.78C1290.159,63.269,1300.317,40.407,1310.476,34.607C1320.635,28.807,1330.794,40.069,1340.952,38.633C1351.111,37.198,1361.27,23.065,1371.429,22.081C1381.587,21.096,1391.746,33.26,1401.905,43.564C1412.063,53.869,1422.222,62.315,1432.381,56.413C1442.54,50.511,1452.698,30.263,1462.857,20.909C1473.016,11.556,1483.175,13.098,1493.333,22.093C1503.492,31.088,1513.651,47.536,1523.81,56.104C1533.968,64.672,1544.127,65.36,1554.286,66.863C1564.444,68.365,1574.603,70.682,1584.762,70.387C1594.921,70.092,1605.079,67.185,1615.238,68.295C1625.397,69.405,1635.556,74.533,1645.714,68.627C1655.873,62.722,1666.032,45.783,1676.19,35.374C1686.349,24.964,1696.508,21.085,1706.667,20.99C1716.825,20.896,1726.984,24.588,1737.143,27.759C1747.302,30.931,1757.46,33.582,1767.619,32.385C1777.778,31.188,1787.937,26.142,1798.095,31.111C1808.254,36.079,1818.413,51.062,1828.571,58.605C1838.73,66.147,1848.889,66.248,1859.048,69.433C1869.206,72.618,1879.365,78.887,1889.524,82.727C1899.683,86.568,1909.841,87.979,1914.921,88.685L1920,89.39L1920,270L1914.921,270C1909.841,270,1899.683,270,1889.524,270C1879.365,270,1869.206,270,1859.048,270C1848.889,270,1838.73,270,1828.571,270C1818.413,270,1808.254,270,1798.095,270C1787.937,270,1777.778,270,1767.619,270C1757.46,270,1747.302,270,1737.143,270C1726.984,270,1716.825,270,1706.667,270C1696.508,270,1686.349,270,1676.19,270C1666.032,270,1655.873,270,1645.714,270C1635.556,270,1625.397,270,1615.238,270C1605.079,270,1594.921,270,1584.762,270C1574.603,270,1564.444,270,1554.286,270C1544.127,270,1533.968,270,1523.81,270C1513.651,270,1503.492,270,1493.333,270C1483.175,270,1473.016,270,1462.857,270C1452.698,270,1442.54,270,1432.381,270C1422.222,270,1412.063,270,1401.905,270C1391.746,270,1381.587,270,1371.429,270C1361.27,270,1351.111,270,1340.952,270C1330.794,270,1320.635,270,1310.476,270C1300.317,270,1290.159,270,1280,270C1269.841,270,1259.683,270,1249.524,270C1239.365,270,1229.206,270,1219.048,270C1208.889,270,1198.73,270,1188.571,270C1178.413,270,1168.254,270,1158.095,270C1147.937,270,1137.778,270,1127.619,270C1117.46,270,1107.302,270,1097.143,270C1086.984,270,1076.825,270,1066.667,270C1056.508,270,1046.349,270,1036.19,270C1026.032,270,1015.873,270,1005.714,270C995.556,270,985.397,270,975.238,270C965.079,270,954.921,270,944.762,270C934.603,270,924.444,270,914.286,270C904.127,270,893.968,270,883.81,270C873.651,270,863.492,270,853.333,270C843.175,270,833.016,270,822.857,270C812.698,270,802.54,270,792.381,270C782.222,270,772.063,270,761.905,270C751.746,270,741.587,270,731.429,270C721.27,270,711.111,270,700.952,270C690.794,270,680.635,270,670.476,270C660.317,270,650.159,270,640,270C629.841,270,619.683,270,609.524,270C599.365,270,589.206,270,579.048,270C568.889,270,558.73,270,548.571,270C538.413,270,528.254,270,518.095,270C507.937,270,497.778,270,487.619,270C477.46,270,467.302,270,457.143,270C446.984,270,436.825,270,426.667,270C416.508,270,406.349,270,396.19,270C386.032,270,375.873,270,365.714,270C355.556,270,345.397,270,335.238,270C325.079,270,314.921,270,304.762,270C294.603,270,284.444,270,274.286,270C264.127,270,253.968,270,243.81,270C233.651,270,223.492,270,213.333,270C203.175,270,193.016,270,182.857,270C172.698,270,162.54,270,152.381,270C142.222,270,132.063,270,121.905,270C111.746,270,101.587,270,91.429,270C81.27,270,71.111,270,60.952,270C50.794,270,40.635,270,30.476,270C20.317,270,10.159,270,5.079,270L0,270Z"></path></g><g transform="translate(0, 900)"><path fill="rgb(197, 202, 223)" fill-opacity="1" d="M0,89.615L5.079,86.74C10.159,83.866,20.317,78.116,30.476,69.483C40.635,60.85,50.794,49.334,60.952,40.81C71.111,32.287,81.27,26.756,91.429,30.494C101.587,34.232,111.746,47.24,121.905,46.982C132.063,46.725,142.222,33.204,152.381,29.295C162.54,25.386,172.698,31.09,182.857,36.14C193.016,41.19,203.175,45.586,213.333,42.821C223.492,40.057,233.651,30.132,243.81,29.753C253.968,29.374,264.127,38.541,274.286,43.349C284.444,48.157,294.603,48.607,304.762,45.533C314.921,42.46,325.079,35.863,335.238,37.483C345.397,39.102,355.556,48.938,365.714,46.247C375.873,43.556,386.032,28.338,396.19,19.62C406.349,10.902,416.508,8.685,426.667,13.06C436.825,17.434,446.984,28.401,457.143,41.755C467.302,55.11,477.46,70.853,487.619,75.128C497.778,79.404,507.937,72.211,518.095,66.735C528.254,61.259,538.413,57.5,548.571,54.29C558.73,51.08,568.889,48.421,579.048,47.543C589.206,46.664,599.365,47.568,609.524,47.034C619.683,46.499,629.841,44.528,640,49.249C650.159,53.97,660.317,65.382,670.476,67.003C680.635,68.623,690.794,60.451,700.952,52.933C711.111,45.415,721.27,38.55,731.429,33.794C741.587,29.039,751.746,26.392,761.905,22.194C772.063,17.995,782.222,12.246,792.381,15.458C802.54,18.67,812.698,30.843,822.857,35.934C833.016,41.024,843.175,39.031,853.333,38.52C863.492,38.01,873.651,38.982,883.81,46.58C893.968,54.178,904.127,68.402,914.286,67.302C924.444,66.203,934.603,49.781,944.762,40.457C954.921,31.132,965.079,28.906,975.238,30.509C985.397,32.111,995.556,37.542,1005.714,35.702C1015.873,33.862,1026.032,24.751,1036.19,22.659C1046.349,20.567,1056.508,25.494,1066.667,23.461C1076.825,21.427,1086.984,12.434,1097.143,17.795C1107.302,23.157,1117.46,42.873,1127.619,54.864C1137.778,66.855,1147.937,71.12,1158.095,61.654C1168.254,52.188,1178.413,28.99,1188.571,25.953C1198.73,22.917,1208.889,40.041,1219.048,48.863C1229.206,57.685,1239.365,58.204,1249.524,57.15C1259.683,56.095,1269.841,53.467,1280,57.961C1290.159,62.455,1300.317,74.071,1310.476,76.009C1320.635,77.946,1330.794,70.204,1340.952,59.854C1351.111,49.504,1361.27,36.545,1371.429,33.12C1381.587,29.695,1391.746,35.803,1401.905,46.787C1412.063,57.771,1422.222,73.63,1432.381,67.384C1442.54,61.137,1452.698,32.784,1462.857,28.428C1473.016,24.071,1483.175,43.711,1493.333,44.757C1503.492,45.803,1513.651,28.256,1523.81,30.236C1533.968,32.216,1544.127,53.724,1554.286,63.15C1564.444,72.577,1574.603,69.923,1584.762,70.523C1594.921,71.123,1605.079,74.977,1615.238,69.712C1625.397,64.448,1635.556,50.064,1645.714,47.76C1655.873,45.456,1666.032,55.231,1676.19,63.055C1686.349,70.879,1696.508,76.753,1706.667,69.9C1716.825,63.047,1726.984,43.467,1737.143,33.957C1747.302,24.447,1757.46,25.007,1767.619,29.951C1777.778,34.895,1787.937,44.222,1798.095,49.877C1808.254,55.531,1818.413,57.513,1828.571,51.457C1838.73,45.4,1848.889,31.306,1859.048,30.525C1869.206,29.743,1879.365,42.274,1889.524,49.757C1899.683,57.24,1909.841,59.675,1914.921,60.892L1920,62.11L1920,180L1914.921,180C1909.841,180,1899.683,180,1889.524,180C1879.365,180,1869.206,180,1859.048,180C1848.889,180,1838.73,180,1828.571,180C1818.413,180,1808.254,180,1798.095,180C1787.937,180,1777.778,180,1767.619,180C1757.46,180,1747.302,180,1737.143,180C1726.984,180,1716.825,180,1706.667,180C1696.508,180,1686.349,180,1676.19,180C1666.032,180,1655.873,180,1645.714,180C1635.556,180,1625.397,180,1615.238,180C1605.079,180,1594.921,180,1584.762,180C1574.603,180,1564.444,180,1554.286,180C1544.127,180,1533.968,180,1523.81,180C1513.651,180,1503.492,180,1493.333,180C1483.175,180,1473.016,180,1462.857,180C1452.698,180,1442.54,180,1432.381,180C1422.222,180,1412.063,180,1401.905,180C1391.746,180,1381.587,180,1371.429,180C1361.27,180,1351.111,180,1340.952,180C1330.794,180,1320.635,180,1310.476,180C1300.317,180,1290.159,180,1280,180C1269.841,180,1259.683,180,1249.524,180C1239.365,180,1229.206,180,1219.048,180C1208.889,180,1198.73,180,1188.571,180C1178.413,180,1168.254,180,1158.095,180C1147.937,180,1137.778,180,1127.619,180C1117.46,180,1107.302,180,1097.143,180C1086.984,180,1076.825,180,1066.667,180C1056.508,180,1046.349,180,1036.19,180C1026.032,180,1015.873,180,1005.714,180C995.556,180,985.397,180,975.238,180C965.079,180,954.921,180,944.762,180C934.603,180,924.444,180,914.286,180C904.127,180,893.968,180,883.81,180C873.651,180,863.492,180,853.333,180C843.175,180,833.016,180,822.857,180C812.698,180,802.54,180,792.381,180C782.222,180,772.063,180,761.905,180C751.746,180,741.587,180,731.429,180C721.27,180,711.111,180,700.952,180C690.794,180,680.635,180,670.476,180C660.317,180,650.159,180,640,180C629.841,180,619.683,180,609.524,180C599.365,180,589.206,180,579.048,180C568.889,180,558.73,180,548.571,180C538.413,180,528.254,180,518.095,180C507.937,180,497.778,180,487.619,180C477.46,180,467.302,180,457.143,180C446.984,180,436.825,180,426.667,180C416.508,180,406.349,180,396.19,180C386.032,180,375.873,180,365.714,180C355.556,180,345.397,180,335.238,180C325.079,180,314.921,180,304.762,180C294.603,180,284.444,180,274.286,180C264.127,180,253.968,180,243.81,180C233.651,180,223.492,180,213.333,180C203.175,180,193.016,180,182.857,180C172.698,180,162.54,180,152.381,180C142.222,180,132.063,180,121.905,180C111.746,180,101.587,180,91.429,180C81.27,180,71.111,180,60.952,180C50.794,180,40.635,180,30.476,180C20.317,180,10.159,180,5.079,180L0,180Z"></path></g><g transform="translate(0, 990)"><path fill="rgb(244, 238, 255)" fill-opacity="1" d="M0,17.798L5.079,22.175C10.159,26.552,20.317,35.307,30.476,43.211C40.635,51.114,50.794,58.167,60.952,52.697C71.111,47.226,81.27,29.232,91.429,20.582C101.587,11.931,111.746,12.624,121.905,19.851C132.063,27.078,142.222,40.84,152.381,48.619C162.54,56.398,172.698,58.195,182.857,61.46C193.016,64.726,203.175,69.461,213.333,64.863C223.492,60.264,233.651,46.333,243.81,36.629C253.968,26.925,264.127,21.45,274.286,26.512C284.444,31.574,294.603,47.173,304.762,45.296C314.921,43.42,325.079,24.067,335.238,17.712C345.397,11.358,355.556,18.002,365.714,17.503C375.873,17.005,386.032,9.363,396.19,12.78C406.349,16.197,416.508,30.674,426.667,40.939C436.825,51.204,446.984,57.259,457.143,50.286C467.302,43.314,477.46,23.314,487.619,16.12C497.778,8.925,507.937,14.536,518.095,19.502C528.254,24.468,538.413,28.789,548.571,27.051C558.73,25.313,568.889,17.516,579.048,16.384C589.206,15.252,599.365,20.785,609.524,23.605C619.683,26.425,629.841,26.532,640,35.264C650.159,43.995,660.317,61.349,670.476,60.862C680.635,60.374,690.794,42.044,700.952,30.982C711.111,19.92,721.27,16.125,731.429,22.712C741.587,29.299,751.746,46.268,761.905,47.246C772.063,48.224,782.222,33.212,792.381,37.573C802.54,41.934,812.698,65.668,822.857,73.005C833.016,80.342,843.175,71.282,853.333,63.218C863.492,55.153,873.651,48.083,883.81,42.136C893.968,36.189,904.127,31.364,914.286,34.481C924.444,37.599,934.603,48.659,944.762,52.846C954.921,57.033,965.079,54.348,975.238,49.977C985.397,45.606,995.556,39.55,1005.714,45.186C1015.873,50.823,1026.032,68.152,1036.19,69.087C1046.349,70.023,1056.508,54.564,1066.667,54.166C1076.825,53.768,1086.984,68.431,1097.143,67.47C1107.302,66.508,1117.46,49.922,1127.619,40.024C1137.778,30.126,1147.937,26.916,1158.095,34.68C1168.254,42.444,1178.413,61.182,1188.571,59.869C1198.73,58.556,1208.889,37.192,1219.048,33.326C1229.206,29.461,1239.365,43.095,1249.524,48.605C1259.683,54.114,1269.841,51.5,1280,56.784C1290.159,62.068,1300.317,75.251,1310.476,73.542C1320.635,71.834,1330.794,55.234,1340.952,41.314C1351.111,27.394,1361.27,16.152,1371.429,19.65C1381.587,23.148,1391.746,41.386,1401.905,49.456C1412.063,57.527,1422.222,55.43,1432.381,48.504C1442.54,41.577,1452.698,29.821,1462.857,24.648C1473.016,19.474,1483.175,20.883,1493.333,21.584C1503.492,22.284,1513.651,22.275,1523.81,26.199C1533.968,30.123,1544.127,37.979,1554.286,48.698C1564.444,59.416,1574.603,72.996,1584.762,67.093C1594.921,61.19,1605.079,35.805,1615.238,33.871C1625.397,31.938,1635.556,53.456,1645.714,60.199C1655.873,66.943,1666.032,58.912,1676.19,52.248C1686.349,45.584,1696.508,40.286,1706.667,34.846C1716.825,29.406,1726.984,23.823,1737.143,28.79C1747.302,33.757,1757.46,49.273,1767.619,50.672C1777.778,52.07,1787.937,39.351,1798.095,32.805C1808.254,26.26,1818.413,25.887,1828.571,34.239C1838.73,42.59,1848.889,59.665,1859.048,69.797C1869.206,79.93,1879.365,83.119,1889.524,77.541C1899.683,71.962,1909.841,57.615,1914.921,50.442L1920,43.269L1920,90L1914.921,90C1909.841,90,1899.683,90,1889.524,90C1879.365,90,1869.206,90,1859.048,90C1848.889,90,1838.73,90,1828.571,90C1818.413,90,1808.254,90,1798.095,90C1787.937,90,1777.778,90,1767.619,90C1757.46,90,1747.302,90,1737.143,90C1726.984,90,1716.825,90,1706.667,90C1696.508,90,1686.349,90,1676.19,90C1666.032,90,1655.873,90,1645.714,90C1635.556,90,1625.397,90,1615.238,90C1605.079,90,1594.921,90,1584.762,90C1574.603,90,1564.444,90,1554.286,90C1544.127,90,1533.968,90,1523.81,90C1513.651,90,1503.492,90,1493.333,90C1483.175,90,1473.016,90,1462.857,90C1452.698,90,1442.54,90,1432.381,90C1422.222,90,1412.063,90,1401.905,90C1391.746,90,1381.587,90,1371.429,90C1361.27,90,1351.111,90,1340.952,90C1330.794,90,1320.635,90,1310.476,90C1300.317,90,1290.159,90,1280,90C1269.841,90,1259.683,90,1249.524,90C1239.365,90,1229.206,90,1219.048,90C1208.889,90,1198.73,90,1188.571,90C1178.413,90,1168.254,90,1158.095,90C1147.937,90,1137.778,90,1127.619,90C1117.46,90,1107.302,90,1097.143,90C1086.984,90,1076.825,90,1066.667,90C1056.508,90,1046.349,90,1036.19,90C1026.032,90,1015.873,90,1005.714,90C995.556,90,985.397,90,975.238,90C965.079,90,954.921,90,944.762,90C934.603,90,924.444,90,914.286,90C904.127,90,893.968,90,883.81,90C873.651,90,863.492,90,853.333,90C843.175,90,833.016,90,822.857,90C812.698,90,802.54,90,792.381,90C782.222,90,772.063,90,761.905,90C751.746,90,741.587,90,731.429,90C721.27,90,711.111,90,700.952,90C690.794,90,680.635,90,670.476,90C660.317,90,650.159,90,640,90C629.841,90,619.683,90,609.524,90C599.365,90,589.206,90,579.048,90C568.889,90,558.73,90,548.571,90C538.413,90,528.254,90,518.095,90C507.937,90,497.778,90,487.619,90C477.46,90,467.302,90,457.143,90C446.984,90,436.825,90,426.667,90C416.508,90,406.349,90,396.19,90C386.032,90,375.873,90,365.714,90C355.556,90,345.397,90,335.238,90C325.079,90,314.921,90,304.762,90C294.603,90,284.444,90,274.286,90C264.127,90,253.968,90,243.81,90C233.651,90,223.492,90,213.333,90C203.175,90,193.016,90,182.857,90C172.698,90,162.54,90,152.381,90C142.222,90,132.063,90,121.905,90C111.746,90,101.587,90,91.429,90C81.27,90,71.111,90,60.952,90C50.794,90,40.635,90,30.476,90C20.317,90,10.159,90,5.079,90L0,90Z"></path></g></g></svg>