<svg xmlns="http://www.w3.org/2000/svg" viewBox="0 0 1920 1080"><g transform="
          rotate(0 960 540) 
          translate(-0 -0)
          scale(1)
        "><rect width="1920" height="1080" fill="rgb(82, 82, 82)"></rect><g transform="translate(0, 0)"><path fill="rgb(75, 75, 75)" fill-opacity="1" d="M0,96.257L5.079,95.475C10.159,94.693,20.317,93.128,30.476,92.886C40.635,92.643,50.794,93.723,60.952,93.844C71.111,93.965,81.27,93.129,91.429,82.686C101.587,72.244,111.746,52.195,121.905,50.502C132.063,48.809,142.222,65.471,152.381,60.364C162.54,55.258,172.698,28.382,182.857,26.858C193.016,25.334,203.175,49.161,213.333,55.096C223.492,61.031,233.651,49.074,243.81,38.006C253.968,26.938,264.127,16.761,274.286,22.014C284.444,27.268,294.603,47.953,304.762,51.683C314.921,55.413,325.079,42.187,335.238,35.567C345.397,28.948,355.556,28.934,365.714,38.529C375.873,48.125,386.032,67.33,396.19,77.645C406.349,87.959,416.508,89.383,426.667,77.639C436.825,65.894,446.984,40.981,457.143,30.715C467.302,20.45,477.46,24.832,487.619,34.438C497.778,44.044,507.937,58.872,518.095,69.363C528.254,79.853,538.413,86.005,548.571,81.958C558.73,77.912,568.889,63.669,579.048,49.176C589.206,34.684,599.365,19.943,609.524,11.827C619.683,3.711,629.841,2.22,640,11.203C650.159,20.186,660.317,39.643,670.476,45.759C680.635,51.874,690.794,44.649,700.952,37.139C711.111,29.63,721.27,21.835,731.429,19.706C741.587,17.577,751.746,21.112,761.905,23.62C772.063,26.128,782.222,27.609,792.381,36.288C802.54,44.967,812.698,60.846,822.857,71.659C833.016,82.472,843.175,88.221,853.333,91.669C863.492,95.117,873.651,96.264,883.81,89.625C893.968,82.985,904.127,68.558,914.286,57.08C924.444,45.602,934.603,37.073,944.762,29.628C954.921,22.184,965.079,15.824,975.238,25.22C985.397,34.616,995.556,59.767,1005.714,74.227C1015.873,88.688,1026.032,92.458,1036.19,94.477C1046.349,96.496,1056.508,96.763,1066.667,91.168C1076.825,85.572,1086.984,74.114,1097.143,66.959C1107.302,59.804,1117.46,56.952,1127.619,51.125C1137.778,45.298,1147.937,36.495,1158.095,43.448C1168.254,50.401,1178.413,73.109,1188.571,82.578C1198.73,92.048,1208.889,88.279,1219.048,87.208C1229.206,86.137,1239.365,87.763,1249.524,85.876C1259.683,83.99,1269.841,78.592,1280,65.124C1290.159,51.657,1300.317,30.121,1310.476,32.7C1320.635,35.279,1330.794,61.973,1340.952,68.038C1351.111,74.103,1361.27,59.538,1371.429,47.154C1381.587,34.769,1391.746,24.564,1401.905,24.354C1412.063,24.144,1422.222,33.928,1432.381,47.562C1442.54,61.196,1452.698,78.68,1462.857,79.729C1473.016,80.778,1483.175,65.391,1493.333,56.324C1503.492,47.256,1513.651,44.509,1523.81,37.208C1533.968,29.907,1544.127,18.053,1554.286,11.985C1564.444,5.917,1574.603,5.636,1584.762,10.974C1594.921,16.311,1605.079,27.267,1615.238,42.116C1625.397,56.964,1635.556,75.705,1645.714,82.059C1655.873,88.414,1666.032,82.382,1676.19,68.877C1686.349,55.372,1696.508,34.394,1706.667,36.975C1716.825,39.556,1726.984,65.697,1737.143,69.781C1747.302,73.864,1757.46,55.89,1767.619,51.677C1777.778,47.465,1787.937,57.014,1798.095,57.602C1808.254,58.19,1818.413,49.818,1828.571,50.801C1838.73,51.785,1848.889,62.124,1859.048,67.154C1869.206,72.183,1879.365,71.903,1889.524,67.079C1899.683,62.255,1909.841,52.887,1914.921,48.203L1920,43.52L1920,1080L1914.921,1080C1909.841,1080,1899.683,1080,1889.524,1080C1879.365,1080,1869.206,1080,1859.048,1080C1848.889,1080,1838.73,1080,1828.571,1080C1818.413,1080,1808.254,1080,1798.095,1080C1787.937,1080,1777.778,1080,1767.619,1080C1757.46,1080,1747.302,1080,1737.143,1080C1726.984,1080,1716.825,1080,1706.667,1080C1696.508,1080,1686.349,1080,1676.19,1080C1666.032,1080,1655.873,1080,1645.714,1080C1635.556,1080,1625.397,1080,1615.238,1080C1605.079,1080,1594.921,1080,1584.762,1080C1574.603,1080,1564.444,1080,1554.286,1080C1544.127,1080,1533.968,1080,1523.81,1080C1513.651,1080,1503.492,1080,1493.333,1080C1483.175,1080,1473.016,1080,1462.857,1080C1452.698,1080,1442.54,1080,1432.381,1080C1422.222,1080,1412.063,1080,1401.905,1080C1391.746,1080,1381.587,1080,1371.429,1080C1361.27,1080,1351.111,1080,1340.952,1080C1330.794,1080,1320.635,1080,1310.476,1080C1300.317,1080,1290.159,1080,1280,1080C1269.841,1080,1259.683,1080,1249.524,1080C1239.365,1080,1229.206,1080,1219.048,1080C1208.889,1080,1198.73,1080,1188.571,1080C1178.413,1080,1168.254,1080,1158.095,1080C1147.937,1080,1137.778,1080,1127.619,1080C1117.46,1080,1107.302,1080,1097.143,1080C1086.984,1080,1076.825,1080,1066.667,1080C1056.508,1080,1046.349,1080,1036.19,1080C1026.032,1080,1015.873,1080,1005.714,1080C995.556,1080,985.397,1080,975.238,1080C965.079,1080,954.921,1080,944.762,1080C934.603,1080,924.444,1080,914.286,1080C904.127,1080,893.968,1080,883.81,1080C873.651,1080,863.492,1080,853.333,1080C843.175,1080,833.016,1080,822.857,1080C812.698,1080,802.54,1080,792.381,1080C782.222,1080,772.063,1080,761.905,1080C751.746,1080,741.587,1080,731.429,1080C721.27,1080,711.111,1080,700.952,1080C690.794,1080,680.635,1080,670.476,1080C660.317,1080,650.159,1080,640,1080C629.841,1080,619.683,1080,609.524,1080C599.365,1080,589.206,1080,579.048,1080C568.889,1080,558.73,1080,548.571,1080C538.413,1080,528.254,1080,518.095,1080C507.937,1080,497.778,1080,487.619,1080C477.46,1080,467.302,1080,457.143,1080C446.984,1080,436.825,1080,426.667,1080C416.508,1080,406.349,1080,396.19,1080C386.032,1080,375.873,1080,365.714,1080C355.556,1080,345.397,1080,335.238,1080C325.079,1080,314.921,1080,304.762,1080C294.603,1080,284.444,1080,274.286,1080C264.127,1080,253.968,1080,243.81,1080C233.651,1080,223.492,1080,213.333,1080C203.175,1080,193.016,1080,182.857,1080C172.698,1080,162.54,1080,152.381,1080C142.222,1080,132.063,1080,121.905,1080C111.746,1080,101.587,1080,91.429,1080C81.27,1080,71.111,1080,60.952,1080C50.794,1080,40.635,1080,30.476,1080C20.317,1080,10.159,1080,5.079,1080L0,1080Z"></path></g><g transform="translate(0, 98.18181818181819)"><path fill="rgb(67, 67, 67)" fill-opacity="1" d="M0,55.404L5.079,55.359C10.159,55.315,20.317,55.226,30.476,54.263C40.635,53.3,50.794,51.461,60.952,49.848C71.111,48.235,81.27,46.847,91.429,40.243C101.587,33.639,111.746,21.82,121.905,14.761C132.063,7.703,142.222,5.407,152.381,8.686C162.54,11.965,172.698,20.821,182.857,26.388C193.016,31.954,203.175,34.233,213.333,34.749C223.492,35.266,233.651,34.02,243.81,36.93C253.968,39.841,264.127,46.907,274.286,51.999C284.444,57.091,294.603,60.209,304.762,65.089C314.921,69.97,325.079,76.613,335.238,75.479C345.397,74.344,355.556,65.432,365.714,56.216C375.873,47,386.032,37.481,396.19,37.718C406.349,37.955,416.508,47.949,426.667,46.362C436.825,44.774,446.984,31.605,457.143,35.179C467.302,38.753,477.46,59.07,487.619,63.059C497.778,67.047,507.937,54.706,518.095,57.455C528.254,60.204,538.413,78.044,548.571,85.563C558.73,93.081,568.889,90.279,579.048,82.413C589.206,74.546,599.365,61.615,609.524,60.822C619.683,60.029,629.841,71.373,640,70.441C650.159,69.509,660.317,56.301,670.476,50.87C680.635,45.439,690.794,47.785,700.952,42.647C711.111,37.509,721.27,24.889,731.429,26.942C741.587,28.995,751.746,45.723,761.905,43.7C772.063,41.677,782.222,20.904,792.381,17.718C802.54,14.533,812.698,28.934,822.857,42.252C833.016,55.569,843.175,67.802,853.333,60.767C863.492,53.731,873.651,27.428,883.81,25.967C893.968,24.507,904.127,47.889,914.286,51.585C924.444,55.28,934.603,39.288,944.762,35.123C954.921,30.957,965.079,38.617,975.238,40.893C985.397,43.169,995.556,40.061,1005.714,45.952C1015.873,51.843,1026.032,66.734,1036.19,61.879C1046.349,57.024,1056.508,32.422,1066.667,30.905C1076.825,29.388,1086.984,50.956,1097.143,58.005C1107.302,65.053,1117.46,57.582,1127.619,60.274C1137.778,62.966,1147.937,75.821,1158.095,75.999C1168.254,76.177,1178.413,63.679,1188.571,49.62C1198.73,35.561,1208.889,19.942,1219.048,18.723C1229.206,17.504,1239.365,30.685,1249.524,44.289C1259.683,57.892,1269.841,71.919,1280,67.95C1290.159,63.981,1300.317,42.017,1310.476,31.408C1320.635,20.8,1330.794,21.546,1340.952,30.438C1351.111,39.331,1361.27,56.37,1371.429,67.634C1381.587,78.899,1391.746,84.389,1401.905,80.19C1412.063,75.992,1422.222,62.105,1432.381,61.073C1442.54,60.042,1452.698,71.866,1462.857,71.527C1473.016,71.189,1483.175,58.687,1493.333,57.757C1503.492,56.826,1513.651,67.466,1523.81,70.015C1533.968,72.564,1544.127,67.021,1554.286,59.385C1564.444,51.748,1574.603,42.016,1584.762,36.404C1594.921,30.792,1605.079,29.299,1615.238,24.694C1625.397,20.089,1635.556,12.372,1645.714,21.749C1655.873,31.125,1666.032,57.595,1676.19,72.364C1686.349,87.134,1696.508,90.202,1706.667,78.863C1716.825,67.524,1726.984,41.777,1737.143,28.691C1747.302,15.606,1757.46,15.182,1767.619,14.085C1777.778,12.989,1787.937,11.22,1798.095,13.754C1808.254,16.287,1818.413,23.122,1828.571,27.253C1838.73,31.384,1848.889,32.811,1859.048,31.491C1869.206,30.172,1879.365,26.106,1889.524,23.754C1899.683,21.401,1909.841,20.762,1914.921,20.442L1920,20.123L1920,981.818L1914.921,981.818C1909.841,981.818,1899.683,981.818,1889.524,981.818C1879.365,981.818,1869.206,981.818,1859.048,981.818C1848.889,981.818,1838.73,981.818,1828.571,981.818C1818.413,981.818,1808.254,981.818,1798.095,981.818C1787.937,981.818,1777.778,981.818,1767.619,981.818C1757.46,981.818,1747.302,981.818,1737.143,981.818C1726.984,981.818,1716.825,981.818,1706.667,981.818C1696.508,981.818,1686.349,981.818,1676.19,981.818C1666.032,981.818,1655.873,981.818,1645.714,981.818C1635.556,981.818,1625.397,981.818,1615.238,981.818C1605.079,981.818,1594.921,981.818,1584.762,981.818C1574.603,981.818,1564.444,981.818,1554.286,981.818C1544.127,981.818,1533.968,981.818,1523.81,981.818C1513.651,981.818,1503.492,981.818,1493.333,981.818C1483.175,981.818,1473.016,981.818,1462.857,981.818C1452.698,981.818,1442.54,981.818,1432.381,981.818C1422.222,981.818,1412.063,981.818,1401.905,981.818C1391.746,981.818,1381.587,981.818,1371.429,981.818C1361.27,981.818,1351.111,981.818,1340.952,981.818C1330.794,981.818,1320.635,981.818,1310.476,981.818C1300.317,981.818,1290.159,981.818,1280,981.818C1269.841,981.818,1259.683,981.818,1249.524,981.818C1239.365,981.818,1229.206,981.818,1219.048,981.818C1208.889,981.818,1198.73,981.818,1188.571,981.818C1178.413,981.818,1168.254,981.818,1158.095,981.818C1147.937,981.818,1137.778,981.818,1127.619,981.818C1117.46,981.818,1107.302,981.818,1097.143,981.818C1086.984,981.818,1076.825,981.818,1066.667,981.818C1056.508,981.818,1046.349,981.818,1036.19,981.818C1026.032,981.818,1015.873,981.818,1005.714,981.818C995.556,981.818,985.397,981.818,975.238,981.818C965.079,981.818,954.921,981.818,944.762,981.818C934.603,981.818,924.444,981.818,914.286,981.818C904.127,981.818,893.968,981.818,883.81,981.818C873.651,981.818,863.492,981.818,853.333,981.818C843.175,981.818,833.016,981.818,822.857,981.818C812.698,981.818,802.54,981.818,792.381,981.818C782.222,981.818,772.063,981.818,761.905,981.818C751.746,981.818,741.587,981.818,731.429,981.818C721.27,981.818,711.111,981.818,700.952,981.818C690.794,981.818,680.635,981.818,670.476,981.818C660.317,981.818,650.159,981.818,640,981.818C629.841,981.818,619.683,981.818,609.524,981.818C599.365,981.818,589.206,981.818,579.048,981.818C568.889,981.818,558.73,981.818,548.571,981.818C538.413,981.818,528.254,981.818,518.095,981.818C507.937,981.818,497.778,981.818,487.619,981.818C477.46,981.818,467.302,981.818,457.143,981.818C446.984,981.818,436.825,981.818,426.667,981.818C416.508,981.818,406.349,981.818,396.19,981.818C386.032,981.818,375.873,981.818,365.714,981.818C355.556,981.818,345.397,981.818,335.238,981.818C325.079,981.818,314.921,981.818,304.762,981.818C294.603,981.818,284.444,981.818,274.286,981.818C264.127,981.818,253.968,981.818,243.81,981.818C233.651,981.818,223.492,981.818,213.333,981.818C203.175,981.818,193.016,981.818,182.857,981.818C172.698,981.818,162.54,981.818,152.381,981.818C142.222,981.818,132.063,981.818,121.905,981.818C111.746,981.818,101.587,981.818,91.429,981.818C81.27,981.818,71.111,981.818,60.952,981.818C50.794,981.818,40.635,981.818,30.476,981.818C20.317,981.818,10.159,981.818,5.079,981.818L0,981.818Z"></path></g><g transform="translate(0, 196.36363636363637)"><path fill="rgb(60, 60, 60)" fill-opacity="1" d="M0,46.877L5.079,49.831C10.159,52.786,20.317,58.695,30.476,67.095C40.635,75.495,50.794,86.386,60.952,78.241C71.111,70.096,81.27,42.914,91.429,29.417C101.587,15.92,111.746,16.108,121.905,16.593C132.063,17.079,142.222,17.861,152.381,28.398C162.54,38.935,172.698,59.227,182.857,65.302C193.016,71.377,203.175,63.236,213.333,59.417C223.492,55.598,233.651,56.102,243.81,52.063C253.968,48.024,264.127,39.442,274.286,45.659C284.444,51.876,294.603,72.891,304.762,67.786C314.921,62.681,325.079,31.455,335.238,21.864C345.397,12.273,355.556,24.316,365.714,25.354C375.873,26.393,386.032,16.426,396.19,21.184C406.349,25.942,416.508,45.425,426.667,51.942C436.825,58.459,446.984,52.009,457.143,42.634C467.302,33.259,477.46,20.959,487.619,21.826C497.778,22.694,507.937,36.729,518.095,42.438C528.254,48.147,538.413,45.529,548.571,50.275C558.73,55.022,568.889,67.134,579.048,65.505C589.206,63.876,599.365,48.507,609.524,42.161C619.683,35.814,629.841,38.491,640,46.539C650.159,54.588,660.317,68.009,670.476,63.498C680.635,58.988,690.794,36.545,700.952,28.667C711.111,20.788,721.27,27.473,731.429,36.356C741.587,45.239,751.746,56.32,761.905,65.21C772.063,74.1,782.222,80.8,792.381,83.722C802.54,86.645,812.698,85.79,822.857,71.505C833.016,57.22,843.175,29.507,853.333,20.634C863.492,11.761,873.651,21.73,883.81,28.024C893.968,34.319,904.127,36.939,914.286,38.614C924.444,40.288,934.603,41.016,944.762,49.235C954.921,57.453,965.079,73.162,975.238,72.817C985.397,72.471,995.556,56.07,1005.714,52.888C1015.873,49.707,1026.032,59.744,1036.19,60.662C1046.349,61.581,1056.508,53.381,1066.667,44.781C1076.825,36.181,1086.984,27.18,1097.143,32.608C1107.302,38.036,1117.46,57.894,1127.619,67.439C1137.778,76.984,1147.937,76.217,1158.095,68.524C1168.254,60.831,1178.413,46.212,1188.571,41.787C1198.73,37.363,1208.889,43.132,1219.048,41.637C1229.206,40.141,1239.365,31.382,1249.524,37.793C1259.683,44.204,1269.841,65.786,1280,75.989C1290.159,86.191,1300.317,85.014,1310.476,78.052C1320.635,71.089,1330.794,58.341,1340.952,58.528C1351.111,58.715,1361.27,71.839,1371.429,74.596C1381.587,77.354,1391.746,69.746,1401.905,60.983C1412.063,52.221,1422.222,42.303,1432.381,47.589C1442.54,52.874,1452.698,73.364,1462.857,74.801C1473.016,76.237,1483.175,58.621,1493.333,52.441C1503.492,46.261,1513.651,51.518,1523.81,49.64C1533.968,47.762,1544.127,38.749,1554.286,45.222C1564.444,51.695,1574.603,73.654,1584.762,81.412C1594.921,89.169,1605.079,82.727,1615.238,72.545C1625.397,62.363,1635.556,48.443,1645.714,42.801C1655.873,37.16,1666.032,39.797,1676.19,42.019C1686.349,44.24,1696.508,46.046,1706.667,48.884C1716.825,51.722,1726.984,55.592,1737.143,55.83C1747.302,56.068,1757.46,52.674,1767.619,49.42C1777.778,46.166,1787.937,43.053,1798.095,47.347C1808.254,51.642,1818.413,63.344,1828.571,66.409C1838.73,69.473,1848.889,63.901,1859.048,54.167C1869.206,44.434,1879.365,30.539,1889.524,26.455C1899.683,22.371,1909.841,28.097,1914.921,30.96L1920,33.823L1920,883.636L1914.921,883.636C1909.841,883.636,1899.683,883.636,1889.524,883.636C1879.365,883.636,1869.206,883.636,1859.048,883.636C1848.889,883.636,1838.73,883.636,1828.571,883.636C1818.413,883.636,1808.254,883.636,1798.095,883.636C1787.937,883.636,1777.778,883.636,1767.619,883.636C1757.46,883.636,1747.302,883.636,1737.143,883.636C1726.984,883.636,1716.825,883.636,1706.667,883.636C1696.508,883.636,1686.349,883.636,1676.19,883.636C1666.032,883.636,1655.873,883.636,1645.714,883.636C1635.556,883.636,1625.397,883.636,1615.238,883.636C1605.079,883.636,1594.921,883.636,1584.762,883.636C1574.603,883.636,1564.444,883.636,1554.286,883.636C1544.127,883.636,1533.968,883.636,1523.81,883.636C1513.651,883.636,1503.492,883.636,1493.333,883.636C1483.175,883.636,1473.016,883.636,1462.857,883.636C1452.698,883.636,1442.54,883.636,1432.381,883.636C1422.222,883.636,1412.063,883.636,1401.905,883.636C1391.746,883.636,1381.587,883.636,1371.429,883.636C1361.27,883.636,1351.111,883.636,1340.952,883.636C1330.794,883.636,1320.635,883.636,1310.476,883.636C1300.317,883.636,1290.159,883.636,1280,883.636C1269.841,883.636,1259.683,883.636,1249.524,883.636C1239.365,883.636,1229.206,883.636,1219.048,883.636C1208.889,883.636,1198.73,883.636,1188.571,883.636C1178.413,883.636,1168.254,883.636,1158.095,883.636C1147.937,883.636,1137.778,883.636,1127.619,883.636C1117.46,883.636,1107.302,883.636,1097.143,883.636C1086.984,883.636,1076.825,883.636,1066.667,883.636C1056.508,883.636,1046.349,883.636,1036.19,883.636C1026.032,883.636,1015.873,883.636,1005.714,883.636C995.556,883.636,985.397,883.636,975.238,883.636C965.079,883.636,954.921,883.636,944.762,883.636C934.603,883.636,924.444,883.636,914.286,883.636C904.127,883.636,893.968,883.636,883.81,883.636C873.651,883.636,863.492,883.636,853.333,883.636C843.175,883.636,833.016,883.636,822.857,883.636C812.698,883.636,802.54,883.636,792.381,883.636C782.222,883.636,772.063,883.636,761.905,883.636C751.746,883.636,741.587,883.636,731.429,883.636C721.27,883.636,711.111,883.636,700.952,883.636C690.794,883.636,680.635,883.636,670.476,883.636C660.317,883.636,650.159,883.636,640,883.636C629.841,883.636,619.683,883.636,609.524,883.636C599.365,883.636,589.206,883.636,579.048,883.636C568.889,883.636,558.73,883.636,548.571,883.636C538.413,883.636,528.254,883.636,518.095,883.636C507.937,883.636,497.778,883.636,487.619,883.636C477.46,883.636,467.302,883.636,457.143,883.636C446.984,883.636,436.825,883.636,426.667,883.636C416.508,883.636,406.349,883.636,396.19,883.636C386.032,883.636,375.873,883.636,365.714,883.636C355.556,883.636,345.397,883.636,335.238,883.636C325.079,883.636,314.921,883.636,304.762,883.636C294.603,883.636,284.444,883.636,274.286,883.636C264.127,883.636,253.968,883.636,243.81,883.636C233.651,883.636,223.492,883.636,213.333,883.636C203.175,883.636,193.016,883.636,182.857,883.636C172.698,883.636,162.54,883.636,152.381,883.636C142.222,883.636,132.063,883.636,121.905,883.636C111.746,883.636,101.587,883.636,91.429,883.636C81.27,883.636,71.111,883.636,60.952,883.636C50.794,883.636,40.635,883.636,30.476,883.636C20.317,883.636,10.159,883.636,5.079,883.636L0,883.636Z"></path></g><g transform="translate(0, 294.5454545454545)"><path fill="rgb(52, 52, 52)" fill-opacity="1" d="M0,38.605L5.079,40.48C10.159,42.355,20.317,46.106,30.476,44.794C40.635,43.482,50.794,37.108,60.952,34.072C71.111,31.037,81.27,31.342,91.429,32.359C101.587,33.376,111.746,35.105,121.905,35.132C132.063,35.159,142.222,33.484,152.381,37.874C162.54,42.264,172.698,52.718,182.857,50.393C193.016,48.067,203.175,32.961,213.333,27.553C223.492,22.145,233.651,26.435,243.81,33.541C253.968,40.647,264.127,50.571,274.286,50.057C284.444,49.543,294.603,38.592,304.762,33.478C314.921,28.364,325.079,29.086,335.238,38.448C345.397,47.811,355.556,65.814,365.714,66.491C375.873,67.168,386.032,50.518,396.19,37.708C406.349,24.898,416.508,15.927,426.667,17.735C436.825,19.543,446.984,32.129,457.143,42.611C467.302,53.094,477.46,61.472,487.619,70.043C497.778,78.614,507.937,87.378,518.095,77.685C528.254,67.992,538.413,39.841,548.571,39.438C558.73,39.035,568.889,66.378,579.048,72.945C589.206,79.512,599.365,65.302,609.524,52.248C619.683,39.193,629.841,27.293,640,19.954C650.159,12.614,660.317,9.835,670.476,13.13C680.635,16.425,690.794,25.793,700.952,39.924C711.111,54.054,721.27,72.946,731.429,67.086C741.587,61.227,751.746,30.617,761.905,18.239C772.063,5.861,782.222,11.716,792.381,25.038C802.54,38.361,812.698,59.151,822.857,70.879C833.016,82.606,843.175,85.271,853.333,79.64C863.492,74.008,873.651,60.08,883.81,51.165C893.968,42.251,904.127,38.351,914.286,30.853C924.444,23.356,934.603,12.26,944.762,15.413C954.921,18.566,965.079,35.968,975.238,36.008C985.397,36.049,995.556,18.727,1005.714,25.892C1015.873,33.056,1026.032,64.705,1036.19,65.191C1046.349,65.676,1056.508,34.997,1066.667,26.04C1076.825,17.084,1086.984,29.85,1097.143,35.731C1107.302,41.612,1117.46,40.607,1127.619,39.212C1137.778,37.818,1147.937,36.034,1158.095,34.556C1168.254,33.077,1178.413,31.905,1188.571,39.311C1198.73,46.718,1208.889,62.703,1219.048,59.054C1229.206,55.404,1239.365,32.12,1249.524,28.955C1259.683,25.789,1269.841,42.742,1280,53.686C1290.159,64.629,1300.317,69.564,1310.476,63.78C1320.635,57.995,1330.794,41.492,1340.952,32.702C1351.111,23.912,1361.27,22.836,1371.429,23.217C1381.587,23.598,1391.746,25.436,1401.905,24.285C1412.063,23.133,1422.222,18.992,1432.381,19.309C1442.54,19.625,1452.698,24.399,1462.857,36.381C1473.016,48.363,1483.175,67.552,1493.333,75.512C1503.492,83.472,1513.651,80.202,1523.81,70.253C1533.968,60.304,1544.127,43.676,1554.286,40.814C1564.444,37.952,1574.603,48.857,1584.762,51.155C1594.921,53.454,1605.079,47.148,1615.238,47.028C1625.397,46.909,1635.556,52.977,1645.714,58.776C1655.873,64.575,1666.032,70.103,1676.19,75.729C1686.349,81.355,1696.508,87.078,1706.667,83.527C1716.825,79.976,1726.984,67.151,1737.143,52.296C1747.302,37.441,1757.46,20.556,1767.619,22.854C1777.778,25.151,1787.937,46.631,1798.095,61.866C1808.254,77.102,1818.413,86.093,1828.571,79.415C1838.73,72.736,1848.889,50.387,1859.048,46.428C1869.206,42.47,1879.365,56.901,1889.524,61.862C1899.683,66.822,1909.841,62.312,1914.921,60.057L1920,57.802L1920,785.455L1914.921,785.455C1909.841,785.455,1899.683,785.455,1889.524,785.455C1879.365,785.455,1869.206,785.455,1859.048,785.455C1848.889,785.455,1838.73,785.455,1828.571,785.455C1818.413,785.455,1808.254,785.455,1798.095,785.455C1787.937,785.455,1777.778,785.455,1767.619,785.455C1757.46,785.455,1747.302,785.455,1737.143,785.455C1726.984,785.455,1716.825,785.455,1706.667,785.455C1696.508,785.455,1686.349,785.455,1676.19,785.455C1666.032,785.455,1655.873,785.455,1645.714,785.455C1635.556,785.455,1625.397,785.455,1615.238,785.455C1605.079,785.455,1594.921,785.455,1584.762,785.455C1574.603,785.455,1564.444,785.455,1554.286,785.455C1544.127,785.455,1533.968,785.455,1523.81,785.455C1513.651,785.455,1503.492,785.455,1493.333,785.455C1483.175,785.455,1473.016,785.455,1462.857,785.455C1452.698,785.455,1442.54,785.455,1432.381,785.455C1422.222,785.455,1412.063,785.455,1401.905,785.455C1391.746,785.455,1381.587,785.455,1371.429,785.455C1361.27,785.455,1351.111,785.455,1340.952,785.455C1330.794,785.455,1320.635,785.455,1310.476,785.455C1300.317,785.455,1290.159,785.455,1280,785.455C1269.841,785.455,1259.683,785.455,1249.524,785.455C1239.365,785.455,1229.206,785.455,1219.048,785.455C1208.889,785.455,1198.73,785.455,1188.571,785.455C1178.413,785.455,1168.254,785.455,1158.095,785.455C1147.937,785.455,1137.778,785.455,1127.619,785.455C1117.46,785.455,1107.302,785.455,1097.143,785.455C1086.984,785.455,1076.825,785.455,1066.667,785.455C1056.508,785.455,1046.349,785.455,1036.19,785.455C1026.032,785.455,1015.873,785.455,1005.714,785.455C995.556,785.455,985.397,785.455,975.238,785.455C965.079,785.455,954.921,785.455,944.762,785.455C934.603,785.455,924.444,785.455,914.286,785.455C904.127,785.455,893.968,785.455,883.81,785.455C873.651,785.455,863.492,785.455,853.333,785.455C843.175,785.455,833.016,785.455,822.857,785.455C812.698,785.455,802.54,785.455,792.381,785.455C782.222,785.455,772.063,785.455,761.905,785.455C751.746,785.455,741.587,785.455,731.429,785.455C721.27,785.455,711.111,785.455,700.952,785.455C690.794,785.455,680.635,785.455,670.476,785.455C660.317,785.455,650.159,785.455,640,785.455C629.841,785.455,619.683,785.455,609.524,785.455C599.365,785.455,589.206,785.455,579.048,785.455C568.889,785.455,558.73,785.455,548.571,785.455C538.413,785.455,528.254,785.455,518.095,785.455C507.937,785.455,497.778,785.455,487.619,785.455C477.46,785.455,467.302,785.455,457.143,785.455C446.984,785.455,436.825,785.455,426.667,785.455C416.508,785.455,406.349,785.455,396.19,785.455C386.032,785.455,375.873,785.455,365.714,785.455C355.556,785.455,345.397,785.455,335.238,785.455C325.079,785.455,314.921,785.455,304.762,785.455C294.603,785.455,284.444,785.455,274.286,785.455C264.127,785.455,253.968,785.455,243.81,785.455C233.651,785.455,223.492,785.455,213.333,785.455C203.175,785.455,193.016,785.455,182.857,785.455C172.698,785.455,162.54,785.455,152.381,785.455C142.222,785.455,132.063,785.455,121.905,785.455C111.746,785.455,101.587,785.455,91.429,785.455C81.27,785.455,71.111,785.455,60.952,785.455C50.794,785.455,40.635,785.455,30.476,785.455C20.317,785.455,10.159,785.455,5.079,785.455L0,785.455Z"></path></g><g transform="translate(0, 392.72727272727275)"><path fill="rgb(45, 45, 45)" fill-opacity="1" d="M0,81.338L5.079,78.899C10.159,76.459,20.317,71.581,30.476,73.852C40.635,76.124,50.794,85.545,60.952,85.825C71.111,86.105,81.27,77.243,91.429,63.773C101.587,50.304,111.746,32.227,121.905,34.301C132.063,36.375,142.222,58.601,152.381,67.388C162.54,76.176,172.698,71.524,182.857,73.657C193.016,75.79,203.175,84.708,213.333,79.564C223.492,74.419,233.651,55.213,243.81,43.509C253.968,31.804,264.127,27.601,274.286,24.754C284.444,21.907,294.603,20.416,304.762,19.299C314.921,18.182,325.079,17.44,335.238,20.947C345.397,24.454,355.556,32.21,365.714,30.219C375.873,28.228,386.032,16.49,396.19,10.291C406.349,4.093,416.508,3.434,426.667,13.957C436.825,24.48,446.984,46.184,457.143,57.77C467.302,69.356,477.46,70.823,487.619,74.188C497.778,77.553,507.937,82.816,518.095,70.845C528.254,58.874,538.413,29.67,548.571,21.537C558.73,13.404,568.889,26.342,579.048,36.112C589.206,45.883,599.365,52.486,609.524,46.089C619.683,39.693,629.841,20.297,640,22.396C650.159,24.496,660.317,48.091,670.476,52.552C680.635,57.013,690.794,42.34,700.952,44.628C711.111,46.916,721.27,66.166,731.429,75.667C741.587,85.167,751.746,84.92,761.905,72.851C772.063,60.782,782.222,36.892,792.381,25.065C802.54,13.238,812.698,13.475,822.857,17.381C833.016,21.287,843.175,28.863,853.333,33.783C863.492,38.703,873.651,40.968,883.81,36.384C893.968,31.801,904.127,20.369,914.286,27.362C924.444,34.355,934.603,59.773,944.762,58.565C954.921,57.357,965.079,29.525,975.238,31.249C985.397,32.973,995.556,64.254,1005.714,74.659C1015.873,85.063,1026.032,74.592,1036.19,60.673C1046.349,46.754,1056.508,29.387,1066.667,26.946C1076.825,24.504,1086.984,36.988,1097.143,42.916C1107.302,48.843,1117.46,48.215,1127.619,42.46C1137.778,36.705,1147.937,25.823,1158.095,30.899C1168.254,35.975,1178.413,57.008,1188.571,62.311C1198.73,67.614,1208.889,57.187,1219.048,56.753C1229.206,56.319,1239.365,65.878,1249.524,73.014C1259.683,80.15,1269.841,84.862,1280,83.551C1290.159,82.241,1300.317,74.908,1310.476,72.768C1320.635,70.627,1330.794,73.679,1340.952,68.982C1351.111,64.285,1361.27,51.838,1371.429,43.549C1381.587,35.259,1391.746,31.125,1401.905,38.716C1412.063,46.308,1422.222,65.623,1432.381,68.226C1442.54,70.828,1452.698,56.717,1462.857,49.126C1473.016,41.534,1483.175,40.462,1493.333,45.659C1503.492,50.857,1513.651,62.324,1523.81,60.128C1533.968,57.933,1544.127,42.076,1554.286,34.132C1564.444,26.188,1574.603,26.157,1584.762,26.456C1594.921,26.755,1605.079,27.383,1615.238,32.477C1625.397,37.571,1635.556,47.132,1645.714,51.458C1655.873,55.785,1666.032,54.878,1676.19,51.767C1686.349,48.656,1696.508,43.341,1706.667,35.796C1716.825,28.25,1726.984,18.475,1737.143,24.948C1747.302,31.421,1757.46,54.143,1767.619,53.768C1777.778,53.392,1787.937,29.919,1798.095,24.772C1808.254,19.625,1818.413,32.804,1828.571,44.413C1838.73,56.022,1848.889,66.061,1859.048,69.483C1869.206,72.906,1879.365,69.712,1889.524,70.015C1899.683,70.318,1909.841,74.117,1914.921,76.017L1920,77.916L1920,687.273L1914.921,687.273C1909.841,687.273,1899.683,687.273,1889.524,687.273C1879.365,687.273,1869.206,687.273,1859.048,687.273C1848.889,687.273,1838.73,687.273,1828.571,687.273C1818.413,687.273,1808.254,687.273,1798.095,687.273C1787.937,687.273,1777.778,687.273,1767.619,687.273C1757.46,687.273,1747.302,687.273,1737.143,687.273C1726.984,687.273,1716.825,687.273,1706.667,687.273C1696.508,687.273,1686.349,687.273,1676.19,687.273C1666.032,687.273,1655.873,687.273,1645.714,687.273C1635.556,687.273,1625.397,687.273,1615.238,687.273C1605.079,687.273,1594.921,687.273,1584.762,687.273C1574.603,687.273,1564.444,687.273,1554.286,687.273C1544.127,687.273,1533.968,687.273,1523.81,687.273C1513.651,687.273,1503.492,687.273,1493.333,687.273C1483.175,687.273,1473.016,687.273,1462.857,687.273C1452.698,687.273,1442.54,687.273,1432.381,687.273C1422.222,687.273,1412.063,687.273,1401.905,687.273C1391.746,687.273,1381.587,687.273,1371.429,687.273C1361.27,687.273,1351.111,687.273,1340.952,687.273C1330.794,687.273,1320.635,687.273,1310.476,687.273C1300.317,687.273,1290.159,687.273,1280,687.273C1269.841,687.273,1259.683,687.273,1249.524,687.273C1239.365,687.273,1229.206,687.273,1219.048,687.273C1208.889,687.273,1198.73,687.273,1188.571,687.273C1178.413,687.273,1168.254,687.273,1158.095,687.273C1147.937,687.273,1137.778,687.273,1127.619,687.273C1117.46,687.273,1107.302,687.273,1097.143,687.273C1086.984,687.273,1076.825,687.273,1066.667,687.273C1056.508,687.273,1046.349,687.273,1036.19,687.273C1026.032,687.273,1015.873,687.273,1005.714,687.273C995.556,687.273,985.397,687.273,975.238,687.273C965.079,687.273,954.921,687.273,944.762,687.273C934.603,687.273,924.444,687.273,914.286,687.273C904.127,687.273,893.968,687.273,883.81,687.273C873.651,687.273,863.492,687.273,853.333,687.273C843.175,687.273,833.016,687.273,822.857,687.273C812.698,687.273,802.54,687.273,792.381,687.273C782.222,687.273,772.063,687.273,761.905,687.273C751.746,687.273,741.587,687.273,731.429,687.273C721.27,687.273,711.111,687.273,700.952,687.273C690.794,687.273,680.635,687.273,670.476,687.273C660.317,687.273,650.159,687.273,640,687.273C629.841,687.273,619.683,687.273,609.524,687.273C599.365,687.273,589.206,687.273,579.048,687.273C568.889,687.273,558.73,687.273,548.571,687.273C538.413,687.273,528.254,687.273,518.095,687.273C507.937,687.273,497.778,687.273,487.619,687.273C477.46,687.273,467.302,687.273,457.143,687.273C446.984,687.273,436.825,687.273,426.667,687.273C416.508,687.273,406.349,687.273,396.19,687.273C386.032,687.273,375.873,687.273,365.714,687.273C355.556,687.273,345.397,687.273,335.238,687.273C325.079,687.273,314.921,687.273,304.762,687.273C294.603,687.273,284.444,687.273,274.286,687.273C264.127,687.273,253.968,687.273,243.81,687.273C233.651,687.273,223.492,687.273,213.333,687.273C203.175,687.273,193.016,687.273,182.857,687.273C172.698,687.273,162.54,687.273,152.381,687.273C142.222,687.273,132.063,687.273,121.905,687.273C111.746,687.273,101.587,687.273,91.429,687.273C81.27,687.273,71.111,687.273,60.952,687.273C50.794,687.273,40.635,687.273,30.476,687.273C20.317,687.273,10.159,687.273,5.079,687.273L0,687.273Z"></path></g><g transform="translate(0, 490.9090909090909)"><path fill="rgb(37, 37, 37)" fill-opacity="1" d="M0,76.251L5.079,64.42C10.159,52.588,20.317,28.925,30.476,29.118C40.635,29.31,50.794,53.359,60.952,54.936C71.111,56.514,81.27,35.62,91.429,31.166C101.587,26.713,111.746,38.701,121.905,49.937C132.063,61.174,142.222,71.661,152.381,65.989C162.54,60.316,172.698,38.485,182.857,35.46C193.016,32.436,203.175,48.217,213.333,57.869C223.492,67.52,233.651,71.043,243.81,67.71C253.968,64.378,264.127,54.189,274.286,47.574C284.444,40.958,294.603,37.916,304.762,33.175C314.921,28.434,325.079,21.993,335.238,31.571C345.397,41.148,355.556,66.744,365.714,73.15C375.873,79.556,386.032,66.774,396.19,52.734C406.349,38.694,416.508,23.397,426.667,24.552C436.825,25.707,446.984,43.314,457.143,54.017C467.302,64.719,477.46,68.516,487.619,71.797C497.778,75.078,507.937,77.842,518.095,77.91C528.254,77.978,538.413,75.35,548.571,64.798C558.73,54.246,568.889,35.77,579.048,35.256C589.206,34.743,599.365,52.192,609.524,53.905C619.683,55.618,629.841,41.597,640,35.302C650.159,29.008,660.317,30.441,670.476,32.835C680.635,35.228,690.794,38.582,700.952,47.768C711.111,56.953,721.27,71.972,731.429,73.839C741.587,75.707,751.746,64.423,761.905,51.462C772.063,38.501,782.222,23.861,792.381,28.845C802.54,33.83,812.698,58.438,822.857,59.114C833.016,59.79,843.175,36.534,853.333,34.413C863.492,32.293,873.651,51.309,883.81,65.049C893.968,78.789,904.127,87.254,914.286,88.202C924.444,89.149,934.603,82.579,944.762,68.185C954.921,53.791,965.079,31.573,975.238,31.045C985.397,30.516,995.556,51.677,1005.714,56.983C1015.873,62.289,1026.032,51.741,1036.19,53.024C1046.349,54.307,1056.508,67.422,1066.667,70.28C1076.825,73.139,1086.984,65.741,1097.143,60.951C1107.302,56.16,1117.46,53.976,1127.619,54.659C1137.778,55.342,1147.937,58.891,1158.095,64.28C1168.254,69.67,1178.413,76.899,1188.571,71.913C1198.73,66.926,1208.889,49.723,1219.048,35.75C1229.206,21.776,1239.365,11.032,1249.524,14.309C1259.683,17.585,1269.841,34.882,1280,46.283C1290.159,57.684,1300.317,63.188,1310.476,61.535C1320.635,59.881,1330.794,51.069,1340.952,49.729C1351.111,48.389,1361.27,54.522,1371.429,55.381C1381.587,56.241,1391.746,51.827,1401.905,48.106C1412.063,44.384,1422.222,41.355,1432.381,48.247C1442.54,55.138,1452.698,71.951,1462.857,79.445C1473.016,86.939,1483.175,85.114,1493.333,77.679C1503.492,70.243,1513.651,57.197,1523.81,56.638C1533.968,56.08,1544.127,68.01,1554.286,60.969C1564.444,53.929,1574.603,27.917,1584.762,17.273C1594.921,6.629,1605.079,11.353,1615.238,21.81C1625.397,32.266,1635.556,48.455,1645.714,60.564C1655.873,72.673,1666.032,80.702,1676.19,83.353C1686.349,86.005,1696.508,83.279,1706.667,74.269C1716.825,65.259,1726.984,49.964,1737.143,44.754C1747.302,39.544,1757.46,44.419,1767.619,53.343C1777.778,62.266,1787.937,75.238,1798.095,76.343C1808.254,77.448,1818.413,66.686,1828.571,52.583C1838.73,38.479,1848.889,21.033,1859.048,14.228C1869.206,7.423,1879.365,11.259,1889.524,23.21C1899.683,35.162,1909.841,55.229,1914.921,65.263L1920,75.297L1920,589.091L1914.921,589.091C1909.841,589.091,1899.683,589.091,1889.524,589.091C1879.365,589.091,1869.206,589.091,1859.048,589.091C1848.889,589.091,1838.73,589.091,1828.571,589.091C1818.413,589.091,1808.254,589.091,1798.095,589.091C1787.937,589.091,1777.778,589.091,1767.619,589.091C1757.46,589.091,1747.302,589.091,1737.143,589.091C1726.984,589.091,1716.825,589.091,1706.667,589.091C1696.508,589.091,1686.349,589.091,1676.19,589.091C1666.032,589.091,1655.873,589.091,1645.714,589.091C1635.556,589.091,1625.397,589.091,1615.238,589.091C1605.079,589.091,1594.921,589.091,1584.762,589.091C1574.603,589.091,1564.444,589.091,1554.286,589.091C1544.127,589.091,1533.968,589.091,1523.81,589.091C1513.651,589.091,1503.492,589.091,1493.333,589.091C1483.175,589.091,1473.016,589.091,1462.857,589.091C1452.698,589.091,1442.54,589.091,1432.381,589.091C1422.222,589.091,1412.063,589.091,1401.905,589.091C1391.746,589.091,1381.587,589.091,1371.429,589.091C1361.27,589.091,1351.111,589.091,1340.952,589.091C1330.794,589.091,1320.635,589.091,1310.476,589.091C1300.317,589.091,1290.159,589.091,1280,589.091C1269.841,589.091,1259.683,589.091,1249.524,589.091C1239.365,589.091,1229.206,589.091,1219.048,589.091C1208.889,589.091,1198.73,589.091,1188.571,589.091C1178.413,589.091,1168.254,589.091,1158.095,589.091C1147.937,589.091,1137.778,589.091,1127.619,589.091C1117.46,589.091,1107.302,589.091,1097.143,589.091C1086.984,589.091,1076.825,589.091,1066.667,589.091C1056.508,589.091,1046.349,589.091,1036.19,589.091C1026.032,589.091,1015.873,589.091,1005.714,589.091C995.556,589.091,985.397,589.091,975.238,589.091C965.079,589.091,954.921,589.091,944.762,589.091C934.603,589.091,924.444,589.091,914.286,589.091C904.127,589.091,893.968,589.091,883.81,589.091C873.651,589.091,863.492,589.091,853.333,589.091C843.175,589.091,833.016,589.091,822.857,589.091C812.698,589.091,802.54,589.091,792.381,589.091C782.222,589.091,772.063,589.091,761.905,589.091C751.746,589.091,741.587,589.091,731.429,589.091C721.27,589.091,711.111,589.091,700.952,589.091C690.794,589.091,680.635,589.091,670.476,589.091C660.317,589.091,650.159,589.091,640,589.091C629.841,589.091,619.683,589.091,609.524,589.091C599.365,589.091,589.206,589.091,579.048,589.091C568.889,589.091,558.73,589.091,548.571,589.091C538.413,589.091,528.254,589.091,518.095,589.091C507.937,589.091,497.778,589.091,487.619,589.091C477.46,589.091,467.302,589.091,457.143,589.091C446.984,589.091,436.825,589.091,426.667,589.091C416.508,589.091,406.349,589.091,396.19,589.091C386.032,589.091,375.873,589.091,365.714,589.091C355.556,589.091,345.397,589.091,335.238,589.091C325.079,589.091,314.921,589.091,304.762,589.091C294.603,589.091,284.444,589.091,274.286,589.091C264.127,589.091,253.968,589.091,243.81,589.091C233.651,589.091,223.492,589.091,213.333,589.091C203.175,589.091,193.016,589.091,182.857,589.091C172.698,589.091,162.54,589.091,152.381,589.091C142.222,589.091,132.063,589.091,121.905,589.091C111.746,589.091,101.587,589.091,91.429,589.091C81.27,589.091,71.111,589.091,60.952,589.091C50.794,589.091,40.635,589.091,30.476,589.091C20.317,589.091,10.159,589.091,5.079,589.091L0,589.091Z"></path></g><g transform="translate(0, 589.090909090909)"><path fill="rgb(30, 30, 30)" fill-opacity="1" d="M0,40.352L5.079,46.869C10.159,53.386,20.317,66.421,30.476,74.352C40.635,82.284,50.794,85.113,60.952,77.335C71.111,69.557,81.27,51.172,91.429,50.757C101.587,50.341,111.746,67.895,121.905,75.812C132.063,83.73,142.222,82.01,152.381,77.66C162.54,73.309,172.698,66.327,182.857,60.366C193.016,54.404,203.175,49.462,213.333,39.67C223.492,29.878,233.651,15.235,243.81,20.105C253.968,24.976,264.127,49.36,274.286,50.044C284.444,50.728,294.603,27.711,304.762,28.529C314.921,29.347,325.079,54,335.238,65.343C345.397,76.686,355.556,74.719,365.714,65.606C375.873,56.493,386.032,40.235,396.19,31.433C406.349,22.631,416.508,21.285,426.667,30.864C436.825,40.443,446.984,60.947,457.143,69.29C467.302,77.633,477.46,73.816,487.619,71.279C497.778,68.742,507.937,67.485,518.095,66.063C528.254,64.641,538.413,63.054,548.571,57.478C558.73,51.901,568.889,42.335,579.048,37.927C589.206,33.519,599.365,34.269,609.524,31.204C619.683,28.138,629.841,21.258,640,24.858C650.159,28.458,660.317,42.538,670.476,42.283C680.635,42.028,690.794,27.437,700.952,29.212C711.111,30.987,721.27,49.129,731.429,51.688C741.587,54.247,751.746,41.224,761.905,43.49C772.063,45.755,782.222,63.309,792.381,70.386C802.54,77.463,812.698,74.065,822.857,75.198C833.016,76.33,843.175,81.995,853.333,73.786C863.492,65.576,873.651,43.492,883.81,33.612C893.968,23.732,904.127,26.056,914.286,24.391C924.444,22.726,934.603,17.072,944.762,20C954.921,22.928,965.079,34.438,975.238,43.779C985.397,53.119,995.556,60.29,1005.714,61.318C1015.873,62.346,1026.032,57.23,1036.19,58.27C1046.349,59.311,1056.508,66.507,1066.667,64.108C1076.825,61.708,1086.984,49.714,1097.143,39.552C1107.302,29.391,1117.46,21.063,1127.619,18.543C1137.778,16.024,1147.937,19.313,1158.095,30.772C1168.254,42.231,1178.413,61.859,1188.571,66.784C1198.73,71.708,1208.889,61.929,1219.048,64.03C1229.206,66.131,1239.365,80.113,1249.524,81.56C1259.683,83.008,1269.841,71.921,1280,71.998C1290.159,72.076,1300.317,83.318,1310.476,86.17C1320.635,89.022,1330.794,83.484,1340.952,76.257C1351.111,69.031,1361.27,60.115,1371.429,54.638C1381.587,49.161,1391.746,47.123,1401.905,44.406C1412.063,41.689,1422.222,38.293,1432.381,32.562C1442.54,26.831,1452.698,18.767,1462.857,13.096C1473.016,7.426,1483.175,4.151,1493.333,15.9C1503.492,27.65,1513.651,54.425,1523.81,60.654C1533.968,66.883,1544.127,52.565,1554.286,39.556C1564.444,26.546,1574.603,14.844,1584.762,22.367C1594.921,29.89,1605.079,56.639,1615.238,71.296C1625.397,85.953,1635.556,88.518,1645.714,75.887C1655.873,63.256,1666.032,35.428,1676.19,21.963C1686.349,8.498,1696.508,9.395,1706.667,11.638C1716.825,13.882,1726.984,17.473,1737.143,30.331C1747.302,43.189,1757.46,65.314,1767.619,76.249C1777.778,87.184,1787.937,86.928,1798.095,82.832C1808.254,78.736,1818.413,70.8,1828.571,65.111C1838.73,59.422,1848.889,55.98,1859.048,53.254C1869.206,50.529,1879.365,48.519,1889.524,41.802C1899.683,35.085,1909.841,23.662,1914.921,17.95L1920,12.238L1920,490.909L1914.921,490.909C1909.841,490.909,1899.683,490.909,1889.524,490.909C1879.365,490.909,1869.206,490.909,1859.048,490.909C1848.889,490.909,1838.73,490.909,1828.571,490.909C1818.413,490.909,1808.254,490.909,1798.095,490.909C1787.937,490.909,1777.778,490.909,1767.619,490.909C1757.46,490.909,1747.302,490.909,1737.143,490.909C1726.984,490.909,1716.825,490.909,1706.667,490.909C1696.508,490.909,1686.349,490.909,1676.19,490.909C1666.032,490.909,1655.873,490.909,1645.714,490.909C1635.556,490.909,1625.397,490.909,1615.238,490.909C1605.079,490.909,1594.921,490.909,1584.762,490.909C1574.603,490.909,1564.444,490.909,1554.286,490.909C1544.127,490.909,1533.968,490.909,1523.81,490.909C1513.651,490.909,1503.492,490.909,1493.333,490.909C1483.175,490.909,1473.016,490.909,1462.857,490.909C1452.698,490.909,1442.54,490.909,1432.381,490.909C1422.222,490.909,1412.063,490.909,1401.905,490.909C1391.746,490.909,1381.587,490.909,1371.429,490.909C1361.27,490.909,1351.111,490.909,1340.952,490.909C1330.794,490.909,1320.635,490.909,1310.476,490.909C1300.317,490.909,1290.159,490.909,1280,490.909C1269.841,490.909,1259.683,490.909,1249.524,490.909C1239.365,490.909,1229.206,490.909,1219.048,490.909C1208.889,490.909,1198.73,490.909,1188.571,490.909C1178.413,490.909,1168.254,490.909,1158.095,490.909C1147.937,490.909,1137.778,490.909,1127.619,490.909C1117.46,490.909,1107.302,490.909,1097.143,490.909C1086.984,490.909,1076.825,490.909,1066.667,490.909C1056.508,490.909,1046.349,490.909,1036.19,490.909C1026.032,490.909,1015.873,490.909,1005.714,490.909C995.556,490.909,985.397,490.909,975.238,490.909C965.079,490.909,954.921,490.909,944.762,490.909C934.603,490.909,924.444,490.909,914.286,490.909C904.127,490.909,893.968,490.909,883.81,490.909C873.651,490.909,863.492,490.909,853.333,490.909C843.175,490.909,833.016,490.909,822.857,490.909C812.698,490.909,802.54,490.909,792.381,490.909C782.222,490.909,772.063,490.909,761.905,490.909C751.746,490.909,741.587,490.909,731.429,490.909C721.27,490.909,711.111,490.909,700.952,490.909C690.794,490.909,680.635,490.909,670.476,490.909C660.317,490.909,650.159,490.909,640,490.909C629.841,490.909,619.683,490.909,609.524,490.909C599.365,490.909,589.206,490.909,579.048,490.909C568.889,490.909,558.73,490.909,548.571,490.909C538.413,490.909,528.254,490.909,518.095,490.909C507.937,490.909,497.778,490.909,487.619,490.909C477.46,490.909,467.302,490.909,457.143,490.909C446.984,490.909,436.825,490.909,426.667,490.909C416.508,490.909,406.349,490.909,396.19,490.909C386.032,490.909,375.873,490.909,365.714,490.909C355.556,490.909,345.397,490.909,335.238,490.909C325.079,490.909,314.921,490.909,304.762,490.909C294.603,490.909,284.444,490.909,274.286,490.909C264.127,490.909,253.968,490.909,243.81,490.909C233.651,490.909,223.492,490.909,213.333,490.909C203.175,490.909,193.016,490.909,182.857,490.909C172.698,490.909,162.54,490.909,152.381,490.909C142.222,490.909,132.063,490.909,121.905,490.909C111.746,490.909,101.587,490.909,91.429,490.909C81.27,490.909,71.111,490.909,60.952,490.909C50.794,490.909,40.635,490.909,30.476,490.909C20.317,490.909,10.159,490.909,5.079,490.909L0,490.909Z"></path></g><g transform="translate(0, 687.2727272727273)"><path fill="rgb(22, 22, 22)" fill-opacity="1" d="M0,75.179L5.079,72.731C10.159,70.284,20.317,65.388,30.476,55.434C40.635,45.479,50.794,30.466,60.952,25.878C71.111,21.29,81.27,27.128,91.429,25.002C101.587,22.876,111.746,12.786,121.905,10.42C132.063,8.053,142.222,13.411,152.381,14.468C162.54,15.526,172.698,12.283,182.857,24.056C193.016,35.829,203.175,62.618,213.333,77.29C223.492,91.963,233.651,94.519,243.81,88.05C253.968,81.581,264.127,66.087,274.286,52.508C284.444,38.93,294.603,27.267,304.762,33.133C314.921,38.998,325.079,62.391,335.238,75.035C345.397,87.678,355.556,89.571,365.714,83.668C375.873,77.765,386.032,64.065,396.19,53.393C406.349,42.72,416.508,35.076,426.667,27.216C436.825,19.357,446.984,11.284,457.143,12.765C467.302,14.247,477.46,25.283,487.619,25.655C497.778,26.027,507.937,15.735,518.095,17.369C528.254,19.003,538.413,32.562,548.571,34.803C558.73,37.044,568.889,27.966,579.048,22.65C589.206,17.334,599.365,15.781,609.524,26.256C619.683,36.732,629.841,59.236,640,71.122C650.159,83.008,660.317,84.276,670.476,73.108C680.635,61.94,690.794,38.336,700.952,28.938C711.111,19.54,721.27,24.349,731.429,24.491C741.587,24.634,751.746,20.11,761.905,19.206C772.063,18.302,782.222,21.018,792.381,20.538C802.54,20.058,812.698,16.383,822.857,22.013C833.016,27.644,843.175,42.579,853.333,50.939C863.492,59.298,873.651,61.082,883.81,60.512C893.968,59.941,904.127,57.018,914.286,59.107C924.444,61.196,934.603,68.299,944.762,74.021C954.921,79.744,965.079,84.087,975.238,74.402C985.397,64.718,995.556,41.006,1005.714,35.271C1015.873,29.536,1026.032,41.779,1036.19,42.727C1046.349,43.676,1056.508,33.331,1066.667,33.017C1076.825,32.704,1086.984,42.421,1097.143,47.923C1107.302,53.425,1117.46,54.711,1127.619,49.185C1137.778,43.659,1147.937,31.32,1158.095,29.191C1168.254,27.062,1178.413,35.144,1188.571,47.726C1198.73,60.308,1208.889,77.39,1219.048,79.251C1229.206,81.112,1239.365,67.752,1249.524,60.345C1259.683,52.939,1269.841,51.485,1280,54.499C1290.159,57.513,1300.317,64.994,1310.476,59.367C1320.635,53.74,1330.794,35.004,1340.952,29.73C1351.111,24.455,1361.27,32.642,1371.429,39.302C1381.587,45.963,1391.746,51.097,1401.905,60.561C1412.063,70.025,1422.222,83.817,1432.381,86.354C1442.54,88.89,1452.698,80.17,1462.857,74.181C1473.016,68.191,1483.175,64.931,1493.333,61.65C1503.492,58.368,1513.651,55.066,1523.81,55.563C1533.968,56.06,1544.127,60.357,1554.286,61.457C1564.444,62.557,1574.603,60.459,1584.762,65.751C1594.921,71.043,1605.079,83.724,1615.238,76.674C1625.397,69.625,1635.556,42.845,1645.714,41.545C1655.873,40.245,1666.032,64.425,1676.19,66.321C1686.349,68.218,1696.508,47.83,1706.667,43.132C1716.825,38.434,1726.984,49.425,1737.143,47.406C1747.302,45.387,1757.46,30.358,1767.619,20.71C1777.778,11.062,1787.937,6.794,1798.095,8.407C1808.254,10.02,1818.413,17.513,1828.571,18.884C1838.73,20.254,1848.889,15.503,1859.048,11.488C1869.206,7.474,1879.365,4.196,1889.524,18.704C1899.683,33.211,1909.841,65.503,1914.921,81.649L1920,97.795L1920,392.727L1914.921,392.727C1909.841,392.727,1899.683,392.727,1889.524,392.727C1879.365,392.727,1869.206,392.727,1859.048,392.727C1848.889,392.727,1838.73,392.727,1828.571,392.727C1818.413,392.727,1808.254,392.727,1798.095,392.727C1787.937,392.727,1777.778,392.727,1767.619,392.727C1757.46,392.727,1747.302,392.727,1737.143,392.727C1726.984,392.727,1716.825,392.727,1706.667,392.727C1696.508,392.727,1686.349,392.727,1676.19,392.727C1666.032,392.727,1655.873,392.727,1645.714,392.727C1635.556,392.727,1625.397,392.727,1615.238,392.727C1605.079,392.727,1594.921,392.727,1584.762,392.727C1574.603,392.727,1564.444,392.727,1554.286,392.727C1544.127,392.727,1533.968,392.727,1523.81,392.727C1513.651,392.727,1503.492,392.727,1493.333,392.727C1483.175,392.727,1473.016,392.727,1462.857,392.727C1452.698,392.727,1442.54,392.727,1432.381,392.727C1422.222,392.727,1412.063,392.727,1401.905,392.727C1391.746,392.727,1381.587,392.727,1371.429,392.727C1361.27,392.727,1351.111,392.727,1340.952,392.727C1330.794,392.727,1320.635,392.727,1310.476,392.727C1300.317,392.727,1290.159,392.727,1280,392.727C1269.841,392.727,1259.683,392.727,1249.524,392.727C1239.365,392.727,1229.206,392.727,1219.048,392.727C1208.889,392.727,1198.73,392.727,1188.571,392.727C1178.413,392.727,1168.254,392.727,1158.095,392.727C1147.937,392.727,1137.778,392.727,1127.619,392.727C1117.46,392.727,1107.302,392.727,1097.143,392.727C1086.984,392.727,1076.825,392.727,1066.667,392.727C1056.508,392.727,1046.349,392.727,1036.19,392.727C1026.032,392.727,1015.873,392.727,1005.714,392.727C995.556,392.727,985.397,392.727,975.238,392.727C965.079,392.727,954.921,392.727,944.762,392.727C934.603,392.727,924.444,392.727,914.286,392.727C904.127,392.727,893.968,392.727,883.81,392.727C873.651,392.727,863.492,392.727,853.333,392.727C843.175,392.727,833.016,392.727,822.857,392.727C812.698,392.727,802.54,392.727,792.381,392.727C782.222,392.727,772.063,392.727,761.905,392.727C751.746,392.727,741.587,392.727,731.429,392.727C721.27,392.727,711.111,392.727,700.952,392.727C690.794,392.727,680.635,392.727,670.476,392.727C660.317,392.727,650.159,392.727,640,392.727C629.841,392.727,619.683,392.727,609.524,392.727C599.365,392.727,589.206,392.727,579.048,392.727C568.889,392.727,558.73,392.727,548.571,392.727C538.413,392.727,528.254,392.727,518.095,392.727C507.937,392.727,497.778,392.727,487.619,392.727C477.46,392.727,467.302,392.727,457.143,392.727C446.984,392.727,436.825,392.727,426.667,392.727C416.508,392.727,406.349,392.727,396.19,392.727C386.032,392.727,375.873,392.727,365.714,392.727C355.556,392.727,345.397,392.727,335.238,392.727C325.079,392.727,314.921,392.727,304.762,392.727C294.603,392.727,284.444,392.727,274.286,392.727C264.127,392.727,253.968,392.727,243.81,392.727C233.651,392.727,223.492,392.727,213.333,392.727C203.175,392.727,193.016,392.727,182.857,392.727C172.698,392.727,162.54,392.727,152.381,392.727C142.222,392.727,132.063,392.727,121.905,392.727C111.746,392.727,101.587,392.727,91.429,392.727C81.27,392.727,71.111,392.727,60.952,392.727C50.794,392.727,40.635,392.727,30.476,392.727C20.317,392.727,10.159,392.727,5.079,392.727L0,392.727Z"></path></g><g transform="translate(0, 785.4545454545455)"><path fill="rgb(15, 15, 15)" fill-opacity="1" d="M0,96.997L5.079,90.675C10.159,84.353,20.317,71.71,30.476,63.442C40.635,55.173,50.794,51.279,60.952,47.762C71.111,44.245,81.27,41.105,91.429,41.469C101.587,41.832,111.746,45.7,121.905,49.206C132.063,52.712,142.222,55.855,152.381,48.386C162.54,40.916,172.698,22.833,182.857,26.757C193.016,30.68,203.175,56.611,213.333,64.649C223.492,72.688,233.651,62.834,243.81,64.315C253.968,65.797,264.127,78.613,274.286,70.7C284.444,62.787,294.603,34.144,304.762,26.964C314.921,19.783,325.079,34.065,335.238,43.333C345.397,52.602,355.556,56.857,365.714,57.958C375.873,59.059,386.032,57.006,396.19,47.797C406.349,38.588,416.508,22.223,426.667,20.943C436.825,19.663,446.984,33.468,457.143,40.25C467.302,47.032,477.46,46.793,487.619,50.533C497.778,54.273,507.937,61.992,518.095,66.162C528.254,70.331,538.413,70.95,548.571,74.529C558.73,78.107,568.889,84.645,579.048,77.248C589.206,69.851,599.365,48.519,609.524,36.329C619.683,24.138,629.841,21.089,640,22.51C650.159,23.931,660.317,29.822,670.476,40.878C680.635,51.935,690.794,68.157,700.952,70.536C711.111,72.915,721.27,61.452,731.429,63.158C741.587,64.865,751.746,79.741,761.905,83.56C772.063,87.38,782.222,80.142,792.381,65.051C802.54,49.959,812.698,27.014,822.857,28.802C833.016,30.59,843.175,57.111,853.333,68.314C863.492,79.517,873.651,75.402,883.81,67.787C893.968,60.172,904.127,49.056,914.286,46.508C924.444,43.961,934.603,49.981,944.762,50.344C954.921,50.706,965.079,45.411,975.238,40.958C985.397,36.504,995.556,32.892,1005.714,38.585C1015.873,44.278,1026.032,59.276,1036.19,68.037C1046.349,76.797,1056.508,79.319,1066.667,76.078C1076.825,72.836,1086.984,63.831,1097.143,52.288C1107.302,40.746,1117.46,26.667,1127.619,24.004C1137.778,21.342,1147.937,30.096,1158.095,33.572C1168.254,37.048,1178.413,35.247,1188.571,34.638C1198.73,34.03,1208.889,34.616,1219.048,38.408C1229.206,42.201,1239.365,49.2,1249.524,56.523C1259.683,63.845,1269.841,71.49,1280,67.64C1290.159,63.791,1300.317,48.447,1310.476,41.881C1320.635,35.315,1330.794,37.527,1340.952,34.084C1351.111,30.641,1361.27,21.542,1371.429,22.005C1381.587,22.467,1391.746,32.491,1401.905,31.974C1412.063,31.457,1422.222,20.399,1432.381,16.681C1442.54,12.963,1452.698,16.586,1462.857,31.202C1473.016,45.818,1483.175,71.428,1493.333,83.798C1503.492,96.169,1513.651,95.301,1523.81,86.764C1533.968,78.227,1544.127,62.021,1554.286,61.275C1564.444,60.528,1574.603,75.241,1584.762,72.808C1594.921,70.375,1605.079,50.797,1615.238,48.23C1625.397,45.662,1635.556,60.106,1645.714,58.725C1655.873,57.344,1666.032,40.137,1676.19,27.835C1686.349,15.534,1696.508,8.137,1706.667,19.194C1716.825,30.251,1726.984,59.762,1737.143,74.417C1747.302,89.071,1757.46,88.87,1767.619,83.509C1777.778,78.148,1787.937,67.627,1798.095,65.453C1808.254,63.278,1818.413,69.45,1828.571,71.475C1838.73,73.5,1848.889,71.378,1859.048,64.918C1869.206,58.457,1879.365,47.657,1889.524,36.168C1899.683,24.68,1909.841,12.503,1914.921,6.415L1920,0.327L1920,294.545L1914.921,294.545C1909.841,294.545,1899.683,294.545,1889.524,294.545C1879.365,294.545,1869.206,294.545,1859.048,294.545C1848.889,294.545,1838.73,294.545,1828.571,294.545C1818.413,294.545,1808.254,294.545,1798.095,294.545C1787.937,294.545,1777.778,294.545,1767.619,294.545C1757.46,294.545,1747.302,294.545,1737.143,294.545C1726.984,294.545,1716.825,294.545,1706.667,294.545C1696.508,294.545,1686.349,294.545,1676.19,294.545C1666.032,294.545,1655.873,294.545,1645.714,294.545C1635.556,294.545,1625.397,294.545,1615.238,294.545C1605.079,294.545,1594.921,294.545,1584.762,294.545C1574.603,294.545,1564.444,294.545,1554.286,294.545C1544.127,294.545,1533.968,294.545,1523.81,294.545C1513.651,294.545,1503.492,294.545,1493.333,294.545C1483.175,294.545,1473.016,294.545,1462.857,294.545C1452.698,294.545,1442.54,294.545,1432.381,294.545C1422.222,294.545,1412.063,294.545,1401.905,294.545C1391.746,294.545,1381.587,294.545,1371.429,294.545C1361.27,294.545,1351.111,294.545,1340.952,294.545C1330.794,294.545,1320.635,294.545,1310.476,294.545C1300.317,294.545,1290.159,294.545,1280,294.545C1269.841,294.545,1259.683,294.545,1249.524,294.545C1239.365,294.545,1229.206,294.545,1219.048,294.545C1208.889,294.545,1198.73,294.545,1188.571,294.545C1178.413,294.545,1168.254,294.545,1158.095,294.545C1147.937,294.545,1137.778,294.545,1127.619,294.545C1117.46,294.545,1107.302,294.545,1097.143,294.545C1086.984,294.545,1076.825,294.545,1066.667,294.545C1056.508,294.545,1046.349,294.545,1036.19,294.545C1026.032,294.545,1015.873,294.545,1005.714,294.545C995.556,294.545,985.397,294.545,975.238,294.545C965.079,294.545,954.921,294.545,944.762,294.545C934.603,294.545,924.444,294.545,914.286,294.545C904.127,294.545,893.968,294.545,883.81,294.545C873.651,294.545,863.492,294.545,853.333,294.545C843.175,294.545,833.016,294.545,822.857,294.545C812.698,294.545,802.54,294.545,792.381,294.545C782.222,294.545,772.063,294.545,761.905,294.545C751.746,294.545,741.587,294.545,731.429,294.545C721.27,294.545,711.111,294.545,700.952,294.545C690.794,294.545,680.635,294.545,670.476,294.545C660.317,294.545,650.159,294.545,640,294.545C629.841,294.545,619.683,294.545,609.524,294.545C599.365,294.545,589.206,294.545,579.048,294.545C568.889,294.545,558.73,294.545,548.571,294.545C538.413,294.545,528.254,294.545,518.095,294.545C507.937,294.545,497.778,294.545,487.619,294.545C477.46,294.545,467.302,294.545,457.143,294.545C446.984,294.545,436.825,294.545,426.667,294.545C416.508,294.545,406.349,294.545,396.19,294.545C386.032,294.545,375.873,294.545,365.714,294.545C355.556,294.545,345.397,294.545,335.238,294.545C325.079,294.545,314.921,294.545,304.762,294.545C294.603,294.545,284.444,294.545,274.286,294.545C264.127,294.545,253.968,294.545,243.81,294.545C233.651,294.545,223.492,294.545,213.333,294.545C203.175,294.545,193.016,294.545,182.857,294.545C172.698,294.545,162.54,294.545,152.381,294.545C142.222,294.545,132.063,294.545,121.905,294.545C111.746,294.545,101.587,294.545,91.429,294.545C81.27,294.545,71.111,294.545,60.952,294.545C50.794,294.545,40.635,294.545,30.476,294.545C20.317,294.545,10.159,294.545,5.079,294.545L0,294.545Z"></path></g><g transform="translate(0, 883.6363636363637)"><path fill="rgb(7, 7, 7)" fill-opacity="1" d="M0,26.069L5.079,37.575C10.159,49.081,20.317,72.092,30.476,74.155C40.635,76.217,50.794,57.33,60.952,55.851C71.111,54.371,81.27,70.3,91.429,70.308C101.587,70.316,111.746,54.403,121.905,54.237C132.063,54.071,142.222,69.651,152.381,72.21C162.54,74.769,172.698,64.307,182.857,53.111C193.016,41.916,203.175,29.987,213.333,23.366C223.492,16.744,233.651,15.43,243.81,20.513C253.968,25.596,264.127,37.077,274.286,38.721C284.444,40.366,294.603,32.173,304.762,37.032C314.921,41.891,325.079,59.801,335.238,68.537C345.397,77.274,355.556,76.837,365.714,64.576C375.873,52.315,386.032,28.23,396.19,19.297C406.349,10.365,416.508,16.586,426.667,19.275C436.825,21.965,446.984,21.123,457.143,19.762C467.302,18.401,477.46,16.522,487.619,18.058C497.778,19.593,507.937,24.543,518.095,25.738C528.254,26.934,538.413,24.375,548.571,19.645C558.73,14.915,568.889,8.016,579.048,14.784C589.206,21.553,599.365,41.99,609.524,52.26C619.683,62.529,629.841,62.631,640,52.356C650.159,42.08,660.317,21.427,670.476,16.608C680.635,11.79,690.794,22.807,700.952,38.237C711.111,53.667,721.27,73.51,731.429,82.004C741.587,90.498,751.746,87.643,761.905,72.623C772.063,57.603,782.222,30.418,792.381,31.463C802.54,32.508,812.698,61.783,822.857,68.816C833.016,75.85,843.175,60.641,853.333,54.803C863.492,48.965,873.651,52.498,883.81,58.829C893.968,65.161,904.127,74.29,914.286,69.697C924.444,65.103,934.603,46.787,944.762,36.839C954.921,26.89,965.079,25.31,975.238,28.71C985.397,32.109,995.556,40.489,1005.714,45.808C1015.873,51.127,1026.032,53.385,1036.19,48.449C1046.349,43.513,1056.508,31.382,1066.667,29.627C1076.825,27.872,1086.984,36.493,1097.143,47.266C1107.302,58.039,1117.46,70.964,1127.619,68.787C1137.778,66.61,1147.937,49.33,1158.095,40.175C1168.254,31.02,1178.413,29.99,1188.571,38.408C1198.73,46.826,1208.889,64.693,1219.048,66.795C1229.206,68.898,1239.365,55.236,1249.524,55.371C1259.683,55.507,1269.841,69.439,1280,68.977C1290.159,68.515,1300.317,53.66,1310.476,46.164C1320.635,38.668,1330.794,38.532,1340.952,42.028C1351.111,45.524,1361.27,52.652,1371.429,57.953C1381.587,63.254,1391.746,66.728,1401.905,64.147C1412.063,61.566,1422.222,52.929,1432.381,57.538C1442.54,62.147,1452.698,80.001,1462.857,73.664C1473.016,67.326,1483.175,36.797,1493.333,24.836C1503.492,12.874,1513.651,19.48,1523.81,24.05C1533.968,28.62,1544.127,31.153,1554.286,37.6C1564.444,44.046,1574.603,54.407,1584.762,54.273C1594.921,54.139,1605.079,43.511,1615.238,45.853C1625.397,48.194,1635.556,63.504,1645.714,69.136C1655.873,74.768,1666.032,70.72,1676.19,70.215C1686.349,69.709,1696.508,72.745,1706.667,70.337C1716.825,67.93,1726.984,60.08,1737.143,63.664C1747.302,67.248,1757.46,82.266,1767.619,76.821C1777.778,71.376,1787.937,45.468,1798.095,40.143C1808.254,34.817,1818.413,50.074,1828.571,60.541C1838.73,71.008,1848.889,76.686,1859.048,77.672C1869.206,78.658,1879.365,74.952,1889.524,61.941C1899.683,48.929,1909.841,26.612,1914.921,15.454L1920,4.295L1920,196.364L1914.921,196.364C1909.841,196.364,1899.683,196.364,1889.524,196.364C1879.365,196.364,1869.206,196.364,1859.048,196.364C1848.889,196.364,1838.73,196.364,1828.571,196.364C1818.413,196.364,1808.254,196.364,1798.095,196.364C1787.937,196.364,1777.778,196.364,1767.619,196.364C1757.46,196.364,1747.302,196.364,1737.143,196.364C1726.984,196.364,1716.825,196.364,1706.667,196.364C1696.508,196.364,1686.349,196.364,1676.19,196.364C1666.032,196.364,1655.873,196.364,1645.714,196.364C1635.556,196.364,1625.397,196.364,1615.238,196.364C1605.079,196.364,1594.921,196.364,1584.762,196.364C1574.603,196.364,1564.444,196.364,1554.286,196.364C1544.127,196.364,1533.968,196.364,1523.81,196.364C1513.651,196.364,1503.492,196.364,1493.333,196.364C1483.175,196.364,1473.016,196.364,1462.857,196.364C1452.698,196.364,1442.54,196.364,1432.381,196.364C1422.222,196.364,1412.063,196.364,1401.905,196.364C1391.746,196.364,1381.587,196.364,1371.429,196.364C1361.27,196.364,1351.111,196.364,1340.952,196.364C1330.794,196.364,1320.635,196.364,1310.476,196.364C1300.317,196.364,1290.159,196.364,1280,196.364C1269.841,196.364,1259.683,196.364,1249.524,196.364C1239.365,196.364,1229.206,196.364,1219.048,196.364C1208.889,196.364,1198.73,196.364,1188.571,196.364C1178.413,196.364,1168.254,196.364,1158.095,196.364C1147.937,196.364,1137.778,196.364,1127.619,196.364C1117.46,196.364,1107.302,196.364,1097.143,196.364C1086.984,196.364,1076.825,196.364,1066.667,196.364C1056.508,196.364,1046.349,196.364,1036.19,196.364C1026.032,196.364,1015.873,196.364,1005.714,196.364C995.556,196.364,985.397,196.364,975.238,196.364C965.079,196.364,954.921,196.364,944.762,196.364C934.603,196.364,924.444,196.364,914.286,196.364C904.127,196.364,893.968,196.364,883.81,196.364C873.651,196.364,863.492,196.364,853.333,196.364C843.175,196.364,833.016,196.364,822.857,196.364C812.698,196.364,802.54,196.364,792.381,196.364C782.222,196.364,772.063,196.364,761.905,196.364C751.746,196.364,741.587,196.364,731.429,196.364C721.27,196.364,711.111,196.364,700.952,196.364C690.794,196.364,680.635,196.364,670.476,196.364C660.317,196.364,650.159,196.364,640,196.364C629.841,196.364,619.683,196.364,609.524,196.364C599.365,196.364,589.206,196.364,579.048,196.364C568.889,196.364,558.73,196.364,548.571,196.364C538.413,196.364,528.254,196.364,518.095,196.364C507.937,196.364,497.778,196.364,487.619,196.364C477.46,196.364,467.302,196.364,457.143,196.364C446.984,196.364,436.825,196.364,426.667,196.364C416.508,196.364,406.349,196.364,396.19,196.364C386.032,196.364,375.873,196.364,365.714,196.364C355.556,196.364,345.397,196.364,335.238,196.364C325.079,196.364,314.921,196.364,304.762,196.364C294.603,196.364,284.444,196.364,274.286,196.364C264.127,196.364,253.968,196.364,243.81,196.364C233.651,196.364,223.492,196.364,213.333,196.364C203.175,196.364,193.016,196.364,182.857,196.364C172.698,196.364,162.54,196.364,152.381,196.364C142.222,196.364,132.063,196.364,121.905,196.364C111.746,196.364,101.587,196.364,91.429,196.364C81.27,196.364,71.111,196.364,60.952,196.364C50.794,196.364,40.635,196.364,30.476,196.364C20.317,196.364,10.159,196.364,5.079,196.364L0,196.364Z"></path></g><g transform="translate(0, 981.8181818181818)"><path fill="rgb(0, 0, 0)" fill-opacity="1" d="M0,81.821L5.079,69.247C10.159,56.674,20.317,31.526,30.476,25.427C40.635,19.329,50.794,32.279,60.952,42.501C71.111,52.722,81.27,60.216,91.429,53.968C101.587,47.72,111.746,27.731,121.905,31.2C132.063,34.668,142.222,61.594,152.381,72.28C162.54,82.966,172.698,77.412,182.857,75.427C193.016,73.441,203.175,75.024,213.333,64.003C223.492,52.982,233.651,29.357,243.81,17.74C253.968,6.122,264.127,6.513,274.286,11.681C284.444,16.848,294.603,26.792,304.762,35.681C314.921,44.571,325.079,52.405,335.238,48.503C345.397,44.601,355.556,28.963,365.714,19.12C375.873,9.278,386.032,5.232,396.19,10.879C406.349,16.526,416.508,31.866,426.667,43.791C436.825,55.716,446.984,64.227,457.143,70.157C467.302,76.088,477.46,79.439,487.619,74.282C497.778,69.125,507.937,55.461,518.095,49.244C528.254,43.026,538.413,44.256,548.571,52.716C558.73,61.175,568.889,76.864,579.048,79.529C589.206,82.194,599.365,71.834,609.524,69.888C619.683,67.941,629.841,74.408,640,69.88C650.159,65.353,660.317,49.832,670.476,38.126C680.635,26.42,690.794,18.53,700.952,15.232C711.111,11.935,721.27,13.23,731.429,27.668C741.587,42.106,751.746,69.687,761.905,67.822C772.063,65.957,782.222,34.647,792.381,19.128C802.54,3.608,812.698,3.879,822.857,15.901C833.016,27.923,843.175,51.696,853.333,60.236C863.492,68.775,873.651,62.081,883.81,53.964C893.968,45.846,904.127,36.304,914.286,29.811C924.444,23.317,934.603,19.872,944.762,20.965C954.921,22.059,965.079,27.692,975.238,27.021C985.397,26.35,995.556,19.375,1005.714,20.234C1015.873,21.092,1026.032,29.785,1036.19,42.285C1046.349,54.786,1056.508,71.093,1066.667,67.219C1076.825,63.344,1086.984,39.287,1097.143,38.718C1107.302,38.149,1117.46,61.068,1127.619,60.449C1137.778,59.829,1147.937,35.671,1158.095,37.69C1168.254,39.71,1178.413,67.906,1188.571,75.058C1198.73,82.209,1208.889,68.316,1219.048,57.785C1229.206,47.254,1239.365,40.084,1249.524,43.537C1259.683,46.99,1269.841,61.066,1280,65.405C1290.159,69.745,1300.317,64.348,1310.476,53.099C1320.635,41.849,1330.794,24.746,1340.952,21.836C1351.111,18.926,1361.27,30.21,1371.429,30.425C1381.587,30.639,1391.746,19.784,1401.905,21.642C1412.063,23.5,1422.222,38.072,1432.381,44.123C1442.54,50.174,1452.698,47.705,1462.857,46.76C1473.016,45.816,1483.175,46.396,1493.333,52.887C1503.492,59.379,1513.651,71.781,1523.81,69.412C1533.968,67.042,1544.127,49.9,1554.286,45.946C1564.444,41.992,1574.603,51.226,1584.762,55.885C1594.921,60.544,1605.079,60.629,1615.238,58.104C1625.397,55.579,1635.556,50.444,1645.714,47.654C1655.873,44.863,1666.032,44.416,1676.19,47.314C1686.349,50.213,1696.508,56.457,1706.667,64.103C1716.825,71.75,1726.984,80.798,1737.143,73.394C1747.302,65.99,1757.46,42.132,1767.619,40.188C1777.778,38.244,1787.937,58.213,1798.095,57.19C1808.254,56.168,1818.413,34.154,1828.571,26.831C1838.73,19.508,1848.889,26.877,1859.048,38.806C1869.206,50.735,1879.365,67.224,1889.524,73.55C1899.683,79.875,1909.841,76.037,1914.921,74.118L1920,72.199L1920,98.182L1914.921,98.182C1909.841,98.182,1899.683,98.182,1889.524,98.182C1879.365,98.182,1869.206,98.182,1859.048,98.182C1848.889,98.182,1838.73,98.182,1828.571,98.182C1818.413,98.182,1808.254,98.182,1798.095,98.182C1787.937,98.182,1777.778,98.182,1767.619,98.182C1757.46,98.182,1747.302,98.182,1737.143,98.182C1726.984,98.182,1716.825,98.182,1706.667,98.182C1696.508,98.182,1686.349,98.182,1676.19,98.182C1666.032,98.182,1655.873,98.182,1645.714,98.182C1635.556,98.182,1625.397,98.182,1615.238,98.182C1605.079,98.182,1594.921,98.182,1584.762,98.182C1574.603,98.182,1564.444,98.182,1554.286,98.182C1544.127,98.182,1533.968,98.182,1523.81,98.182C1513.651,98.182,1503.492,98.182,1493.333,98.182C1483.175,98.182,1473.016,98.182,1462.857,98.182C1452.698,98.182,1442.54,98.182,1432.381,98.182C1422.222,98.182,1412.063,98.182,1401.905,98.182C1391.746,98.182,1381.587,98.182,1371.429,98.182C1361.27,98.182,1351.111,98.182,1340.952,98.182C1330.794,98.182,1320.635,98.182,1310.476,98.182C1300.317,98.182,1290.159,98.182,1280,98.182C1269.841,98.182,1259.683,98.182,1249.524,98.182C1239.365,98.182,1229.206,98.182,1219.048,98.182C1208.889,98.182,1198.73,98.182,1188.571,98.182C1178.413,98.182,1168.254,98.182,1158.095,98.182C1147.937,98.182,1137.778,98.182,1127.619,98.182C1117.46,98.182,1107.302,98.182,1097.143,98.182C1086.984,98.182,1076.825,98.182,1066.667,98.182C1056.508,98.182,1046.349,98.182,1036.19,98.182C1026.032,98.182,1015.873,98.182,1005.714,98.182C995.556,98.182,985.397,98.182,975.238,98.182C965.079,98.182,954.921,98.182,944.762,98.182C934.603,98.182,924.444,98.182,914.286,98.182C904.127,98.182,893.968,98.182,883.81,98.182C873.651,98.182,863.492,98.182,853.333,98.182C843.175,98.182,833.016,98.182,822.857,98.182C812.698,98.182,802.54,98.182,792.381,98.182C782.222,98.182,772.063,98.182,761.905,98.182C751.746,98.182,741.587,98.182,731.429,98.182C721.27,98.182,711.111,98.182,700.952,98.182C690.794,98.182,680.635,98.182,670.476,98.182C660.317,98.182,650.159,98.182,640,98.182C629.841,98.182,619.683,98.182,609.524,98.182C599.365,98.182,589.206,98.182,579.048,98.182C568.889,98.182,558.73,98.182,548.571,98.182C538.413,98.182,528.254,98.182,518.095,98.182C507.937,98.182,497.778,98.182,487.619,98.182C477.46,98.182,467.302,98.182,457.143,98.182C446.984,98.182,436.825,98.182,426.667,98.182C416.508,98.182,406.349,98.182,396.19,98.182C386.032,98.182,375.873,98.182,365.714,98.182C355.556,98.182,345.397,98.182,335.238,98.182C325.079,98.182,314.921,98.182,304.762,98.182C294.603,98.182,284.444,98.182,274.286,98.182C264.127,98.182,253.968,98.182,243.81,98.182C233.651,98.182,223.492,98.182,213.333,98.182C203.175,98.182,193.016,98.182,182.857,98.182C172.698,98.182,162.54,98.182,152.381,98.182C142.222,98.182,132.063,98.182,121.905,98.182C111.746,98.182,101.587,98.182,91.429,98.182C81.27,98.182,71.111,98.182,60.952,98.182C50.794,98.182,40.635,98.182,30.476,98.182C20.317,98.182,10.159,98.182,5.079,98.182L0,98.182Z"></path></g></g></svg>